<?xml version="1.0" encoding="UTF-8"?>
<svg id="Main" xmlns="http://www.w3.org/2000/svg" viewBox="0 0 137.18 149.7">
  <defs>
    <style>
      .cls-1 {
        stroke-width: 0px;
      }
    </style>
  </defs>
  <path class="cls-1" d="M21.44,82.89c.66,1.92.13,3.67-.94,5.22-1.26,1.84-2.54,3.65-3.46,5.7-3.25,7.2-7.63,13.85-10.14,21.41-.59,1.79.07,2.02,1.42,2.17,1.03.12,1.82-.28,2.38-1.13.77-1.16,1.52-2.34,2.26-3.52,2.85-4.5,6.25-8.65,8.77-13.38,3.53-6.62,7.3-13.11,10.63-19.83,1.99-4.02,4.43-7.78,6.31-11.85,1.49-3.23,3.08-6.44,4.91-9.49,3.27-5.43,6.42-10.97,8.62-16.87,2.45-6.57,5.69-12.7,8.78-18.95,1.36-2.74,3.31-5.33,3.4-8.53.03-1.19.09-2.11,1.31-2.21,1.09-.09,2.2.31,2.47,1.65.96,4.77,3.92,8.51,6.47,12.43,5.07,7.79,9.84,15.76,14,24.08-1.05-.16-1.8-.64-2.38-1.62-3.57-6.08-6.94-12.3-10.94-18.09-2.46-3.56-4.78-7.2-7.12-10.83-1.4-2.17-1.83-2.19-3.11,0-1.71,2.93-3.25,5.98-4.65,9.08-.65,1.44-1.5,2.75-2.42,3.95-2.71,3.5-2.92,7.94-4.7,11.81-1.97,4.29-4.4,8.33-6.64,12.44-2.53,4.65-4.6,9.55-7.45,14.01-2.31,3.61-3.59,7.72-5.79,11.34-2.58,4.24-4.56,8.74-6.73,13.18-.86,1.77-.15,2.17,1.38,2.42,4.03.65,8.05-.03,12.07-.06,6.69-.05,13.43.23,20.05-.19,7.54-.48,14.99.5,22.49.13,5.18-.26,10.3.48,15.45,1.01,4.62.47,9.73.56,14.22-1.93.66-.37.81-.75.39-1.25-.73-.88-.71-2.05-1.27-2.97-4.37-7.15-7.45-14.98-11.73-22.18-3.23-5.44-6.6-10.81-9.8-16.27-.7-1.2-1.72-2.41-1.38-4.01,1.3-.47,1.37.76,1.73,1.37,1.15,1.93,1.95,4.09,3.27,5.88,3.4,4.61,6.1,9.64,9.08,14.49,3.55,5.77,6.01,12.14,9.33,18.07,4.6,8.21,8.93,16.56,13.42,24.83,1.29,2.38,2.71,4.7,4.13,7.01.83,1.35,2.34,2,3.59,1.35,1.38-.72.14-2.01-.19-3.03-.09-.29-.23-.58-.39-.84-5.14-8.14-8.28-17.29-12.89-25.69-.89-1.62-2.64-3.12-1.88-5.38-2.61-1.02-1.62-3.45-2.09-5.31l-.04.06c.08.22.13.46.26.64,4.3,6.01,7.25,12.77,10.46,19.36,2.51,5.15,5.42,10.09,7.9,15.25.94,1.96,2.83,3.37,2.9,5.87.04,1.5-.47,2.01-1.74,2.11-1.39.1-2.8.26-4.17.12-1.95-.2-3.39-.96-3.87-3.28-.39-1.93-1.23-3.9-2.36-5.51-2.57-3.64-4.37-7.67-6.52-11.52-1.39-2.5-2.46-5.21-4.5-7.72-.43,1.56-.91,2.72-1.05,3.92-.72,6-1.01,12.03-1.34,18.07-.45,8.14-.35,16.28-.46,24.42-.03,1.96.58,2.79,2.79,2.9,5.52.27,10.99-.23,16.47-.66.86-.07,1.92-.26,1.98.94.04.94-.66,1.46-1.74,1.4-4.79-.26-9.58.47-14.38.07-4.27-.36-8.5,1.17-12.7.68-6.72-.77-13.44-.22-20.17-.64-8.47-.53-16.98-.12-25.46.37-5.99.35-11.92-.29-17.86-.56-3.26-.15-6.37.72-9.69.37-7.59-.8-15.24-.94-22.88-1.25-1.99-.08-4,.14-6,.27-.85.05-1.39-.31-1.51-1.1-.15-.96.55-1.06,1.31-1.2,1.01-.18,1.98-.25,2.99-.09,4.99.78,10.02.9,15.05,1.08,1.9.07,2.84-.7,2.98-2.64.41-5.53,1.64-10.99,1.38-16.59-.09-2.01-.19-4.08.17-6.04,1.19-6.66.7-13.41,1.33-20.09.06-.69-.11-1.29-.77-1.54-.81-.31-1.05.44-1.37.94-1.78,2.81-3.41,5.69-5.39,8.39-2.01,2.73-3.84,5.65-5.15,8.81-1.1,2.65-1.53,2.98-4.07,1.96-.92-.37-1.61-.54-2.59.02-1.12.64-2.52.5-3.35-.56-.87-1.12-.13-2.24.7-3.09,1.85-1.93,3.21-4.33,4.18-6.62,2.15-5.09,4.9-9.85,7.31-14.78,2.02-4.14,4.48-8.07,6.74-12.1l-.02-.04ZM33.58,115.73c-.05-1.9.96-2.74,2.7-2.73,4.26.03,8.52.07,12.78.26,1.58.07,2.66.8,2.53,2.83-.51,7.66-.92,15.32-1.26,22.99-.1,2.32.12,4.65.19,6.97.05,1.67,1.32,1.86,2.48,1.75,6.65-.64,13.32-.31,19.98-.57,6.29-.25,12.54.45,18.83.25,4.56-.14,9.13.09,13.69.25,2.28.08,3.37-.76,3.49-3.17.23-4.49.55-8.96.65-13.46.19-8.91.41-17.83,1.19-26.72.33-3.77.18-3.92-3.67-3.82-5.11.13-10.19-.03-15.22-1.16-3.67-.82-7.41-.08-11.12,0-3.88.09-7.72-.05-11.53-.76-.45-.08-.93-.12-1.38-.07-4.58.56-9.16.28-13.76.13-4.84-.16-9.7.39-14.55.67-3.48.2-6.96.08-10.43.67-1.55.26-2.24.85-2.23,2.34.09,9.45-1.46,18.84-1.19,28.31.07,2.3-.22,4.65-.64,6.93-.42,2.31-.13,4.64-.46,6.92-.27,1.92.47,2.81,2.36,2.78,5.25-.1,4.55.65,5.3-4.48,1-6.8,1.91-13.64,1.27-19.93,0-2.8.04-4.98-.01-7.15ZM34.56,141.81c-.15,1.15-.16,2.32-.21,3.48-.05,1.24.55,1.84,1.81,1.88,3.32.12,6.63.29,9.95.42,1.03.04,1.93-.22,1.8-1.52-.32-3.2.52-6.31.64-9.48.21-5.71.87-11.4.84-17.13-.02-2.73-.62-3.46-3.28-3.69-2.46-.22-4.92-.42-7.39-.5-1.77-.06-2.72.82-2.58,2.73.09,1.31.02,2.63.02,3.95.11,6.67-.74,13.26-1.59,19.86Z"/>
  <path class="cls-1" d="M21.47,82.94c1.69-.93,1.6-2.86,2.39-4.3,1.39-2.55,3.37-4.88,4.37-7.49,1.33-3.47,2.67-6.92,4.28-10.28.4-.83,1.28-1.72.92-2.57-1.25-2.97-.21-5.94-.25-8.9-.06-4.68.23-9.37.3-14.06.02-1.15-.21-2.31-.41-3.45-.94-5.2.2-10.56-1.21-15.73-.29-1.07.15-2.42,1.3-2.28,3.03.38,5.77-1.09,8.7-1.02,1.69.04,2.89.79,2.78,2.67-.14,2.64.24,5.25.21,7.9-.04,3.42.06,6.9,1.13,10.73,1.88-3.39,3.86-6.26,5.16-9.41,3.25-7.89,7.78-15.17,10.94-23.09.46-1.16,1.43-1.58,2.59-1.66,1.24-.09,1.5.86,1.84,1.74,2.85,7.37,7.78,13.54,11.9,20.15,3.07,4.92,6.36,9.7,9.17,14.87-1.03.38-1.64.06-2.11-.67-2.65-4.15-5.23-8.32-8.08-12.35-4.28-6.06-7.98-12.51-11.94-18.8-.31-.49-.42-1.28-1.27-1.08-.63.15-1.04.64-1.33,1.22-.37.75-.36,1.57-.8,2.37-3.04,5.48-6.42,10.78-8.94,16.53-2.61,5.96-5.76,11.65-8.64,17.47-1.43,2.89-3.59,5.52-4.65,8.37-1.32,3.54-3.31,6.55-5.04,9.79-1.41,2.65-3,5.25-4.05,8.04-1.91,5.06-4.25,9.9-6.82,14.65-.65,1.21-1.44,1.25-2.46.57,0,0,.02.04.03.05ZM35.48,36.37c.34,3.83,0,7.73-.22,11.59-.08,1.51.59,2.88.45,4.36-.02.23.26.62.48.7.58.22.79-.34,1.04-.7,1.79-2.54,2.62-5.57,4.29-8.2.62-.98,1.19-2.12,1.62-3.29,1.27-3.42-.13-6.76-.07-10.14.08-4.31-.44-8.63-.66-12.95-.09-1.77-.96-2.32-2.6-1.94-.23.05-.46.07-.69.1-4.11.46-4.39.78-4.33,4.89,0,.54,0,1.09,0,1.63.67,4.62.27,9.29.69,13.94Z"/>
  <path class="cls-1" d="M115.65,82.54c-3.8-6.44-7.43-13-11.47-19.28-2.73-4.23-4.92-8.75-7.56-13.02-2.36-3.8-4.82-7.55-7.24-11.31-.4-.62-.81-1.66-1.71-.98-.87.65.07,1.34.39,2,2.31,4.73,6.16,8.47,8.45,13.2,2.85,5.86,6.56,11.2,9.82,16.8,2.16,3.71,4.84,7.17,6.33,11.3.33.9.85,3.76,3.03,1.22,0,0-.03.06-.03.06Z"/>
  <path class="cls-1" d="M48.78,88.21c-1.05-.11-1.65-.78-1.26-1.76,2.19-5.41,2.04-11.03,1.64-16.67-.11-1.51.54-2.22,1.96-2.22,1.07,0,2.14.33,3.16.45,1.72.2,4.11,1.5,5.17-.79,3.65-7.86,6.78-15.92,7.73-24.64.07-.69,0-1.48.95-1.62.93-.14,1.48.34,1.65,1.23.65,3.29,2.05,6.33,3.11,9.48,1.87,5.56,3.59,11.18,7.02,16.08.95,1.36,2,1.95,3.64,1.94,2.18-.01,4.32-.28,6.47-.58,2.24-.31,2.83.52,1.99,2.63-1.8,4.49-1.56,9.27-1.73,13.95-.1,2.85-.5,4.04-3.33,3.84-5.11-.36-10.23-.31-15.35-.73-6.25-.51-12.59.12-18.88-.29-1.31-.1-2.63-.18-3.94-.31ZM75.32,86.64c1.74-.12,2.77-.63,2.72-2.6-.08-3.02,1.01-5.94.79-9-.21-2.78-.96-3.92-3.75-3.68-2.99.26-5.85-.32-8.78-.4-2.96-.08-3.04.23-3.73,3.09-.86,3.52-.46,7.09-.89,10.62-.16,1.32.44,1.63,1.59,1.57,1.08-.05,2.17-.01,3.77-.01,2.44-.45,5.32.61,8.28.41ZM75.58,69.25c2.11-.23,2.27-.25,1.28-2.25-.82-1.66-1.5-3.4-2.43-4.99-2.04-3.46-2.74-7.36-3.9-11.11-.28-.91-.21-2.42-1.4-2.31-1.03.09-.97,1.58-1.25,2.53-1.22,4.13-2.34,8.28-4.48,12.08-.77,1.37-.78,2.99-.95,4.52-.1.89.56,1.19,1.35,1.2.7.01,1.39,0,2.09,0,3.23.08,6.42.68,9.69.32ZM51.29,82.97c-.1,1.41.07,2.41,1.89,2.42,1.82,0,3.78,1.8,5.34.63,1.47-1.1.84-3.44,1.14-5.22.43-2.59.58-5.23.88-7.84.17-1.47-.49-2.19-1.93-2.28-.93-.06-1.86-.09-2.77-.23-3.93-.59-3.93-.61-3.93,3.26-.2,3.09-.38,6.18-.61,9.26ZM81.21,86.12c1.79.82,3.78,1.44,5.84.57.76-.32.93-.87,1.11-1.6.94-3.88,0-7.88.81-11.77.2-.96-.39-1.62-1.53-1.51-.77.07-1.55.15-2.32.14-4.03-.07-4.06-.05-4.22,4.08-.04,1.09-.05,2.17-.13,3.25-.08,1.08-.23,2.15-.34,3.15.17,1.33-.71,3.02.78,3.69Z"/>
  <path class="cls-1" d="M67.84,135.93c-2.78.3-4.16-.81-3.8-3.47.39-2.98.92-5.93,1.08-8.94.2-3.85.79-7.71-.32-11.53-.52-1.8.3-2.73,2.24-2.72,2.27.01,4.54-.02,6.81.05,3.83.13,7.72-.17,11.55-.47,3.59-.29,7.1-.46,10.57.36,1.67.4,3.2,1.1,4.93.38,1-.41,1.5.09,1.51,1.07,0,.69-.06,1.4-.21,2.08-1.25,5.53-.85,11.12-.46,16.67.3,4.16-.75,5.85-4.99,5.81-4.61-.04-9.23-.39-13.81-.9-1.93-.21-3.75-.07-5.49.47-1.38.43-2.7.6-4.52.49-1.49-.48-3.24.43-5.08.63ZM66.87,131.55c-.34.96.35,1.46,1.27,1.44,2.31-.04,4.62-.11,6.93-.23,1.05-.06,1.27-.83,1.44-1.77,1.08-5.96,1.1-12.01,1.71-18.01.14-1.36-.44-2.2-1.88-1.81-1.84.49-3.7.27-5.54.39-1.82.12-3.01.76-3.02,2.96,0,2.54-.38,5.07-.59,7.61-.52,3.12.79,6.31-.32,9.42ZM89.23,129.7c-.46,1.74.23,2.74,1.9,3.02,2.39.4,4.78.21,7.15-.24,1.1-.21,1.4-.87,1.4-2.01-.02-5.23-.07-10.47.48-15.69.14-1.37-.13-2.38-1.8-2.65-1.74-.28-3.4-1.03-5.22-1.03-1.42,0-2.31.4-2.54,2.01-.34,2.37-.67,4.73-.66,8.11-.3,2.16.12,5.37-.71,8.46ZM87.76,112.66c.08-.27.07-.74-.1-.87-1.38-1.14-3.01-.88-4.61-.76-1.2.09-2.45.21-2.59,1.75-.53,5.83-1.01,11.67-1.48,17.51-.04.52.04,1.33.6,1.39,1.97.22,3.99.89,5.95.23,1.69-.57,1.34-2.29,1.47-3.6.27-2.76,1.09-5.48.69-8.47.51-2.27-.64-4.72.06-7.17Z"/>
</svg>