<?xml version="1.0" encoding="UTF-8"?>
<svg id="Main" xmlns="http://www.w3.org/2000/svg" viewBox="0 0 115.38 89.84">
  <defs>
    <style>
      .cls-1 {
        fill: #231f20;
        stroke-width: 0px;
      }
    </style>
  </defs>
  <g>
    <path class="cls-1" d="M12.67,45.9l.22.25c-.76-.74-1.5-1.57-2.22-2.4,1.23,2.13,2.83,4.52,5.08,4.87-.37.65,1.03,2.52,1.19,2.43.43.25.85.51,1.26.8-.28-.2-.55-.4-.84-.59.28.19.56.38.84.59,2.59,1.8,4.81,4.36,7.08,7.03,1.27,1.47,4.88,5.3,6.14,6.85.19.22.37.44.56.66q-.29-.39-.59-.77c.99.72,1.9,1.36,2.74,2.03-.06-.21-.01-.3-.22-.71l.33.43c.56.14,1.36.95,1.82,1.24-.19.03.08.35.33.63l-.03-.18c.95,1.04,2.2,2.11,3.08,3.02.12.12.18.26.19.35l.94.77c-.21.08.58.84.08.52.82.46,1.36,1.22,2.15,1.65,2.2,2.16,4.64,4.37,7.14,6.38v-.11c.89.69,1.88,1.1,2.74,2.15.88.49,1.96,1.36,2.54,1.32.83.75,1.3.91,2.16,1.6-.05-.35.94.57.68.07-.3-.73-.51-.57-.77-1.18l-.04.06c-1.81-2.27-3.72-4.44-5.71-6.58-1.51-1.25-2.9-2.85-4.37-4.24-1.6-1.49-3.37-3.06-4.82-4.25-.36-.27-.46-.63-.66-.97-1.29-1.15-2.78-2.75-4.24-4.04.02.03.05.05.06.07-.75-.7-1.14-1.41-1.88-2.09-.04.05-.15-.06-.23-.09.08-.33-4.62-3.77-4.75-4.14-.08-.06-.17-.13-.25-.21-1.41-1.59-2.57-3.55-3.9-4.8-.38-.18-.77-.42-1.12-.54-.14-.32-.35-.19-.6-.49-.29-1.11-.87-1.34-.65-.84-.63-.52-1.17-1.13-1.69-1.63-.27-.21-.53-.41-.81-.61-.24-.17-.29-.34-.3-.54-.58-.46-.32-.41-.83-.99.01-.27-1.59-1.14-1.7-1.34l.11.07c-.6-.65-.75-1.35-1.35-1.97-1.6-1.81-3.58-3.57-5.11-5.2-.17.13.38.32.2.53-.91-.96-1.66-2.09-2.58-3.05-.13-.21-.26-.49-.29-.62-.25-.36-.25-.11-.45-.35l.1-.16c-.43-.21-.32-.62-.68-.87-.07.04-.19-.07-.29-.18.14-.15-.34-.32-.2-.44h-.01c-.06-.06-.12-.1-.17-.2-.17-.07-1.72-.84-1.91-.9l-.04-.08c-.18-.17-.36-.14-.28,0l-.21-.22h.03s-.2-.21-.2-.21c-.03-.05,0-.16.12-.16-.17-.07-.33-.18-.43-.32.25.42.54.96.74,1.46-.19-.09-.38-.43-.55-.57-.09-.28-.39-.74-.63-1.11-.07-.06-.28.06-.36-.16.04-.18-.17-.16-.22-.37.2.08.31.25.45.4.1-.15-.26-.44-.34-.59-.09-.01-.33-.33-.54-.47.2-.05-.06-.22-.1-.39-.1-.13-.23-.16-.22-.07-.17.1.39.55.08.53.02-.11-.23-.32-.36-.43-.08.07.03.14-.12.13-.12-.15-.36-.21-.36-.37.05,0,.09.08.13.12-.17-.19,1.46.49,1.18.3,0,.13-1.46-.58-1.35-.46.07.15-.21.06-.12.19l.22.04c.13.18.06.38-.04.37-.25-.27,1.24.23.94.08l.05.13c-.14-.05-.43-.25-.45-.43-.07.07-.23-.03-.36-.11l-.02-.05c-.15-.07-.28-.24-.31-.07.65.62-1.16.33-.59.98-.1-.42.25-.08.54.17-.03.08.01.28.16.52.18.16.16.04.23.03.06.13.21.34.1.4.23.03.15.27.34.4.19.09.03-.05.18,0,.2.22.48.53.62.71-.02.14.04.48-.23.46-.3-.33.32-.08-.03-.38-.04.32-.34-.24-.54-.16.02.19.23.4.44.56v-.06c.17.13.52.41.59.68-.1.02-.08.15-.21.05l.2.23s.1.01.05-.06c.15.05.23.18.27.3-.04.09,1.43.86,1.35.87.16.15.09.29.31.38.07-.04-1.72-1.25-1.49-1.07.06.21,2.1,1.42,2.07,1.65.12.11.27.23.31.14.16.23-.19.07-.12.28.01,0,.02-.05.06,0l.05.22c.41.2.71.78,1.17.95-.17-.02-.4,0-.67-.13v-.07s-.24-.15-.3-.08c.15.24.33.39.6.53.02.06.04.12.05.17,0,0,.01-.02.02-.03.02.11.01.11-.04.11,0,0-.02,0-.03,0-.08.32.89.63,1.14,1.09.13.08.04-.02.21.07.28.44.47.75.8,1.17.21.03.25,0,.2-.23l.26.31c-.49-.03.31.75-.2.7.03.14.19.32.39.44.07-.04.19-.11.39.09.2.36.16.26.32.57-.02.13-.14.08-.19.15.45.26.15.48.5.8.23.19.66.6.8.47.28.29.18.39.05.47Z"/>
    <path class="cls-1" d="M98.95,43.27l-.25.22c.74-.76,1.57-1.5,2.4-2.22-2.13,1.23-4.52,2.83-4.87,5.08-.65-.37-2.52,1.03-2.43,1.19-.25.43-.51.85-.8,1.26.2-.28.4-.55.59-.84-.19.28-.39.56-.59.84-1.8,2.59-4.36,4.81-7.03,7.08-1.47,1.27-5.3,4.88-6.85,6.14-.22.18-.44.37-.66.56q.39-.29.77-.59c-.72.99-1.36,1.9-2.03,2.74.21-.06.3-.01.71-.22l-.43.33c-.14.56-.95,1.36-1.24,1.82-.03-.19-.35.08-.63.33l.18-.03c-1.04.95-2.11,2.2-3.02,3.08-.12.12-.26.18-.35.19l-.77.94c-.08-.21-.84.58-.52.08-.47.82-1.22,1.36-1.65,2.15-2.16,2.2-4.37,4.64-6.38,7.14h.11c-.69.89-1.1,1.88-2.15,2.74-.49.88-1.36,1.96-1.32,2.54-.75.83-.91,1.3-1.6,2.16.35-.05-.57.94-.07.68.73-.3.57-.51,1.18-.77l-.06-.04c2.27-1.81,4.44-3.72,6.58-5.71,1.25-1.51,2.85-2.9,4.24-4.37,1.49-1.6,3.06-3.37,4.25-4.82.27-.36.63-.46.97-.66,1.15-1.29,2.75-2.78,4.04-4.24-.03.03-.05.05-.07.06.7-.75,1.41-1.14,2.09-1.88-.05-.04.06-.15.09-.23.33.08,3.77-4.62,4.14-4.75.06-.08.13-.17.21-.25,1.59-1.41,3.55-2.57,4.8-3.9.19-.38.42-.78.54-1.12.32-.14.19-.35.49-.61,1.11-.29,1.34-.87.84-.65.52-.63,1.13-1.17,1.63-1.69.21-.27.41-.53.61-.81.17-.24.34-.29.54-.3.46-.58.41-.32.99-.83.27.01,1.14-1.59,1.33-1.7l-.07.11c.65-.6,1.35-.75,1.97-1.35,1.81-1.6,3.57-3.58,5.21-5.11-.13-.16-.32.38-.53.2.96-.91,2.09-1.66,3.05-2.58.21-.13.49-.26.62-.29.36-.25.11-.25.35-.45l.16.1c.21-.43.62-.32.87-.68-.04-.07.07-.19.18-.29.15.14.32-.34.44-.2h0c.07-.08.1-.13.21-.19.07-.17.84-1.72.9-1.91l.08-.03c.17-.18.14-.36.01-.28l.22-.21v.03s.21-.2.21-.2c.05-.03.16,0,.17.12.07-.17.18-.33.32-.43-.42.25-.96.54-1.46.74.09-.19.43-.38.57-.55.28-.09.74-.39,1.1-.63.06-.07-.06-.28.16-.36.18.04.16-.17.37-.22-.08.2-.25.31-.4.45.15.11.44-.26.59-.34.01-.09.33-.33.47-.54.05.2.22-.06.39-.1.13-.1.16-.23.07-.22-.1-.17-.55.39-.53.08.11.02.32-.23.43-.36-.07-.08-.14.03-.13-.12.15-.12.21-.36.37-.36,0,.05-.08.09-.12.13.19-.17-.49,1.46-.3,1.18-.13,0,.58-1.46.46-1.35-.15.07-.06-.21-.19-.12l-.04.22c-.18.13-.38.06-.37-.04.27-.25-.23,1.24-.08.94l-.12.05c.05-.14.25-.43.43-.45-.07-.07.03-.23.11-.36l.05-.02c.07-.15.24-.28.07-.31-.62.65-.33-1.16-.98-.59.42-.1.08.25-.17.54-.08-.03-.28.01-.52.16-.16.18-.04.16-.03.23-.13.06-.34.21-.4.1-.03.23-.27.15-.4.34-.09.19.05.03,0,.18-.22.2-.53.48-.71.62-.14-.02-.48.04-.46-.23.33-.3.08.32.38-.03-.32-.04.24-.34.16-.54-.19.02-.4.23-.56.43h.06c-.13.17-.41.52-.68.59-.02-.1-.15-.08-.05-.21l-.23.2s-.01.1.06.05c-.05.15-.18.23-.3.27-.09-.04-.86,1.43-.87,1.35-.15.16-.29.09-.38.31.04.07,1.25-1.72,1.07-1.49-.21.06-1.42,2.1-1.65,2.07-.11.12-.23.27-.14.31-.23.16-.07-.19-.28-.12,0,.01.05.02,0,.06l-.22.05c-.2.41-.78.71-.95,1.17.02-.17,0-.4.13-.67h.07s.15-.24.08-.3c-.24.15-.39.33-.53.6-.06.02-.12.04-.17.05,0,0,.02.01.03.02-.11.02-.11,0-.11-.04,0,0,0-.02,0-.03-.32-.08-.63.89-1.09,1.14-.08.13.02.04-.07.21-.44.28-.75.47-1.17.8-.03.21,0,.25.23.2l-.31.26c.03-.49-.75.31-.7-.2-.14.03-.32.19-.44.39.04.07.11.19-.09.39-.36.2-.26.16-.57.32-.13-.02-.08-.14-.15-.19-.26.45-.48.15-.8.5-.19.23-.6.66-.47.8-.29.28-.39.18-.47.05Z"/>
  </g>
  <g>
    <path class="cls-1" d="M80.33,11.64l-.02.19c-.01-.61.05-1.26.13-1.89-.64,1.38-1.2,3.02.15,4.09-.72.12-1.05,1.46-.88,1.49.13.28.24.56.33.85-.05-.2-.11-.39-.18-.59.07.19.13.39.18.59.56,1.8.31,3.76.04,5.79-.14,1.12-.3,4.18-.5,5.33-.03.17-.05.33-.07.5q.07-.28.13-.56c.19.7.38,1.34.5,1.96.1-.11.2-.13.35-.39l-.07.31c.3.29.29.95.41,1.26-.16-.07-.19.18-.21.39l.1-.09c-.06.82.06,1.77.04,2.5,0,.1-.06.18-.11.22l.12.7c-.21-.05-.18.58-.32.25.25.53.1,1.06.35,1.56.03,1.79.19,3.7.54,5.55l.08-.05c.14.65.55,1.22.42,2.01.28.56.43,1.36.86,1.59.06.65.28.91.39,1.55.22-.16.26.62.43.31.3-.42.04-.45.29-.8h-.07c.33-1.66.51-3.34.61-5.03-.18-1.13-.03-2.36-.09-3.54-.08-1.27-.22-2.64-.4-3.72-.06-.26.12-.45.22-.67-.1-1-.02-2.27-.14-3.4,0,.02,0,.04,0,.06-.04-.6.19-1.05.15-1.63-.06,0-.07-.09-.1-.13.29-.1-.6-3.44-.43-3.65-.01-.06-.03-.12-.03-.19.13-1.23.69-2.51.64-3.57-.14-.23-.25-.49-.41-.68.12-.19-.12-.22-.08-.45.58-.57.33-.91.13-.61-.08-.47-.03-.95-.05-1.36-.04-.19-.09-.39-.14-.58-.05-.17.04-.26.17-.34-.08-.43.06-.3.12-.75.2-.11-.32-1.12-.26-1.25l.03.07c.04-.52.42-.86.44-1.36.15-1.4,0-2.94.07-4.23-.21-.01.05.29-.23.3.04-.77.3-1.54.33-2.31.06-.14.16-.31.23-.37.08-.25-.1-.15-.07-.33l.19-.02c-.16-.26.21-.39.13-.64-.08-.01-.09-.1-.08-.19.2,0-.01-.27.17-.26h-.02c0-.06,0-.09.02-.16-.07-.1-.62-1.05-.71-1.15l.03-.05c0-.14-.16-.2-.19-.12v-.18s.03.02.03.02v-.17s.12-.07.21-.02c-.07-.1-.11-.21-.07-.31-.12.27-.3.62-.51.9-.07-.12.04-.33.02-.46.13-.15.25-.47.34-.71-.01-.05-.24-.09-.14-.21.16-.06,0-.14.11-.24.08.12.05.23.04.35.18-.02.12-.29.18-.38-.06-.04,0-.27-.05-.41.18.06.11-.12.21-.2.02-.1-.05-.16-.11-.12-.19-.03-.11.38-.32.25.09-.04.06-.22.05-.33-.1,0-.08.07-.18,0,.02-.11-.1-.23,0-.3.03.02.01.07,0,.1.01-.15.68.8.62.61-.09.05-.62-.84-.63-.74-.05.09-.19-.06-.23.03l.13.1c-.04.13-.22.18-.29.13.02-.21.71.6.61.42l-.05.07c-.07-.08-.13-.28-.02-.36-.1,0-.14-.1-.18-.19l.02-.03c-.05-.09-.03-.21-.16-.16.02.52-1.05-.34-1.11.16.23-.21.23.07.26.29-.08.02-.19.12-.25.28.02.14.08.08.14.11-.05.08-.09.22-.21.2.14.11-.09.17-.04.3.07.11.06,0,.13.07-.01.17-.04.41-.06.55-.11.05-.31.21-.49.1.02-.26.28.1.25-.17-.26.12-.07-.24-.27-.29-.12.09-.12.26-.09.41l.03-.03c.03.13.09.39-.05.53-.09-.03-.16.03-.18-.07l-.02.18s.06.05.08,0c.07.08.03.17-.02.23-.1.02.4.94.34.91,0,.13-.14.16-.04.28.08.01-.33-1.22-.3-1.05-.1.11.48,1.45.3,1.53,0,.09.03.21.12.19-.05.16-.19-.05-.28.07.02,0,.05,0,.04.03l-.12.11c.15.25-.05.61.15.87-.11-.08-.29-.16-.38-.33l.05-.03s-.06-.16-.16-.16c-.06.16-.05.29.05.46-.03.03-.05.07-.08.09.01,0,.02,0,.04,0-.06.05-.07.05-.11.03,0,0-.01,0-.02-.01-.28.1.18.62.03.91.04.09.05,0,.1.11-.11.3-.2.5-.27.81.12.1.17.11.3-.01l-.04.23c-.33-.21-.31.44-.64.2-.07.07-.09.21-.04.34.08.01.21.03.21.2-.11.23-.07.17-.17.36-.11.04-.15-.02-.23-.02.14.29-.23.26-.21.53.03.17.04.52.23.52,0,.23-.15.23-.3.21Z"/>
    <path class="cls-1" d="M30.2,11.64l-.02.19c-.01-.61.05-1.26.13-1.89-.64,1.38-1.2,3.02.15,4.09-.72.12-1.06,1.46-.88,1.49.13.28.24.56.33.85-.05-.2-.11-.39-.18-.59.07.19.13.39.18.59.56,1.8.31,3.76.04,5.79-.14,1.12-.3,4.18-.5,5.33-.03.17-.05.33-.07.5q.07-.28.13-.56c.19.7.38,1.34.5,1.96.1-.11.2-.13.35-.39l-.07.31c.3.29.29.95.41,1.26-.16-.07-.19.18-.21.39l.1-.09c-.06.82.06,1.77.04,2.5,0,.1-.06.18-.11.22l.12.7c-.21-.05-.18.58-.32.25.25.53.1,1.06.35,1.56.03,1.79.19,3.7.54,5.55l.08-.05c.14.65.55,1.22.42,2.01.28.56.43,1.36.86,1.59.06.65.28.91.39,1.55.22-.16.26.62.43.31.3-.42.04-.45.29-.8h-.07c.33-1.66.51-3.34.61-5.03-.18-1.13-.03-2.36-.09-3.54-.08-1.27-.22-2.64-.4-3.72-.06-.26.12-.45.22-.67-.1-1-.02-2.27-.14-3.4,0,.02,0,.04,0,.06-.04-.6.19-1.05.15-1.63-.06,0-.07-.09-.1-.13.29-.1-.6-3.44-.43-3.65-.01-.06-.03-.12-.03-.19.13-1.23.69-2.51.64-3.57-.14-.23-.25-.49-.41-.68.12-.19-.12-.22-.08-.45.58-.57.33-.91.13-.61-.08-.47-.03-.95-.05-1.36-.04-.19-.09-.39-.14-.58-.05-.17.04-.26.17-.34-.08-.43.06-.3.12-.75.2-.11-.32-1.12-.26-1.25l.03.07c.04-.52.42-.86.44-1.36.15-1.4,0-2.94.07-4.23-.21-.01.05.29-.23.3.04-.77.3-1.54.33-2.31.06-.14.16-.31.23-.37.08-.25-.1-.15-.07-.33l.19-.02c-.16-.26.21-.39.13-.64-.08-.01-.09-.1-.08-.19.2,0-.01-.27.17-.26h-.02c0-.06,0-.09.02-.16-.07-.1-.62-1.05-.71-1.15l.03-.05c0-.14-.16-.2-.19-.12v-.18s.03.02.03.02v-.17s.12-.07.21-.02c-.07-.1-.11-.21-.07-.31-.12.27-.3.62-.51.9-.07-.12.04-.33.02-.46.13-.15.25-.47.34-.71-.01-.05-.24-.09-.14-.21.16-.06,0-.14.11-.24.08.12.05.23.04.35.18-.02.12-.29.18-.38-.06-.04,0-.27-.05-.41.18.06.11-.12.21-.2.02-.1-.05-.16-.11-.12-.19-.03-.11.38-.32.25.09-.04.06-.22.05-.33-.1,0-.08.07-.18,0,.02-.11-.1-.23,0-.3.03.02.01.07,0,.1.01-.15.68.8.62.61-.09.05-.62-.84-.63-.74-.05.09-.19-.06-.23.03l.13.1c-.04.13-.22.18-.29.13.02-.21.71.6.61.42l-.05.07c-.07-.08-.13-.28-.02-.36-.1,0-.14-.1-.18-.19l.02-.03c-.05-.09-.03-.21-.16-.16.02.52-1.05-.34-1.11.16.23-.21.23.07.26.29-.08.02-.19.12-.25.28.02.14.08.08.14.11-.05.08-.09.22-.21.2.14.11-.09.17-.04.3.07.11.06,0,.13.07-.01.17-.04.41-.06.55-.11.05-.31.21-.49.1.02-.26.29.1.25-.17-.26.12-.07-.24-.27-.29-.12.09-.12.26-.08.41l.03-.03c.03.13.09.39-.05.53-.09-.03-.16.03-.18-.07l-.02.18s.06.05.08,0c.07.08.03.17-.02.23-.1.02.4.94.34.91,0,.13-.14.16-.04.28.08.01-.33-1.22-.3-1.05-.1.11.48,1.45.3,1.53,0,.09.03.21.12.19-.05.16-.19-.05-.28.07.02,0,.05,0,.04.03l-.12.11c.15.25-.05.61.15.87-.11-.08-.29-.16-.38-.33l.05-.03s-.06-.16-.16-.16c-.06.16-.05.29.05.46-.03.03-.05.07-.08.09.01,0,.02,0,.04,0-.06.05-.07.05-.11.03,0,0-.01,0-.02-.01-.28.1.18.62.03.91.04.09.05,0,.1.11-.11.3-.2.5-.27.81.12.1.17.11.3-.01l-.04.23c-.33-.21-.31.44-.64.2-.07.07-.09.21-.04.34.08.01.21.03.21.2-.11.23-.07.17-.17.36-.11.04-.15-.02-.23-.02.14.29-.23.26-.21.53.03.17.04.52.23.52,0,.23-.15.23-.3.21Z"/>
  </g>
</svg>