<?xml version="1.0" encoding="UTF-8"?>
<svg id="Layer_1" data-name="Layer 1" xmlns="http://www.w3.org/2000/svg" viewBox="0 0 65.03 30.21">
  <defs>
    <style>
      .cls-1, .cls-2 {
        stroke-width: 0px;
      }

      .cls-2 {
        fill: #fff;
      }
    </style>
  </defs>
  <path class="cls-2" d="M63.09,25.36c-.47.21-1.03.23-1.55.28-.53.05-1.05.02-1.62.03-.82,3.11-3.17,4.01-5.92,4.17-2.18.12-4.04-1.23-5.23-3.6-.71.05-1.76-.36-2.51-.33-5.31.17-10.27.27-15.59.4-1.3.03-11.41.22-12.06.09-.68-.13-.96.51-1.35,1.09-2.25,3.24-7,3.66-9.62.87-.38-.41-.69-.91-.91-1.42-.28-.64-.71-1.01-1.36-1.2-.99-.28-1.98-.56-2.95-.89-.5-.17-1-.39-1.42-.69-.57-.4-.83-.98-.83-1.72.01-1.09-.03-2.19-.14-3.28-.15-1.48.31-2.9.37-4.35.08-2.12,1.21-3.76,2.51-5.29,1.01-1.19,2.08-2.34,3.09-3.53.44-.52.92-.69,1.62-.72,1.89-.07,3.78-.27,5.66-.48,4.17-.45,8.33-.91,12.53-.9.36,0,.72-.01,1.23-.02.2-1.05.38-1.95.53-2.86.13-.77.21-.9,1-.98.36-.04.73-.04,1.09.01.52.06.87.25,1.02.88.23.92.66,1.8,1.07,2.86.76.02,1.65.12,2.53.05,1.54-.13,2.9.22,4.29.95,3.07,1.6,5.96,3.45,8.78,5.43.99.7,2.13,1.21,3.24,1.69,3.01,1.31,6.25,1.8,9.39,2.65,1.33.35,2.5,1.06,3.36,2.19.18.24.4.46.54.71.14.25.24.52.31.8.14.64.26,1.29.38,1.94.15.78.37,1.56.44,2.35.12,1.25-.45,2.17-1.92,2.82Z"/>
  <g>
    <path class="cls-1" d="M27.03,3.87c.2-1.05.39-1.96.54-2.87.13-.77.21-.89.99-.97.36-.04.73-.04,1.09,0,.52.06.87.25,1.02.88.23.93.66,1.8,1.07,2.87.76.02,1.65.12,2.53.05,1.54-.12,2.91.23,4.29.95,3.06,1.6,5.96,3.45,8.78,5.43.99.7,2.13,1.21,3.24,1.69,3.01,1.31,6.25,1.8,9.39,2.64,1.33.36,2.5,1.07,3.36,2.2.18.24.4.45.54.71.14.24.24.52.3.79.15.64.26,1.29.39,1.94.15.78.37,1.56.44,2.35.11,1.25-.46,2.17-1.93,2.82-.47.21-1.03.23-1.55.28-.52.05-1.05.02-1.61.03-.82,3.12-3.17,4.02-5.92,4.17-2.18.12-4.04-1.23-5.23-3.6-.71.05-1.75-.35-2.5-.33-5.32.17-10.28.27-15.59.4-1.29.03-11.41.22-12.06.09-.68-.14-.96.51-1.35,1.08-2.24,3.25-6.99,3.67-9.61.87-.38-.41-.69-.91-.92-1.42-.28-.64-.71-1.01-1.35-1.2-.99-.29-1.98-.56-2.95-.89-.5-.17-.99-.39-1.42-.69-.56-.4-.83-.98-.83-1.72,0-1.09-.03-2.19-.14-3.28-.15-1.48.3-2.9.36-4.36.09-2.12,1.21-3.75,2.52-5.29,1.01-1.19,2.07-2.33,3.08-3.52.44-.52.92-.7,1.63-.72,1.89-.07,3.78-.27,5.66-.48,4.17-.45,8.33-.92,12.53-.9.36,0,.72,0,1.22-.02ZM6.02,25.1c.07-.16.15-.27.17-.39.27-1.36.29-2.34,1.04-3.49,1.02-1.55,3.06-2.69,4.84-2.47,2.52.31,4.57,1.58,5.65,4.05.1.23.18.47.33.84.1-.27.18-.39.17-.5-.1-1.53-.19-3.06-1.22-4.34-.69-.85-1.35-1.73-2.06-2.57-.44-.52-.58-1.11-.54-1.76.03-.52.05-1.04.08-1.56-.04-.02-.08-.03-.12-.05-.22.34-.44.68-.62.95-.66-.05-1.22-.12-1.78-.14-1.86-.06-3.72-.09-5.58-.14-.53-.02-1.06-.05-1.56-.55.22-.45.44-.92.68-1.39.79-1.53,1.61-3.05,2.37-4.6.19-.38.4-.58.82-.6,1.3-.04,2.59-.05,3.89-.12,2.79-.15,5.57-.32,8.35-.49,1.32-.08,2.64-.2,3.97-.25,1.06-.04,2.12.04,3.18,0,2.16-.06,4.32-.16,6.47-.25.46-.02.93-.07,1.39-.09.44-.02.88-.03,1.31-.04,0-.08.01-.15.02-.23-.3-.09-.6-.25-.91-.27-1.28-.09-2.56-.19-3.85-.21-2.46-.02-4.92-.04-7.38.03-2.42.07-4.85.21-7.27.4-2.02.15-4.03.41-6.05.61-1.51.15-3.03.29-4.44.43-.51,1.08-.92,2.02-1.39,2.93-.4.8-.95,1.54-1.26,2.37-.51,1.34-1.33,2.27-2.72,2.68-.13.04-.28.06-.37.14-.19.17-.44.35-.49.56-.35,1.52-.66,3.05-.49,4.63.11.99.15,1.98.15,2.98,0,.71.27,1.25.86,1.57,1.35.74,2.81,1.15,4.36,1.3ZM62.55,17.35c.05-.06.1-.11.15-.17-.31-.64-.84-1.08-1.47-1.35-1-.43-2.02-.86-3.07-1.16-2.64-.76-5.39-1.17-7.96-2.2-.68-.27-1.38-.44-1.95-.96-.26-.24-.57-.55-.88-.46.04.63.21,1.2.08,1.69-.26,1-.23,1.96-.1,2.96.18,1.46.14,2.92-.34,4.33-.31.91-.62,1.82-.92,2.74-.16.51-.2,1.02-.01,1.58.46.02.89.03,1.32.05.94.03.97.04,1.19-.9.3-1.26,1.03-2.2,2.08-2.93,1.92-1.34,4.01-1.59,6.16-.83,1.35.48,2.47,1.3,2.68,2.91.1.77.29,1.54.45,2.37.72,0,1.36.03,1.97-.04.96-.11,1.84-.42,2.17-1.47.24-.75.15-1.51-.07-2.25-.04-.12-.13-.25-.23-.31-.6-.36-1.19-.71-1.81-1.04-1.5-.78-3.18-1.16-4.61-2.11-.38-.25-.73-.53-.7-1.01.04-.56.52-.82.96-.87.54-.06,1.14-.02,1.65.15,1.1.36,2.16.84,3.24,1.27ZM28.45,17.41c-1.19.09-2.39.2-3.58.2-2.32,0-4.65-.07-6.97-.1-.28,0-.56.03-1.11.07,1.96,1.96,2.06,4.32,2.28,6.72,1.07.06,2.06.15,3.05.15,1.26,0,2.52-.11,3.78-.13,1.43-.02,2.86.03,4.28.02.46,0,.91-.1,1.31-.15.68-2.14.55-4.2.33-6.26-1.24-.33-2.86-.57-3.37-.53ZM32.52,24.15c4.23.09,8.39.17,12.44.26.5-1.53.99-2.9,1.39-4.3.23-.78.59-1.56.31-2.49-.79-.05-1.58-.15-2.37-.14-3.55.02-7.1-.04-10.63.31-.98.1-1.21.25-1.13,1.2.11,1.36.12,2.71-.02,4.06-.03.33,0,.66,0,1.1ZM29.9,12.64c0-.67.07-1.22-.04-1.72-.24-1.07-.56-2.12-.89-3.16-.48-1.52-.5-1.52-2.06-1.54-.13,0-.27,0-.4-.02-2.73-.2-5.44.07-8.21.49-.5,1.96-1.1,3.91-1.24,5.95.81.34,1.53.29,2.26.27,1.09-.02,2.18,0,3.27.01,1.52.02,3.05.11,4.57.07.88-.02,1.76-.23,2.73-.36ZM43.75,12.88c.02-.43.03-.79.07-1.15.13-1.17-.36-1.94-1.41-2.48-1.13-.88-2.19-1.6-3.6-2.48-.84-.86-1.99-1.01-3.15-.95-.66.04-1.32.1-1.97.21-.63.11-1.33-.12-1.95.36.11.33.24.63.33.95.46,1.62,1.38,3.11,1.41,4.86,0,.49.36.58.73.67,1.24.3,2.5.32,3.77.18.26-.03.53-.1.79-.09,1.23.02,2.46.07,3.68.07.42,0,.84-.1,1.31-.16ZM11.92,19.49c-1.14.09-1.98.07-2.67.66-1.77.73-2.21,3.37-2.26,3.45-.63,1.1.21,2.78.66,3.72.91,1.88,3.72,2.77,5.72,2.09.47-.16.92-.37,1.38-.56,1.66-.66,2.49-1.94,2.64-3.66.26-3.1-2.68-5.95-5.47-5.7ZM5.61,12.57c.2.14.27.22.36.25.16.05.32.07.48.1,2.01.37,4.04-.05,6.05.1.53.04.93-.21,1.16-.76.66-1.59,1.38-3.16,2.06-4.75.07-.16.06-.37.1-.68-.58.07-1.06.12-1.55.19-.19.02-.38.09-.57.1-1.12.02-2.26-.08-3.36.08-2.36.34-1.75-.07-2.85,1.92-.62,1.13-1.24,2.26-1.88,3.45ZM54.02,29.25c2.03-.07,3.62-.89,4.79-2.41.08-.1.31-.7.36-.82.47-1.12.06-2.15-.21-3.24-.18-.73-.68-1.34-1.19-1.88-.81-.84-2.04-.83-3.12-.92-2.04-.17-4.24.71-5.04,2.59-.17.4-.41,1.3-.54,1.71-.41,1.35.31,2.3,1.22,3.28.96,1.03,2.24,1.64,3.72,1.69ZM18.11,25.73c.36.02.75.05,1.13.06.4.01.79,0,1.19,0,.49.01,22.71.04,25.5-.2.85-.07,1.69-.12,2.54-.18,0-.07,0-.14.01-.21-.35-.06-.69-.16-1.04-.17-3.79-.1-7.58-.24-11.37-.26-3.22-.02-6.45.12-9.67.17-2.59.04-5.18.06-7.77.07-.46,0-.58.22-.52.73ZM63.51,19.66c.19-.68-.03-1.12-.58-1.37-1.41-.64-2.83-1.28-4.26-1.87-.25-.1-.59-.06-.87,0-.48.12-.53.47-.14.79.1.08.22.14.34.21,1.41.81,2.96,1.29,4.45,1.91.33.14.68.21,1.05.32ZM30.91,3.78c-.32-.96-.59-1.8-.9-2.62-.16-.43-.57-.57-.98-.48-.3.06-.77.21-.81.39-.2.88-.53,1.75-.5,2.75,1.07-.01,2.04-.03,3.19-.04ZM29.65,6.33c-.07,0-.14.02-.21.03-.03.09-.09.19-.07.27.3,1.16.62,2.31.91,3.47.16.64.33,1.29.37,1.95.07,1.12-.11,1.3-1.17,1.5.03.52.07,1.03.11,1.59.42.02.82.05,1.21.04.77-.02.87-.1.74-.89-.14-.92-.38-1.82-.53-2.74-.22-1.31-.31-2.64-.97-3.84-.22-.41-.26-.92-.39-1.38ZM32.85,12.95c-.06-.68-.01-1.34-.19-1.93-.47-1.52-1.03-3.02-1.56-4.52-.1-.27-.25-.48-.64-.32-.17.52,0,1.03.24,1.5.51,1,.75,2.05.85,3.16.05.53.19,1.04.3,1.56.1.47.39.67,1.01.55ZM38.6,5.62c.35.38,4.19,3.1,4.85,3.64.68.56,1.39.62,2.21.54-2.22-1.62-4.59-2.99-7.05-4.18ZM15.04,14.8c.97.29,1.12.23,1.29-.55.06-.28.08-.6,0-.86-.19-.57-.08-1.09.07-1.65.43-1.62.8-3.25,1.19-4.87-.07-.02-.14-.04-.2-.06-1.06,2.58-1.95,5.21-2.34,7.98ZM44.45,10.77c0,.53.02.99.02,1.45,0,.73.23.95.97.86.29-.03.6-.11.85-.25.18-.1.4-.37.37-.53-.09-.51-.11-1.1-.62-1.41-.48-.29-.99-.58-1.59-.13ZM2.41,11.19c.26.11.42.21.6.26.8.23.91.17,1.28-.61.25-.54.51-1.07.76-1.61.12-.25.23-.51.34-.74-.5-.4-.76-.13-.99.16-.65.82-1.29,1.65-1.98,2.55ZM21.02,15.82c.09,1.05.11,1.18.47,1.22.81.09,1.63.18,2.45-.1,0-.42-.01-.8-.02-1.16-1.01.01-1.92.03-2.9.04ZM33.84,15.08c.89-.01,1.79-.02,2.79-.04,0-.4-.01-.8-.02-1.29-.56-.03-1.07-.05-1.59-.07-1.16-.04-1.27.08-1.18,1.4ZM39.53,15.67c-.99-.14-1.89-.04-2.8.18,0,.36,0,.65.01,1.03.95-.01,1.86-.02,2.8-.04,0-.43-.01-.78-.02-1.17ZM42.36,14.96c0-.39,0-.62-.01-.85,0-.32-.19-.5-.5-.5-.65,0-1.3.01-1.99.02-.07.37-.15.62-.16.88-.02.36.17.57.54.56.68-.02,1.37-.07,2.12-.11ZM26.45,15.01c.06-.49.14-1.02-.32-1.1-.65-.11-1.36-.33-2.11.04.03.34.07.68.11,1.08.81-.01,1.52-.02,2.33-.03ZM20.94,15.11c0-.48-.01-.81-.01-1.09-.44-.42-.93-.27-1.37-.24-.61.03-.77.25-.71.82.05.53.2.66.78.64.42-.02.84-.08,1.32-.12ZM26.93,16.76c.8.11,1.61.29,2.49-.1-.09-.32-.17-.61-.26-.98-.51,0-.93,0-1.36.02-.79.02-.85.09-.87,1.06ZM42.65,15.72c.05.4.08.73.12,1.02q1.13.23,1.84-.04c.03-.14.08-.3.08-.46,0-.15-.04-.31-.08-.55-.64,0-1.25.02-1.96.03ZM3.28,12.4c-1.18-.68-1.76-.33-1.82,1.08,1.03-.23,1.43-.47,1.82-1.08ZM46.63,14.76c-.11-.4-.2-.7-.3-1.04-.38.07-.66.11-.98.17-.05.35-.1.65-.16,1.03.51-.05.89-.1,1.43-.15ZM32.53,15.85c.06.39.04.76.19,1.04.06.12.54.16.71.05.37-.24.39-.64.2-1.11-.32,0-.64,0-1.1.01ZM16.7,15.93c-.17.91.25.93,1.14.77.28-1.16-.58-.71-1.14-.77ZM5.47,7.55q.47-.11.48-.59c-.17.21-.3.37-.48.59ZM15.13,11.17s-.09-.02-.13-.03c-.04.12-.08.24-.11.36.03,0,.07.02.1.03.05-.12.1-.24.14-.36Z"/>
    <path class="cls-1" d="M61.87,23.19c.03-.24.04-.4.07-.56.11-.58.38-.86.79-.85.52.02,1.05.52.99,1.04-.05.37-.21.76-.42,1.08-.42.63-.96.57-1.26-.11-.09-.21-.12-.44-.17-.6Z"/>
    <path class="cls-1" d="M9.17,24.5c-.13-1.64,1.07-2.88,2.83-3.03,1.67-.14,3.44,1.27,3.56,2.8.12,1.62-1.67,3.38-3.11,3.47-.94.06-1.82-.44-2.53-1.05-.68-.58-.67-1.48-.75-2.19ZM9.75,24.57c.02,1.43,1.18,2.57,2.61,2.57,1.2,0,2.64-1.53,2.58-2.74-.05-1.1-1.6-2.41-2.8-2.36-1.35.06-2.42,1.18-2.4,2.53Z"/>
    <path class="cls-1" d="M57.01,24.52c-.07,1.44-.52,2.49-1.67,2.97-1.48.62-3.54-.07-4.19-1.97-.33-.98.36-2.4,1.33-2.83.39-.17.8-.32,1.21-.46,1.35-.45,3.45.8,3.31,2.29ZM53.99,27.04c.06-.01.87-.01.99-.06.94-.34,1.52-2,1.27-2.96-.06-.24-.61-.74-.81-.88-.97-.66-2.13-.3-3,.53-.67.64-.82,1.21-.52,1.95.34.84,1.2,1.45,2.07,1.41Z"/>
  </g>
</svg>