<svg width="142" height="28" viewBox="0 0 142 28" fill="none" xmlns="http://www.w3.org/2000/svg">
<line x1="14.8936" y1="13.6729" x2="141.894" y2="13.6729" stroke="white"/>
<path d="M129.104 7.71875C133.546 11.5975 136.271 12.6586 141.894 13.6729" stroke="white" stroke-linejoin="round"/>
<path d="M129.101 19.2245C133.544 15.3458 136.271 14.6868 141.893 13.6725" stroke="white"/>
<path d="M21.9315 18.9147C20.8257 20.6784 19.1737 22.0322 17.2271 22.7698C15.2806 23.5074 13.1462 23.5883 11.1494 23.0003C9.15256 22.4123 7.40271 21.1876 6.16654 19.5128C4.93036 17.8379 4.27564 15.8049 4.30216 13.7234C4.32869 11.642 5.03499 9.62629 6.31344 7.98352C7.59189 6.34074 9.37238 5.16099 11.3836 4.62405C13.3947 4.08711 15.5263 4.22243 17.4534 5.00938C19.3806 5.79634 20.9976 7.19177 22.058 8.98303" stroke="white"/>
</svg>
