<?xml version="1.0" encoding="UTF-8"?>
<svg id="Layer_2" data-name="Layer 2" xmlns="http://www.w3.org/2000/svg" viewBox="0 0 128.51 348.26">
  <defs>
    <style>
      .cls-1 {
        fill: none;
      }

      .cls-1, .cls-2, .cls-3, .cls-4 {
        stroke-width: 0px;
      }

      .cls-3 {
        fill: #c7c7c7;
      }

      .cls-4 {
        fill: #fff;
      }
    </style>
  </defs>
  <g id="Layer_1-2" data-name="Layer 1">
    <g>
      <path class="cls-3" d="M125.94,1.22c-.48,0-.97.03-1.35.04-51.49.89-70.83.82-122.34.92-.03,99.28-.56,198.57-1.17,297.85.28,15.69-.93,31.53-.24,47.12,51.74,1.22,70.41-.74,122.17-.78.2-5.86.44-11.72.63-17.58.92-85.97.13-172,1.53-258.01.63-23.2.79-44.27,2.48-67.42,1.21-1.92-2.15-3.54-1.69-2.15h0Z"/>
      <path class="cls-4" d="M126.39.73h-.01c-.22-.06-.39-.02-.46.12h0c-.04.09-.03.21.02.37-.48,0-.97.04-1.35.05-10.81.18-20.2.33-28.77.44h-.01c-.35.01-.68.01-1.02.02h-.05c-1.04.01-2.07.02-3.09.04h-.25c-17.49.21-31.8.29-48.48.34-8.05.02-16.65.04-26.44.06h-.09c-4.21,0-8.64.01-13.33.02h-.81c0,6.25-.01,12.5-.02,18.75,0,2.96,0,5.93,0,8.89h0c-.01,15.27-.04,30.52-.08,45.78v.05c-.03,10.49-.06,20.98-.1,31.47v.23c-.21,64.23-.57,128.46-.97,192.68.28,15.68-.93,31.5-.24,47.08v.03c2.91.07,5.71.13,8.42.17.28.01.55.02.8.02,23.94.43,40.66.13,58.39-.26h.81c6.39-.13,12.93-.27,20-.39h.01c8.91-.16,18.66-.28,30.04-.31h.06c1.11-.01,2.23-.01,3.38-.01h.26c.2-5.86.44-11.72.62-17.57.06-5.51.11-11.02.16-16.53,0-.24,0-.47,0-.71.02-2.36.03-4.73.05-7.09v-.02c.08-10.02.13-20.03.18-30.05v-.07c.06-14.7.1-29.4.13-44.1v-.14c.03-11.48.05-22.96.07-34.43v-.45c0-.73,0-1.45,0-2.18,0-1.39,0-2.79.01-4.18,0-2.47.01-4.94.02-7.41.06-21.68.15-43.37.34-65.05.04-5.54.1-11.07.16-16.61.1-9.66.23-19.33.39-28.99.39-14.26.6-27.72,1.1-41.35.02-.74.05-1.48.08-2.22h0c.15-3.83.32-7.67.53-11.55.05-.93.1-1.86.16-2.79.17-3.14.38-6.3.61-9.51.09-.15.16-.3.2-.45,0,0,.01-.02.01-.02.3-1.11-.78-2.02-1.45-2.17ZM68.32,219.2c0,.56-.01,1.08-.03,1.16-.03.08.02.28.08.43.06.14.07.3.04.34-.06.06-.59.1-4.21.3-.65.03-1.35.1-1.56.14-.37.09-5.64.16-8.63.12v-.71s.07-.06.1-.11c.07-.1.15-2.26.17-4.79.05-5.6.12-8.37.27-10.89.1-1.71.13-1.94.41-2.09.33-.17,2.07-.28,4.73-.28,4.87,0,7.1-.07,8.05-.21.67-.11.68-.1.75.32.03.24.02.59-.03.79-.04.19-.05.73,0,1.21.05.47.04,1.08-.03,1.37-.06.28-.15,1.53-.2,2.77-.03,1.24-.08,2.47-.12,2.71-.1.96.22,6.17.4,6.29.13.08.13.11-.01.12-.15,0-.2.29-.18,1.01ZM70.12,94.75c-.02.09.02.27.08.42.06.15.09.3.05.34-.05.05-.59.1-4.21.29-.66.05-1.36.11-1.57.16-.37.09-5.62.14-8.61.11l.07-.79h.01s.01-.02.02-.03c.02-.03.04-.33.06-.81l.02-.27c.03-.89.06-2.23.08-3.7.05-5.61.12-8.37.26-10.89.1-1.72.15-1.95.41-2.09.33-.18,2.08-.29,4.73-.29,4.88,0,7.11-.06,8.05-.2.68-.11.69-.1.76.31.03.25.01.59-.03.78-.06.2-.06.75,0,1.22.04.47.03,1.09-.04,1.37-.06.29-.15,1.54-.19,2.78-.04,1.24-.09,2.47-.12,2.71-.11.95.23,6.17.4,6.29.12.07.12.11-.03.11-.13,0-.19.28-.18,1.01,0,.55.02,1.08-.02,1.17ZM70.1,69.28c-.05.33-.13,1-.14,1.49-.04.51-.06,1.07-.07,1.24-.02.29-.13.34-.87.43-.47.06-2.17.11-3.77.15-1.59.02-3,.08-3.13.14-.13.05-.26.06-.3.02-.04-.05-1.23-.11-2.65-.16-1.41-.04-2.71-.14-2.86-.23-.32-.17-.31-.14-.29-5.26,0-1.69.03-3.31.08-3.61.04-.29,0-.96-.12-1.47-.11-.53-.16-.98-.11-1,.09-.05,3.15-.18,8.13-.32,1.55-.04,3.57-.11,4.48-.14l1.65-.08.11.56c.23,1.15.13,6.63-.14,8.24ZM66.4,122.49c.05.04.01.42-.07.82-.15.8-.37,3.32-.32,3.68.01.13.04,1.71.04,3.52,0,2.99-.02,3.29-.26,3.48-.41.29-1.81.37-6.06.37-2.12,0-3.89.03-3.94.08-.08.07-.81-.01-1.37-.17-.19-.04-.23-.49-.26-2.58-.05-3.19-.25-7.53-.35-7.64-.04-.03-.03-.35,0-.73l.05-.67.76-.09c.57-.08,4.99-.13,8.25-.13,1.95,0,3.49.02,3.53.06ZM53.67,157.02c-.05-.85.06-4.84.14-4.97.12-.2.27-4.6.19-5.95-.01-.37,0-1.65.05-2.86.04-1.2.06-2.43.07-2.72v-.54l2.61-.11c1.42-.06,2.74-.13,2.91-.17.32-.06,4.3-.24,5.72-.26h.42c.43.02.73.29.59.52-.04.06.01.12.12.12.17.01.17.03,0,.13-.16.11-.17.96-.1,4.93.06,2.63.12,4.83.17,4.9.17.3.07,6.1-.17,8.69-.06.64-.02.88.18,1.1.25.28.16.28-3.77.19-2.19-.04-4.8-.11-5.78-.15-.99-.04-2.16-.14-2.61-.2-.7-.08-.81-.14-.77-.4.05-.29.07-1.65.03-2.25ZM62.16,186.32c1.55-.05,3.56-.11,4.48-.15l1.66-.06.11.55c.22,1.15.12,6.62-.15,8.23-.06.32-.12,1-.15,1.51-.02.5-.05,1.05-.06,1.23-.02.28-.13.34-.87.42-.47.05-2.16.12-3.76.15-1.59.02-3.01.1-3.14.15-.12.06-.25.06-.3.02-.04-.04-1.24-.12-2.65-.16-1.42-.04-2.7-.14-2.85-.23-.32-.18-.31-.13-.3-5.26,0-1.7.04-3.32.08-3.61.04-.28.01-.96-.11-1.48-.11-.52-.17-.96-.12-1,.09-.05,3.14-.17,8.13-.31ZM95.52,220.14c-.24-2.59-.34-8.39-.16-8.7.04-.05.11-2.26.16-4.89.08-3.96.07-4.82-.1-4.93-.16-.1-.16-.13,0-.13.11,0,.17-.05.13-.12-.15-.23.16-.5.59-.51h.43c1.41.01,5.38.19,5.71.26.18.03,1.48.11,2.91.16l2.6.11v.54c.01.3.03,1.52.08,2.72.04,1.21.06,2.49.04,2.87-.06,1.34.08,5.75.2,5.94.08.13.19,4.13.14,4.97-.03.6-.02,1.97.02,2.25.04.26-.06.32-.76.41-.45.05-1.62.14-2.61.19-.97.05-3.58.11-5.79.16-3.93.08-4,.09-3.75-.2.2-.22.22-.46.16-1.1ZM97.19,95.63c.21-.22.23-.46.18-1.1-.25-2.59-.36-8.39-.17-8.69.03-.07.11-2.27.17-4.91.07-3.96.06-4.82-.1-4.93-.17-.1-.17-.12,0-.12.11-.02.16-.06.12-.13-.15-.24.15-.49.58-.51h.44c1.41.02,5.39.19,5.72.25.16.03,1.48.11,2.9.17l2.61.11v.55c0,.29.03,1.52.07,2.72.03,1.2.07,2.49.04,2.86-.06,1.35.08,5.75.19,5.95.09.13.2,4.11.16,4.97-.04.59-.04,1.96.02,2.25.03.26-.07.32-.78.4-.45.06-1.61.15-2.59.2-.99.05-3.6.11-5.81.16-3.93.08-3.99.08-3.75-.2ZM109.96,59.84c-.11.11-.32,4.46-.36,7.65-.03,2.09-.09,2.54-.26,2.58-.56.16-1.3.23-1.37.16-.06-.05-1.83-.08-3.94-.07-4.25,0-5.66-.08-6.06-.37-.25-.19-.26-.5-.26-3.49,0-1.81.02-3.39.03-3.51.06-.38-.17-2.88-.32-3.68-.07-.42-.1-.78-.05-.82.03-.04,1.57-.06,3.52-.06,3.26,0,7.68.05,8.24.12l.77.09.06.68c.03.37.03.71,0,.72ZM106.12,195.85s-1.82-.09-3.94-.08c-4.24,0-5.65-.07-6.05-.37-.24-.19-.27-.48-.26-3.48,0-1.81.03-3.39.04-3.52.04-.36-.18-2.86-.32-3.68-.08-.4-.11-.77-.07-.82.05-.03,1.58-.05,3.53-.05,3.25,0,7.68.05,8.25.12l.75.1.07.66c.02.38.03.71,0,.73-.11.11-.32,4.45-.36,7.65-.03,2.08-.08,2.53-.27,2.58-.55.15-1.29.24-1.37.16ZM93.59,157.79c.01-.73-.03-1.01-.16-1.01-.16-.01-.16-.04-.02-.12.17-.11.49-5.32.38-6.28-.02-.25-.08-1.47-.12-2.71-.03-1.25-.12-2.49-.19-2.78-.06-.28-.07-.9-.03-1.37.04-.47.04-1.02,0-1.21-.04-.2-.06-.56-.02-.79.05-.42.06-.42.74-.32.95.15,3.18.21,8.06.21,2.65,0,4.4.11,4.73.29.27.14.3.36.4,2.07.15,2.53.22,5.3.28,10.91.02,2.52.1,4.68.15,4.77.03.04.06.08.1.1v.73c-2.99.03-8.24-.02-8.61-.11-.21-.06-.91-.12-1.57-.16-3.63-.19-4.16-.24-4.22-.29-.04-.04-.01-.19.06-.34.05-.16.09-.34.06-.42-.02-.09-.02-.61-.02-1.17ZM107.77,126.23c-.12.52-.17,1.18-.12,1.47.04.28.09,1.91.09,3.61.01,5.12.02,5.09-.3,5.27-.15.07-1.44.17-2.85.22-1.42.04-2.61.12-2.66.15-.04.04-.17.03-.31-.02-.13-.06-1.53-.12-3.12-.14-1.61-.04-3.29-.09-3.77-.15-.73-.08-.84-.14-.86-.42-.02-.18-.05-.73-.07-1.24-.02-.5-.09-1.17-.14-1.5-.28-1.61-.38-7.08-.16-8.24l.11-.55,1.66.08c.91.03,2.93.09,4.49.13,4.98.14,8.03.28,8.12.32.04.03-.01.48-.11,1.01ZM30.49,96.11c.06.15.09.31.05.34-.05.05-.59.1-4.21.3-.66.04-1.36.11-1.57.15-.37.09-5.58.16-8.58.12l-.03-.71s.07-.07.1-.11c.06-.1.13-2.26.15-4.79.06-5.6.13-8.37.28-10.89.09-1.71.14-1.94.41-2.09.33-.17,2.07-.28,4.72-.28,4.87,0,7.1-.07,8.05-.21.67-.11.69-.1.75.32.03.24.02.59-.02.79-.05.2-.05.73,0,1.2.04.48.03,1.09-.04,1.38-.06.28-.15,1.53-.18,2.77-.05,1.24-.1,2.47-.12,2.71-.11.96.22,6.17.39,6.29.13.08.13.11-.02.12-.14,0-.19.29-.18,1.01,0,.56,0,1.08-.02,1.16-.03.08.01.28.07.42ZM22.12,73.69c-.05-.04-1.24-.11-2.66-.15-1.41-.04-2.71-.14-2.86-.23-.32-.18-.3-.13-.29-5.26,0-1.7.04-3.32.08-3.62.04-.28.01-.95-.11-1.47-.11-.53-.16-.97-.12-1,.1-.05,3.15-.17,8.13-.31,1.56-.05,3.56-.11,4.49-.15l1.65-.06.11.55c.22,1.15.12,6.62-.15,8.24-.05.31-.12.99-.14,1.5-.02.5-.06,1.05-.07,1.23-.02.28-.13.34-.86.43-.48.04-2.18.11-3.77.14-1.6.02-3,.1-3.14.15-.12.06-.26.06-.29.01ZM13.52,156.62c-.05-.85.06-4.85.15-4.98.11-.18.25-4.6.18-5.94-.02-.38.02-1.66.05-2.86.04-1.2.08-2.43.08-2.73v-.54l2.6-.11c1.42-.06,2.74-.13,2.92-.16.32-.07,4.28-.23,5.7-.25h0s.44-.01.44-.01c.43.02.71.28.58.51-.04.07,0,.12.12.12.17,0,.17.02,0,.13-.16.1-.18.96-.1,4.92.05,2.64.12,4.84.17,4.9.17.3.06,6.11-.17,8.7-.06.63-.03.87.18,1.1.24.28.17.29-3.75.21-2.21-.04-4.82-.12-5.81-.18-.97-.04-2.15-.12-2.6-.18-.7-.09-.81-.14-.78-.4.06-.29.07-1.64.04-2.25ZM26.19,122.91c-.16.8-.37,3.31-.32,3.67.01.12.03,1.7.03,3.51,0,3-.02,3.31-.26,3.48-.41.31-1.81.37-6.07.37-2.12,0-3.87.04-3.93.09-.07.08-.82-.02-1.37-.16-.18-.06-.23-.49-.26-2.58-.05-3.2-.25-7.54-.36-7.65-.04-.03-.04-.36,0-.73l.05-.66.78-.1c.56-.08,4.97-.12,8.23-.12h.01c1.95,0,3.49,0,3.52.05.05.05.02.42-.05.83ZM25.87,189.04c.01.13.03,1.71.03,3.52,0,2.99-.02,3.3-.26,3.49-.41.29-1.81.36-6.07.36-2.12,0-3.87.03-3.93.08-.07.07-.82,0-1.37-.16-.18-.04-.23-.49-.26-2.59-.05-3.19-.25-7.52-.36-7.63-.04-.04-.04-.36,0-.73l.05-.68.78-.1c.56-.06,4.97-.11,8.23-.11h.01c1.95,0,3.49.01,3.52.06.05.04.02.4-.05.81-.16.81-.37,3.32-.32,3.68ZM13.52,219.07c-.05-.85.06-4.83.15-4.96.11-.2.25-4.61.18-5.95-.02-.37.02-1.67.05-2.86.04-1.2.08-2.43.08-2.72v-.55l2.6-.11c1.42-.06,2.74-.13,2.92-.17.32-.06,4.28-.23,5.7-.25h.44c.43.02.71.28.58.51-.04.06,0,.12.12.12.17,0,.17.03,0,.13-.16.11-.18.96-.1,4.94.05,2.63.12,4.82.17,4.89.17.3.06,6.11-.17,8.7-.06.63-.03.87.18,1.1.24.27.17.27-3.75.2-2.21-.05-4.82-.11-5.81-.17-.97-.04-2.15-.13-2.6-.19-.7-.08-.81-.15-.78-.4.06-.29.07-1.66.04-2.26Z"/>
      <g>
        <g>
          <path class="cls-2" d="M127.29.26l-1.65-.09h-.03s.03,0,.04.01l1.64.08Z"/>
          <path class="cls-2" d="M128.24.75c-.85-.46-1.43-.35-2.36-.5h-.02s-.02,0-.03,0c.62.23,1.17.64,1.59,1.35-.12,0-.24,0-.36,0-.02.6-.82,2.85-1.13,3.03-.03.02-.05.02-.08,0,0-.01-.01-.02-.01-.03-.01,0-.04.02-.09.02-2.4-.05-4.71-.1-5.34-.1-2.01,0-8.21.19-8.57.26-.16.03-1.8.1-3.63.16-1.83.05-3.4.14-3.49.2-.09.05-5.52.12-12.07.13-18.55.05-36.59.17-41.82.29-2.61.06-5.03.1-5.35.09-1.78-.05-12.94-.02-13.76.05-2.59.22-10.63.31-19.95.24-.78,0-2.51.03-3.87.07-2.36.09-3.73.1-3.81.04-.02-.02-.06-.34-.12-.72-.05-.37-.17-.95-.25-1.28-.21-.91-.26-1.13-.34-1.86,0-.03-.01-.06-.01-.09-.09-.78-.36-1.14-.85-1.14-.26,0-.62.5-.48.65.09.09.45,1.8.48,2.29.09,1.05.02,2.46-.11,2.8-.18.49-.38,4.42-.37,7.28,0,2.23.08,3.13.42,6,.03.28.06.6.09.96.08.9.15,1.97.16,2.73.05,2.52.05,2.75-.07,4.25-.02.44-.07,1.17-.1,1.91h0c-.02.45-.05.9-.06,1.3-.04,1.06-.1,2.24-.14,2.62-.08.76-.27,6.7-.26,8.32,0,.54.04,1.59.09,2.34.04.74.1,1.45.1,1.58,0,.12-.02,1.1-.08,2.18-.09,1.82-.13,3.22-.32,10.16-.12,4.48-.21,7.96-.29,10.39-.05,1.29-.11,3.49-.15,4.91-.08,2.87-.18,4.4-.3,4.58-.09.16-.09,2.47.03,3.16.03.3.07.63.06.76,0,.12-.04.56-.06.97-.02.41-.06.84-.13.94-.15.24-.07,6.81.1,6.81.06,0,.05.1-.04.21-.13.14-.15,1.08-.09,3.05.14,5.92.23,9.96.23,11.05v10.61c0,.59.03,1.75.06,2.57.21,4.83.32,8.55.38,12.5,0,.58-.06,2.04-.23,4.74-.06.77,0,1.84.13,2.67.16,1.15.16,1.49.02,1.95-.16.48-.16.59.02.69.13.08.19.27.13.54-.03.21-.1.97-.14,1.69-.03.7-.08,1.35-.09,1.42,0,.09.04.83.09,1.66-.37,19.78-.34,41.63-.56,63.09-.03,4.85.23,14.87.42,16.28.03.25.1,1.15.14,2.01.04.87.12,2.07.16,2.65-.62,12.04-.74,32.44-.98,48.12.24,17.45.67,23.36.41,31.65-.23,2.32-.23,2.86-.31,12.14-.04,4.41-.12,8.17-.16,8.37-.04.2-.12,1.33-.16,2.53-.05,1.19-.11,2.2-.15,2.25-.04.04-.12.7-.16,1.47-.06.77-.11,1.67-.14,2-.23,2.1-.07,7.1.17,7.62.11.27.25.44.41.57v.12h.18c.11.06.21.09.28.05.03,0,.05-.02.07-.04h.35c3.41.09,5.94.17,8,.24.28.01.55.02.8.02,6.11.2,8.24.29,19.48.33,5.37.02,10.57.02,10.94.02.12,0,.93.04,1.79.1.86.04,2.61.11,3.91.14,1.29.02,2.39.08,2.42.12.05.05.54.03,1.08,0,1.38-.13,5.74.02,5.95.19.03.03,4.01.01,8.85-.03,4.85-.02,9.25-.03,9.79-.02,4.67.11,14.3-.03,17.46-.24,3.54-.25,26.27-.38,28.61-.21,0,0,2.42-.11,3.6.05.43-2.16-.04-7.69.07-9.42.05-.74.12-1.72.16-2.16.05-.43.11-1.6.15-2.59.05-.98.14-2.36.2-3.04.07-.69.11-1.56.08-1.94-.13-2.02-.02-19.33.16-23.06.04-.75.1-2.4.16-3.66.04-1.27.11-2.43.14-2.6.04-.16.11-1.78.14-3.6.05-1.81.12-4.1.16-5.1.11-2.4.24-5.94.26-6.91.02-.8-.17-4.74-.26-5.53-.37-2.76-.55-9.34-.57-19.93,0-5.82.05-8.15.28-9.57.12-.72.09-3.64-.05-5.38-.17-2.12-.1-7.6.13-10.66.17-2.26.21-14.45.1-33.19-.04-5.21,0-6.39.16-6.49.15-.08.16-.21.08-.46-.08-.18-.13-2.9-.13-6.02s-.05-7.23-.11-9.13c-.07-1.9-.16-8.15-.19-13.89-.04-5.73-.11-11.19-.14-12.15-.05-.94-.09-1.8-.09-1.87,0-.08.04-1.96.08-4.17.14-8.35.2-11.11.28-12.23.11-1.54.38-7.44.49-10.72.23-7.85.23-8.36.19-8.91.58-8.84.1-16.99-.23-24.64-.12-3.78-.12-3.58-.03-4.61.05-.51.07-.95.03-1-.07-.07-.24-9.2-.23-12.6.04-2.48.13-5.49.27-6.49.29-6.6.28-11.8.58-18.69.05-.08.08-.57.3-3.74.06-.79.08-2.21.07-3.17-.03-.95-.03-2.16-.03-2.69s-.05-1.04-.13-1.15c-.09-.11-.15-.72-.11-1.51.03-.74,0-1.64-.05-1.99-.05-.36-.05-.68.02-.72.07-.05.12-.29.12-.54s-.05-.41-.13-.36c-.04.03-.06,0-.06-.07s.01-.16.04-.29c.07-.25.09-1.11.04-1.93h0c-.04-.82-.06-2.74-.05-4.25.03-4.05.13-5.41.58-7.3.01-.05.03-.11.04-.16.43-1.72.49-2.06.33-2.16-.08-.06-.15-.22-.21-.47-.18-.67-.3-2.01-.37-3.97-.09-3.09.04-3.87.78-5.17.07-.12.14-.25.2-.37.08-.15.14-.3.2-.45,0,0,.01-.02.01-.02.17-.45.26-.93.31-1.52.07-.6.09-.19-.23-.63ZM49.58,23.69c.13.09.15.57.07,1.82-.07.94-.11,3.39-.1,5.44.03,3.87.03,3.86-.65,5.69-.46,1.23-1.16,2.84-1.7,3.92-.24.45-.53.83-.66.87-.14.03-.38-.24-.68-.75-.24-.45-.45-.86-.45-.91,0-.06-.25-.52-.54-1.04-.3-.53-.66-1.26-.8-1.63-.14-.37-.31-.78-.36-.91-.1-.22.14-.25,2.18-.24,2.6.03,3.13-.12,3.05-.8-.04-.42-.06-.42-2.19-.31-.37.02-1.17-.01-1.76-.08-.77-.08-1.13-.07-1.28.06-.19.15-.24.07-.34-.55-.06-.4-.12-1.39-.12-2.22,0-2.26.34-7.47.51-7.68.1-.12.44-.14,1.09-.08.92.1,2.23.06,3.49-.11.65-.08.89-.36.71-.85-.08-.21-.4-.23-2.35-.17-2.38.06-3.07,0-3.07-.29,0-.1-.09-.27-.17-.37-.1-.09-.2-.34-.22-.57-.02-.22-.08-.51-.13-.65-.06-.13-.11-.54-.13-.9-.02-.49-.11-.72-.35-.89-.26-.17-.29-.26-.15-.48.13-.22.13-.37-.03-.7-.11-.24-.24-.8-.31-1.26-.13-1.03-.17-1.17-.46-1.73-.13-.24-.29-.6-.35-.8-.11-.36-.09-.36.74-.25.46.05.9.05,1,0,.22-.13,3.62-.25,6.95-.24h0c.47.01.94.01,1.4.01.83,0,.87.1.43,1.55-.49,1.67-.78,2.7-.85,3.1-.03.21-.12.46-.19.55-.05.09-.23.56-.37,1.05-.14.51-.43,1.45-.62,2.1-.28.89-.32,1.23-.2,1.31ZM39.89,12.92c-5.93.03-11.52.09-12.39.16-.89.07-3.91.13-6.7.16-2.8.02-5.68.08-6.42.12-.73.05-2.14.08-3.12.07-3.68,0-4.21,0-5.51.17-2.33.27-2.37.26-2.29-.84l.05-.58h2.01c1.1,0,3.09.04,4.4.11,1.3.07,5.99.14,10.41.18,4.42.03,8.81.06,9.74.07.95,0,1.96-.05,2.24-.14.29-.08.89-.11,1.34-.05,1.04.13,1.01.13,6.4-.03,2.49-.06,4.64-.11,4.76-.11.59.05,4.77-.01,5.35-.05.38-.03,1.86-.07,3.32-.08,1.45,0,2.68-.07,2.73-.15.04-.08.13-.1.21-.06.31.19,10.19.29,13.84.14,1.02-.04,2.05-.07,2.3-.07,1.16.03,6.41.14,7.71.15,1.37.02,2.74-.04,6.13-.24.74-.03,2.91-.1,4.83-.13,3.81-.07,6.87-.18,9.08-.31,2.56-.15,7.79-.16,9.53-.03.95.07,1.84.13,2,.13h5.81c2.73-.24,5.62-.32,8.07-.36v.35c0,.24,0,.42-.02.55-4.32-.01-9.07.03-10.8.13-.53.04-3.39.1-6.33.14-5.76.08-9.14.18-9.75.31-.21.04-1.32.1-2.46.13-1.14.03-3.84.11-6.01.18-5.13.14-7.3.14-11.02-.02-1.68-.08-3.18-.13-3.35-.11-.16,0-.46.03-.66.04-.22.02-.58-.02-.82-.07-.6-.12-9.07-.12-17.19,0-3.65.05-11.48.12-17.42.14ZM14.13,19.25s0,.08-.09.08c-.1,0-.18.11-.18.23,0,.2-.26,1-.96,2.93-.22.58-.14.57-2.24.4-.74-.05-1.67-.04-2.06.03-.86.16-.74.38-1.48-2.76-.62-2.63-.83-3.86-.67-3.75.21.12.13-.13-.1-.39-.12-.13-.25-.45-.31-.69-.08-.42-.05-.44.41-.47,1.68-.14,2.29-.24,2.39-.4.04-.06.06-.08.08-.08,0,0,0,0,0,0h.01s0,0,0,0c.02,0,.02.02.03.07,0,.13.57.17,2.13.11,2.17-.08,4.15-.08,4.21,0,.07.07-.47,2.15-.88,3.45-.21.63-.34,1.2-.29,1.24ZM13.4,35.69c-.06.05-.4,0-.75-.13-.47-.17-.74-.19-.93-.08-.17.1-.89.12-1.88.06-1.49-.08-1.62-.06-1.81.21-.21.31-.23.31-.32-.03-.04-.2-.09-2.84-.09-5.89v-5.53l.34-.13c.17-.06.98-.11,1.74-.08,1.05.03,1.55,0,1.91-.18.3-.14.71-.24,1.03-.25h.01c.19,0,.33,0,.38.06.03.03.11.41.15.81.06.41.13.85.18.97.11.34.12,10.07.02,10.18ZM13.46,36.66l-.09.56c-.13,1.01-.66,1.9-1.77,3.02-.59.59-1.16,1.09-1.26,1.09-.15,0-.8-1.17-.8-1.44,0-.03-.22-.38-.49-.78-.43-.63-1-1.98-1-2.35,0-.08.48-.08,1.08,0,1.25.13,1.72.13,3.22,0l1.11-.1ZM3.35,10.31c.06-.39.1-1.03.09-1.41,0-.39.06-.99.15-1.33l.16-.61.69.11c.39.05.95.1,1.23.09,3.6-.07,10.67-.04,11.27.03.42.04.8.03.84-.04.05-.07.43-.05.85.05.51.11,1.17.12,1.97.04.66-.06,2.12-.14,3.23-.18,1.1-.04,3.15-.1,4.53-.16,1.4-.04,2.9-.15,3.34-.23.54-.09.87-.09.99,0,.11.1,1.08.12,2.68.08,4.94-.17,9.32-.11,9.7.13.07.04.4.01.72-.07.64-.14,7.74-.28,13.97-.29h10.5c.2,0,1.34,0,2.53.02,1.19.02,3.93-.02,6.1-.07,2.17-.05,4.97-.08,6.25-.06,2.13.02,5.87.02,6.39,0,.42-.02,2.6-.02,3.05,0,1.93.1,10.88-.07,13.09-.24.8-.07,1.78-.12,6.85-.32,1.82-.08,4.18-.11,6.12-.12h0c1.96,0,3.5.01,3.74.06.04.01.31.02.64.02h.01c.17.06.29.1.3.11.06.07.13.85.14,1.73.02,1.14.02,2.04-.11,2.42-3.01.17-4.89,0-7.64.22-.15.05-1.38.04-5.06-.09-4.46-.15-9.2-.15-13.24,0-1.6.06-4.18.14-5.73.17-1.55.05-3.43.1-4.17.13-.73.04-2.36.12-3.62.17-1.25.05-2.85.14-3.56.19-.72.06-1.54.08-1.83.05-.65-.1-28.04-.07-29.83.04-.74.05-3.91.12-7.06.17-3.16.04-7.04.12-8.63.16-1.6.06-3.29.1-3.78.11-.47.03-.88.01-.91-.02-.02-.02-3.92-.07-8.68-.1-4.73-.02-8.85-.1-9.12-.14-.9-.16-2.57-.28-3.33-.25-.41.03-1.91.04-3.33.06l-2.58.05.09-.68ZM24.03,324.88c-.04.09-.1.34-.12.56-.06.72-.26,12.13-.3,16.51-.02,2.35-.08,4.3-.12,4.36-10.93.15-8.05-.17-18.53-.55-1.51,0-2.66-.01-3.78-.02-.12-1.53-.15-6.5.11-9.47.05-.56.12-1.29.17-1.63.03-.33.11-1.2.14-1.96.04-.74.14-1.78.21-2.3.06-.52.1-1.17.08-1.46-.13-1.41-.02-12.15.13-16.06.29.01.48.01,1.05.01,11.19.35,8.2.61,19.23-.3l1.37-.08v.94c.01.51.05,2.18.11,3.71.04,1.54.06,3.59.05,4.55-.02.96.06,2.03.13,2.39.08.35.1.71.06.79ZM23.94,311.1c-.32.25-.91.35-2.34.42-11.7.82-8.96.22-19.56.03v-.07c.04-.57.11-1.81.15-2.76.06-.96.12-1.84.17-1.96-.07-5.13-.17-19.81-.37-28.4-.29-12.34.26-25.59.66-38.11.03-.75.07-1.28.09-2.13,1.02-.02,2-.03,3.13,0,10.96-.49,7.03.03,17.08-.24,2.01-.02,3.85-.12,4.1-.21.29-.1.56-.1.72,0,.15.09.89.11,1.83.06l1.56-.1-.11.87c-.12.99-.26,5.08-.24,7.12v1.97c0,.62,0,2.5.02,4.2.02,1.7.02,3.47,0,3.92-.07,1.61.15,8.99.28,9.6.08.34.1.67.06.71-.06.05-.11.79-.12,1.63-.06,7.65-.06,11.86,0,13.96.16,4.86.19,8.83.06,10.24-.06.79-.15,2.17-.21,3.08-.04.91-.11,2-.14,2.41-.08,1.12-.21,4.92-.22,6.52,0,1.55-.02,1.56-1.21,1.74-1.17.16-2.47.46-2.85.66-.47.24-1.19,1.25-1.45,2.04-.13.44-.13.76-.02,1.35.14.66.13.8-.06.91-.12.08-.23.23-.23.35,0,.17-.09.21-.3.14-.17-.06-.38-.04-.48.04ZM111.07,235.87c-.09,0-.19,0-.28,0-3.21-.01-6.22-.04-7.95-.08-4.26-.08-1.84-.06,1.72-.02-4.55-.09-8.96-.21-9.4-.2-2.11.06-27.35.04-28.04-.02-.1,0-.3-.02-.56-.02h.03c-1.89.01-7.37.17-7.81.25-.19.04-1.99.11-3.98.15-2.01.05-3.95.11-4.32.15-.77.09-5.41.19-13.23.27-3,.03-5.54.09-5.66.14-.12.04-1.83.12-3.79.17-1.97.05-4.94.12-6.62.15-10.94.14-6.21.21-17.24.09-.25-.02-.74.01-1.15.02.02-.62.03-1.11.06-1.63.87-.03,2.13-.09,2.95-.14,12.69-.01,8.56-.08,19.1-.26,1.68-.02,3.37-.12,3.76-.22.4-.1,2.27-.21,4.17-.25,1.9-.03,4.39-.11,5.53-.17,1.15-.05,3.06-.08,4.25-.04,1.19.02,2.62.04,3.19.03,5.77-.06,8.73-.06,12.79.02,6.8.13,7.98.14,18.91.03,10.64-.1,12.4-.14,12.83-.35.14-.08.83-.11,1.54-.06.69.04,2.06.08,3.05.07,5.39-.11-3.02.15,24.35.39,3.13.02,4.47.01,4.88-.35.1-.08.12-.13.18-.19-.02.2-.02,1.46-.03,2.15-.02-.03-.03-.07-.05-.09-.18-.19-.14-.24-.46-.11-.2.09-5.74.12-11.26.11,1.06.02.96.02-1.42,0ZM84.95,271.63c-.04-.58-.11-3.24-.14-5.9-.03-2.68-.1-4.93-.15-5-.04-.08-.03-.17.04-.22.07-.04.12-.33.1-.64-.02-.31.02-.77.09-1.02.06-.25.14-1.72.2-3.26.1-3.19.23-5.08.36-5.09h0c.05,0,.48.36.98.8.6.57,1.01.82,1.28.82.49,0,.57.23.49,1.51-.2,3.32-.28,6.89-.27,10.24,0,2.12.03,4.48.03,5.27s-.02,2.65-.06,4.15c-.09,3.09-.09,5.04.02,7.29.08,1.7.09,2.1.06,8.13-.02,5.31,0,6.15.13,7.15.07.46.06.88,0,.92-.06.03-.12.63-.12,1.31s-.05,1.44-.12,1.69l-.13.45-2.7.07-.11-.63c-.13-.77-.11-4.74.07-12.53.12-6.02.1-13.54-.06-15.51ZM36.42,322.97h.74c.42,0,1.65.07,2.76.13,1.1.07,3.07.14,4.39.18,1.31.02,2.68.11,3.04.2.36.08.7.11.76.08.06-.03.82-.04,1.72-.04s2.96,0,4.6.03c1.63,0,3.97-.04,5.2-.1,1.23-.05,4.83-.13,8.01-.16,3.17-.04,6.39-.11,7.14-.17.76-.06,1.5-.11,1.67-.11,1.01.02,2.12.03,3.35.03.78,0,2.04.08,2.82.17,1,.12,1.58.12,1.97.02.36-.1.76-.11,1.19,0,.35.08,1.01.14,1.46.14s1.04.08,1.31.17c.35.13.53.13.6.03.06-.1.25-.21.44-.28.39-.12.36-.45.47,4.38.03,1.35.01,1.74-.18,1.93-.19.19-.79.24-3.14.29-1.6.03-2.94.04-2.96.02s-2.62-.08-5.77-.13c-3.15-.06-6.94-.14-8.41-.19-1.47-.05-4.16-.11-5.96-.13-3.48-.07-7.03-.21-7.66-.29-.33-.04-1.86-.11-8.11-.33-1.15-.03-2.75-.13-3.57-.21-.82-.08-2.96-.19-4.77-.24-1.8-.06-3.29-.12-3.33-.15-.11-.11-.1-3.73.03-3.9.06-.09.12-.42.14-.76l.06-.6v-.03ZM89.92,321.89c0,.22-.11.26-.54.21-.28-.03-.55,0-.59.06-.08.12-2.04.09-6.54-.1-3.43-.14-6.11-.11-12.65.17-1.61.06-1.12.06-4.17.02-1.38-.02-3.59.02-4.9.09-2.39.12-7.36.24-7.44.16-.04-.04-2.63-.15-6.92-.28-4.48-.12-5.65-.19-7.44-.36-2.05-.22-2.18-.24-2.3-.55-.06-.15-.14-1.29-.18-2.56-.05-2-.03-2.29.19-2.37.06-.03.14-.04.21-.04h0c.08-.01.13,0,.17.03.08.04,1.53.08,3.22.06,8.31-.08,10.36-.04,20.42.25,4.3.12,4.65.13,7.06.28,1.55.1,11.65.13,19.69.06.75,0,1.48.06,1.62.13.17.09.4.09.62,0,.21-.08.38-.11.4-.09.05.04.1,4.12.08,4.82ZM42.6,314s-.04-.47-.09-.96c-.15-1.33-.18-7.64-.05-10.32.06-1.28.13-4.43.18-7,.03-2.56.11-5,.16-5.42.06-.41.12-2.98.14-5.73.03-2.73.09-5.13.15-5.34.05-.21.13-1.69.16-3.3.11-4.81.2-6.7.3-6.96.05-.13.1-1.28.12-2.56.02-1.27.08-2.38.12-2.45.04-.09.08-1.34.06-2.8,0-1.45.06-3.01.16-3.46.09-.49.14-2.18.12-4.1l-.03-3.26.9.08c.5.03,1.31.12,1.82.17.49.06,1.24.07,1.64.03,2.47-.3,19.81-.24,22.93.09,1.1.11,9.74.18,9.74.07,0-.19.97-.03,1.45.21.59.31.63.31.63-.06,0-.16.1-.31.21-.31.12,0,.33-.03.46-.08.23-.1.26,0,.18.81-.06.5-.13,1.69-.18,2.62-.05.95-.13,2.32-.17,3.06-.15,2.08-.15,11.35,0,11.26.06-.04.04.08-.06.26-.18.34-.14,1.76.12,4,.06.49.09,1.94.08,3.22-.03,2.45-.04,10.3-.03,11.08.02.43-.13,6.24-.26,9.89-.03,1.1.02,1.8.11,1.87.08.05.11.32.06.59-.06.3-.02.54.07.59.08.06.12.23.06.4-.04.15-.11,1.51-.14,3.03-.03,1.51-.13,3.39-.21,4.18-.08.79-.11,2.25-.08,3.24.08,2.53.08,2.65-.1,3.12-.14.33-.12.53.09.98.19.38.22.61.11.79-.18.3-3.06.44-3.25.14-.08-.15-.18-1.19-.18-2.02,0-.08,0-2.52.03-5.42.02-2.9-.03-6.32-.1-7.6-.06-1.29-.12-4.24-.11-6.55v-8.66c0-2.45-.02-5.86-.02-7.57,0-3.56.08-3.37-1.39-3.28-.87.05-1.13.05-7.56-.06-5.85-.1-5.74-.13-5.78,1.3-.02,1.15-.06,1.8-.23,2.98-.09.77-.12,4.5-.03,8.86.02.59,0,2.72,0,3.07,0,.19-.04,2.75-.08,5.69-.03,2.94-.1,5.89-.16,6.54-.04.67-.11,3.04-.13,5.28-.02,2.24-.09,4.62-.15,5.31-.09,1.02-.07,1.31.13,1.62l.24.36-1.01-.03-1-.04-.09-.97c-.08-1-.05-2.22.09-10.4.05-2.52.11-6.42.14-8.65.02-2.24.09-4.4.13-4.82q.32-2.8.22-10.15c-.07-5.67-.09-5.79-.4-6.14-.22-.26-.41-.34-.58-.28-.36.14-2.28.4-2.41.31-.05-.03-1.07-.1-2.25-.16-1.18-.04-2.88-.15-3.78-.23-1.32-.12-4.82-.11-5.14,0-.03.03-.12.03-.17.03-.37-.05-.46.6-.52,4-.1,6.2-.15,8.03-.24,8.12-.04.05-.03.26.06.47.1.27.07.44-.05.59-.11.14-.15.65-.13,1.38.06,1.62.06,1.73-.14,4.77-.14,2.29-.18,5.02-.11,7.3,0,.29-.05,1.92-.11,3.62-.07,1.7-.12,4.83-.1,6.97l.02,3.86-.62.03c-.36,0-.94.04-1.31.07-.93.05-1.12.06-2.27.06h-1.01l.31-.31c.25-.25.36-.55.31-.92ZM78.96,315.41c.11.06.11.14,0,.24-.12.12-7.59.34-7.71.23-.02,0-1.03-.08-2.26-.14-3.76-.17-3.53-.1-3.4-1.1.05-.39.12-3.11.14-6.06.03-2.94.06-5.54.07-5.79,0-.25.02-.71.02-1.05s.04-1.21.04-1.95-.03-1.5-.09-1.69c-.06-.2-.05-.34.04-.34.13,0,.14-.86.11-8.44,0-1.53-.02-3.1-.02-3.47,0-2.18.17-8.76.26-9.29.09-.51.19-.66.45-.72.25-.06,1.44-.11,2.92-.11h0s.01.01.01.01c1.48,0,3.26.02,4.74.09,3.78.17,4.2.21,4.35.43.13.21.15,1.14.21,6.61.06,4.95.06,4.74,0,8.58-.03,2.45.01,3.58.12,3.65.11.08.11.11-.02.11-.14,0-.17.28-.11,1.16.37,5.15.31,17.71-.09,18.19-.16.2-.03.68.22.86ZM61.84,294.6c.08.06.06.15-.03.2-.11.07-.11.21,0,.47.12.26.12.6,0,1.15-.09.44-.17,2.85-.18,5.33,0,2.49-.04,5.39-.05,6.45-.03,1.06.02,1.99.07,2.09.06.09.04.26-.04.35-.08.09-.52,1.23-.2,2.42l-.04,2.24-1.16.07c-.63.04-1.16.07-1.18.05-.02-.02-6.09-.14-10.7-.22-.32,0-.32-.08-.02-.38.17-.17.21-.4.14-.78-.26-1.68-.31-5.73-.12-8.61.06-.86.1-2.19.09-2.94-.04-2.53-.03-4.82.02-5.87.17-3.45.25-6.15.32-9.49.04-2.06.13-4.06.2-4.42.14-.74.24-3.66.2-5.9-.04-1.14.02-1.49.18-1.64.14-.12,1.31-.11,2.23-.19.56,0,1.02.04,1.13.1.08.06.9.13,1.83.18.92.03,2.18.09,2.79.14.61.04,1.91.12,2.89.15.97.04,1.78.08,1.8.1.09.09.21,1.78.2,2.76-.03,2.5-.02,3.73.06,5.5.04,1.03.02,2.18-.07,2.55-.08.38-.17,1.63-.21,2.79-.03,1.15-.12,2.81-.17,3.69-.07.86-.06,1.62.02,1.66ZM83.96,250.17c0-.21-1.01-.63-1.21-.51-.12.08-2.05.11-4.16.05-1.48-.03-3.21.11-3.16.26.05.1-.02.23-.13.29-.11.06-.15.06-.09,0,.26-.29-.35-.47-1.82-.49-1.79-.03-4.85-.19-5.73-.28-.67-.08-7.54-.22-10.36-.23-1.03,0-3.14.06-4.69.15-1.54.09-3.38.13-4.08.09-2.83-.15-3.96-.29-4.3-.46-.31-.17-.45-.15-.86.04-.45.22-.61.55-.48,1.01.12.44.11,5.68-.02,6.75-.17,1.24-.33,3.6-.3,4.02.08.93-.03,6.13-.14,6.86-.15,1-.26,3.25-.38,7.53-.05,1.57-.11,3.16-.13,3.53-.06.85-.09,3.66-.07,4.98.03,1.1-.08,2.87-.38,7-.06.66-.11,2.96-.12,5.12l-.03,3.92h-1.73c-2,0-2.14-.02-1.9-.31.13-.17.13-.47,0-1.21-.1-.55-.15-1.34-.15-1.77.02-1.13.02-1.11.02-4.32,0-1.61.03-4.97.09-7.46.09-5.03.09-9.2-.03-19.95-.06-4.01-.08-7.91-.07-8.66.03-2.19.03-6.22-.02-7.65-.02-.72,0-1.32.06-1.32.34,0,.99.22.99.31,0,.06.18.18.37.28.21.09.37.26.37.39,0,.39.71.43,1.19.05.24-.19.44-.37.44-.4.02-.42-1.89-1.55-2.81-1.66l-.67-.08.02-.68c.02-.51.19-6.95.2-7.57,0-.06.34-.11.76-.11.69,0,.73.03.51.24-.12.13-.23.33-.23.45,0,.35,1.42,2.03,3.73,4.4.62.64,1.25,1.35,1.39,1.57.14.23.34.42.44.42.19,0,.99-.81.99-1,0-.06-.79-.89-1.77-1.84-.96-.97-2.1-2.12-2.49-2.58-.41-.45-.94-1.01-1.21-1.23l-.48-.39,1.37-.11c1.65-.12,1.91-.13,4.87-.09,1.27.02,2.49,0,2.7-.06.35-.09.39-.06.47.48.05.31.1.78.1,1.03s.1.65.22.88c.12.24.23.56.23.7,0,.15.05.31.13.36.08.04.11.22.06.37-.21.8.76,1.26,1.1.52.15-.33.14-.49-.1-1.01-.29-.66-.76-2.68-.76-3.32,0-.35.07-.38.65-.4.34,0,2.96-.03,5.83-.05,2.86-.02,5.38-.09,5.58-.14.32-.1,1.12-.14,1.94-.15h0c.49-.01,1,.01,1.4.05.85.08.88.1.92.57.03.28-.06.78-.18,1.15-.12.36-.17.77-.14.9.25.79.21.76.53.46.17-.14.29-.2.31-.12,0,.08.1-.1.21-.38.12-.28.2-.56.14-.64-.16-.27.24-1.74.51-1.81.14-.03.92-.01,1.73.04.82.06,1.69.08,1.94.04.65-.1,6.76-.22,9.45-.2,4.9.03,5.76.03,6.74,0,.56-.03,1.05,0,1.1.04.05.04.12,1.71.17,3.7l.05,3.62h-.36c-.2,0-.45.12-.56.25-.11.13-.33.28-.49.34-.15.06-.88.66-1.6,1.31-1.12,1.03-1.31,1.26-1.31,1.67v.49l-1.01-.55c-.55-.31-1.21-.7-1.47-.9-.25-.2-.53-.35-.6-.35-.09,0-.47-.24-.84-.54-.38-.29-1-.67-1.36-.83-.36-.16-.7-.36-.76-.45-.06-.08-.74-.46-1.53-.82-.79-.37-1.63-.78-1.88-.91-1.17-.58-5.35-1.91-5.5-1.76-.04.04-.18,0-.29-.09-.11-.09-.32-.17-.48-.17s-.62-.06-1.01-.14c-1.05-.23-6.42-.36-7.32-.17-4.55.94-7.63,1.72-9.01,2.29-.2.09-.67.25-1.04.37-.36.13-.76.32-.88.43-.13.1-.44.26-.7.37s-.56.29-.66.4c-.09.12-.26.21-.38.21-.11,0-.63.28-1.14.6-.51.33-1.02.6-1.1.6-.09,0-.23.1-.33.21-.1.12-.35.25-.57.31-.47.12-2.83,1.69-4.12,2.76-.48.39-.98.79-1.11.87-.12.09-.33.24-.44.34-.19.18-.41.25-.66.21-.07,0-.12.06-.13.17-.08.77-.03.92.35,1.21.4.32.43.32.93.03.28-.15.78-.57,1.11-.94.53-.58,3.12-2.6,3.35-2.6.04,0,.49-.31,1.01-.68.51-.36,1.03-.67,1.17-.67s.45-.16.68-.36c.23-.19.59-.39.79-.46.21-.06.57-.27.81-.45.25-.19.66-.44.9-.56.25-.12.78-.42,1.17-.64.4-.22.83-.39.95-.39.27,0,1.12-.26,1.73-.53.62-.27,1.88-.68,2.11-.68.11,0,.37-.08.6-.17.23-.09.58-.19.79-.21.68-.05,2.94-.5,3.37-.68.52-.21,6.31-.31,6.56-.11.09.08.55.17,1.03.21.98.07,2.83.45,3.62.74,1.76.65,3.27,1.31,5.73,2.51.86.4,2.23,1.19,2.32,1.33.12.19,2.69,1.7,4.2,2.49.8.42,1.45.8,1.45.85,0,.04-.16.16-.37.26-.24.11-.37.11-.37.02ZM31.9,251.16c-.08-.06-.08-.23,0-.44.17-.44.02-2.09-.2-2.24-.12-.08-.12-.14,0-.22.12-.09.2-1.42.28-4.49.05-2.4.16-4.66.23-5.04.06-.37.09-.72.05-.78-.13-.21.21-.25,2.08-.3h.4-.02c.91-.01,1.56.03,1.63.12.19.19.23,2.99.11,6.32-.05,1.46-.03,2.49.06,2.55.08.04.09.14.06.21-.07.1-.09,1.41-.07,3.92,0,.12-.04,1.03-.09,2.03-.12,2.56-.13,4.96,0,9.79.05,2.33.09,4.73.06,5.35-.02.61-.02,1.29-.02,1.51.02,1.47.02,2.42,0,3.02,0,.37.04,2.02.11,3.67.13,3.53.13,3.1.02,4.22-.05.49-.13,3.37-.16,6.39-.04,3.02-.09,5.5-.11,5.52-.13.14.03,6.4.17,6.67.1.17.13.31.08.31-.06,0-.02.1.06.22.09.11.13.22.1.26-.03.03-1.04.05-2.23.03-1.35-.02-2.17.02-2.17.11,0,.08-.09.14-.21.14-.21,0-.22-1.01,0-4.74.06-.91.12-2.35.14-3.18.02-.83.07-1.59.12-1.68.11-.16.04-4.37-.12-7.48-.1-1.85-.11-4.01-.06-14.8,0-2.5-.03-4.61-.07-4.67-.06-.12-.29-3.56-.29-4.54,0-.3.04-2.14.1-4.1.06-2.15.04-3.6-.05-3.65ZM32.05,307.57c1.2.99,1.33,1.84.25,1.5-.28-.09-.83-.19-1.25-.23-.41-.04-.95-.11-1.22-.18-.26-.05-.69-.02-.97.08-.27.1-.66.21-.87.25-.2.03-.66.2-1.02.36-.35.16-.67.28-.7.28-.19,0,0-.96.26-1.47.31-.58.53-.74,1.31-.88.21-.04.45-.13.54-.21.11-.09.98-.17,1.74-.18.45,0,.85.01,1.03.06.13.03.54.31.9.6ZM32.03,300.62c.08.01.14.18.14.37,0,.28.09.37.3.37.15,0,.32-.06.36-.13.1-.15,1.15-.2,5.38-.2h3.1l-.03.65c-.03.36-.06.67-.08.68-.02,0-.13-.1-.28-.23-.21-.22-.7-.23-3.78-.21-1.96,0-3.94-.06-4.41-.14-.84-.14-.85-.15-.85-.66,0-.28.08-.49.15-.51ZM88.36,247.5c-.06,1.1-.13,2.27-.17,2.62-.05.35-.12.65-.18.63-.05,0-.54-.37-1.08-.82-.53-.45-1.03-.81-1.11-.82-.28-.02-1.21-.9-.96-.9.13,0,.44-.22.68-.49,1-1.1,2.35-2.22,2.68-2.23.18,0,.2.33.13,2.01ZM85.4,301.59c.12.04.28.04.35,0,.08-.06,1.83-.11,3.9-.14,2.07-.04,4.05-.11,4.39-.15.15-.02.28-.03.37-.03h0c.26.01.26.1.26.42,0,.24-.08.48-.17.55-.09.05-.76.12-1.45.14-7.91.22-7.83.22-7.98-.25-.12-.37.04-.63.33-.53ZM94.04,300.06c-.99.12-3.56.2-4.05.13-.25-.04-.51-.13-.58-.2-.19-.19-.28-6.72-.26-20.93v-17.25c0-.58.2-6.29.24-6.77.03-.33.06-1.35.06-2.26,0-2.56.05-3.82.32-7.54.19-2.58.2-2.62.03-5.54-.17-2.77-.15-2.78.78-2.89.43-.05,1.6-.1,2.63-.12l1.84-.03-.1.76c-.1.79-.04,4.02.09,4.72.09.48.09,4.31,0,5.38-.18,2-.34,22.51-.19,22.51.05,0,.06.15.03.34-.03.19-.1,1.59-.14,3.13-.04,1.53-.11,2.95-.14,3.16-.03.21.02.8.12,1.32.11.53.16.97.1,1.02-.17.1-.3,11.25-.15,12.34,0,.09.05.76.05,1.51v3.47c0,1.16.02,2.46,0,2.88l-.05.79-.63.08ZM95.86,306.13h.01c1.56,0,2.17.23,3.09,1.11.54.53.77,1.01.77,1.6,0,.31-.06.36-.26.28-.71-.3-1.26-.37-2.64-.4-.83,0-1.59.03-1.67.08-.09.06-.48.13-.88.18-.4.05-.82.12-.96.15-.35.11-.44-.06-.44-.79,0-.91.17-1.14,1.15-1.71.72-.42,1-.49,1.82-.49ZM34.75,343.41c.13.09.13.12-.02.12-.16,0-.19.24-.11,1.17.09.9.06,1.23-.11,1.46-.21.28-.45.28-4.87.29-5.16.03-5.16.02-4.98-.9.08-.44.26-15.43.28-22.88,0-2.9-.1-6.31-.29-9.21-.09-1.35-.09-1.39.22-1.3.21.05.44-.06.73-.35.22-.24.54-.51.7-.6.65-.39,1.89-.96,2.09-.96.12,0,.24-.06.28-.13.04-.06.43-.1.93-.1.85,0,2.02.06,2.48.2,1,.26,2.25.83,2.58,1.16.26.28.33.57.42,2.14.2,3.29.02,15.93-.31,21.65-.08,1.37-.17,5.38-.19,7.14,0,.59.06,1.03.17,1.1ZM35.44,310.94c0-.12-.26-.45-.59-.74-.55-.48-.62-.6-.66-1.35-.06-1.04-.32-1.6-.98-2.03-.28-.19-.72-.51-.99-.71-.46-.38-.47-.4-.42-1.58.02-.66.09-1.26.13-1.34.1-.16,1.14-.21,4.4-.21.62,0,1.93,0,2.93-.03v.02c1.14-.02,1.83.02,1.83.12.01.08.03,2.52.06,5.42.07,4.99.14,6,.53,6.47.13.15-.02.22-.67.3-.77.1-3.87.06-4.4-.03-.29-.06-.59-1.12-.65-2.31-.06-1.11-.21-1.79-.4-1.79-.08,0-.14-.09-.14-.21ZM89.78,344.63c-.08.21-.12.76-.09,1.21l.04.83-.54.06c-.3.03-1.9.07-3.53.07s-3.06.04-3.15.1c-.09.05-1.17.12-2.41.16-1.24.03-2.32.11-2.37.15-.07.04-.17.03-.21,0-.06-.04-3.98-.12-8.76-.14-4.77-.03-9.73-.09-11-.13-1.26-.04-4.92-.12-8.12-.16-3.21-.06-5.99-.11-6.18-.15-.2-.03-1.62-.06-3.17-.06s-3.24-.04-3.72-.09l-.9-.1-.02-2-.02-2.01,1.27-.12c.67-.06,1.56-.09,2.48-.09h0c1.53-.01,3.12.08,3.87.22.68.13,3.05.29,4.31.28.74,0,1.67.06,2.08.12.42.08,1.8.19,3.06.24,1.27.04,2.91.12,3.64.15.73.03,2.15.05,3.13.05h4.01c3.91-.03,14.62.13,14.78.24.08.05,1.23.05,2.57,0,2.01-.06,4.88-.08,7.49-.03.25,0,.66-.05.92-.12.44-.1.47-.09.56.42.05.28.03.69-.05.9ZM89.83,342.62c0-.13.02-.26.03-.39-.47-.05-1.6.04-3.17-.03-2.39.12-14.12.04-17.39-.12-.98-.06-2.95-.08-4.39-.08-4.78.02-7.35,0-8.48-.06-.62-.03-1.95-.1-2.97-.15-1.03-.05-2.17-.12-2.53-.14-.74-.07-3.05-.19-5.96-.33-1.02-.04-2.08-.11-2.37-.15-.28-.03-1.96-.1-3.71-.14l-3.18-.09.1-1.59c.06-.87.1-1.95.1-2.39v-.82l.85.03c.47,0,1.32.03,1.88,0,.56,0,1.1.04,1.17.09.09.05,1.1.12,2.25.14,1.15.02,2.44.08,2.84.12.8.08,4.78.31,5.14.28.63-.02,4.55-.06,6.7-.06h4.04c.87,0,2.27.04,3.13.1,2.51.14,7.2.23,14.7.29,9.53.08,10.84.13,11.14.43.2.2.24.62.25,2.3.08.8-.05,1.59-.12,2.37.32.03.34.13-.03.39ZM90.13,332.7c-.04.86-.08,1.91-.08,2.34,0,.45-.06.82-.15.89-.15.09-15.99.22-16.1.13-.03-.03-1.71-.08-3.75-.13-2.05-.07-4.86-.15-6.25-.2-1.39-.05-3.17-.1-3.94-.1-7.24.06-10.92.06-10.99,0-.06-.03-1.03-.1-2.17-.15-1.15-.04-2.78-.12-3.61-.16-.83-.03-1.97-.13-2.53-.2-.56-.08-1.51-.11-2.13-.1-.62.02-1.43-.04-1.81-.12l-.7-.14-.04-.81c-.03-.44,0-1,.06-1.22.06-.23.12-.98.11-1.66v-1.25l.38.11c.26.05.44.02.51-.12.1-.14.52-.2,1.96-.2h0c.2,0,.43.02.67,0,2.85.03,6.1.17,6.26.26.06.03,2.02.12,4.35.18,2.34.05,4.48.12,4.76.15,1.76.19,3.9.24,15.03.44,2.25.03,5.53.11,7.29.16,1.77.06,5.18.12,7.59.15,2.51.03,4.41.13,4.44.21.02.08.24.07.48.06l.44-.09-.09,1.56ZM89.8,314.02l-.08,1.6-.55.03c-.28.02-1.4.06-2.47.1-1.84.06-1.93.05-2.12-.25-.15-.23-.15-.36-.03-.52.1-.11.17-.42.17-.7s-.01-2.05,0-3.94c0-1.9.02-3.5.06-3.56.04-.07.09-.67.1-1.34.02-.94.08-1.27.28-1.45.18-.16.29-.19.36-.06.07.1.17.12.28.03.22-.19,1.53-.31,4.48-.42,1.31-.04,2.8-.14,3.28-.21.26-.03.49-.06.67-.06h.01c.17,0,.31.02.35.07.2.19.09,1.38-.13,1.53-.09.05-.31.1-.49.1s-.34.07-.34.14c0,.06-.19.21-.42.31-.23.09-.64.52-.91.94-.47.72-.5.85-.5,2.19,0,.94-.07,1.4-.18,1.4-.27,0-.91.77-1.34,1.64-.35.7-.42,1.08-.48,2.43ZM101.58,321.82c-.05.08-.11,1.54-.14,3.24-.02,1.69-.08,3.14-.12,3.2-.04.08-.08.81-.09,1.64,0,.83-.05,1.74-.1,2.04-.04.28-.11,1.16-.14,1.94-.03.79-.1,1.84-.14,2.34-.09.86-.29,6.37-.26,6.86,0,.12.08.7.15,1.29.07.57.11,1.11.09,1.19-.2.78-.24.83-.87.83-.33,0-2.37.03-4.51.07-2.15.03-3.97.11-4.05.15-.29.19-.34-.32-.28-2.92v-.77c0-.2-.01-7.08.02-15.28l.03-14.91.39-.64c.65-1.11,1.94-1.71,4.21-1.94.33-.03.74-.1.93-.13.08-.02.19-.04.29-.04h.01c.8,0,2.19.45,3.17,1.05.38.23.79.42.92.42s.3.08.36.19c.12.21.25,5.19.17,7.11v1.62c.03.72-.02,1.38-.06,1.46ZM124.76,286.89c-.04,1.38-.11,4.62-.13,7.2-.06,4.72-.1,5.41-.4,9.57-.16,2.16-.21,3.15-.26,7.84.48.19.66.45.41.76-.14,0-.27,0-.41,0-.02,1.87-.03,4.26-.06,7.43-.03,5.83-.11,10.81-.15,11.07-.06.27-.12,1.78-.17,3.35-.04,1.58-.11,2.91-.15,2.97-.03.05-.11.94-.15,1.96-.06,1.02-.11,2.19-.14,2.63-.19,2.31-.19,3.94-.06,4.89-.04,0-.08,0-.12.01,3.2.32-9.93.21-.16.05.06-.03.11-.05.16-.05-.56-.06-1.59-.12-3.33-.21l-17.59-.09-.09-.48c-.06-.26-.04-.55,0-.65.06-.09.02-.66-.08-1.25-.09-.6-.14-1.63-.12-2.29.02-.66.08-2.62.12-4.36.05-1.74.12-3.71.14-4.37.02-.67.08-1.81.13-2.56.06-.74.13-2.37.18-3.6.04-1.23.11-2.29.14-2.36.04-.06.11-1.53.16-3.26.04-1.72.08-3.21.09-3.29,0-.08,0-1.26-.03-2.61-.03-1.36.02-2.52.09-2.58,6.85-.18,13.51-.21,21.19-.37,0-.27,0-.52,0-.77-.6-.24-1.67-.37-3.1-.34-.55.02-10.24.03-15.96.05,5.7.77-1.51.3-3.89.01.57,0,2.02,0,3.89-.01-.66-.09-1.49-.2-2.53-.32-.08-.21-.31-.38-.55-.43-.67-.15-.86-.3-.9-.77-.14-1.65-.23-2.05-.59-2.6-.67-.98-1.14-1.53-1.33-1.53-.1,0-.2-.08-.23-.18-.03-.1-.15-.19-.28-.21-.11-.02-.5-.11-.85-.21-.35-.1-.77-.13-.92-.08-.18.05-.4-.03-.57-.21-.25-.25-.28-.56-.33-2.68-.06-3.37-.02-26.96.09-35.97.11-9.58.11-9.67.05-10.39-.02-.33-.02-.91,0-1.28.03-.37.03-.79,0-.91-.03-.53.18-3.87.29-4.36.14-.66.11-6.22-.04-6.93-.1-.49-.12-3.4-.04-4.72.03-.32.13-.62.23-.67.1-.07,1.46-.09,3.03-.04h0c14.83.2,8.21-.09,24.31.37.24.03.4-.02.54-.09-.01.92-.04,1.23-.03,2.34.03,5.96.04,6.51-.06,13.45-.05,3.04-.1,6.76-.11,8.26-.02,4.64.23,14.2.42,15.55.03.23.09,1.1.14,1.92.04.83.11,1.96.15,2.51.09,1.12.1,2.13-.02,5.84ZM125.51,24.93c.05.37.1,2.11.13,3.84.07,4.27.23,7.53.39,8.35.15.74.13,1.97-.04,1.97-.05,0-.08.48-.08,1.08s-.09,1.54-.19,2.08c-.1.53-.21,1.25-.23,1.59-.03.33-.1.96-.14,1.42-.19,6.09-.23,12.68-.64,18.59-.16.99-.25,4.07-.22,8.74.05,7.36.05,10.56-.02,12.2-.04.91,0,2.74.09,4.07.28,3.75.44,7.35.52,10.92.12,5.49.04,10.9-.16,16.61-.01.16-.01.32-.02.48-.12,4.28-.23,7.6-.31,9.93-.03,1.23-.1,3.33-.14,4.67-.09,2.75-.19,4.21-.3,4.38-.1.16-.09,2.36.02,3.03.05.28.07.59.06.71,0,.13-.02.54-.04.94-.03.4-.08.8-.15.88-.15.25-.05,6.54.1,6.54.08,0,.07.08-.03.19-.12.13-.14,1.01-.1,2.9.15,5.65.24,9.52.23,10.57v10.13c0,.55.03,1.66.07,2.45.12,2.69.21,5.03.27,7.25.05,1.59.09,3.12.11,4.69,0,.41-.04,1.27-.13,2.72-.03.52-.07,1.12-.12,1.81-.05.68,0,1.61.11,2.37,0,.06.01.12.02.18.17,1.09.16,1.41.02,1.86-.02.05-.03.1-.05.14-.08.27-.08.38,0,.45.02.03.05.05.08.07.15.08.19.26.15.5-.05.22-.11.95-.15,1.62-.04.68-.08,1.29-.08,1.37s.03.79.08,1.58c.15,2.23.16,6.5.05,16.97-.06,5.88-.12,9.81-.2,12.32v.14c-.04,1.51-.09,2.49-.14,3.07-.25-.35-.63-.47-.97-.25,1.69.17-2.43.24-5.2.31-2.87.04-5.18.07-7.03.1,1.89-.1,1.2-.24-8.97-.42-2.16-.04-5.08-.12-8.94-.18-.79-.05-3.37,0-3.91.07-.37.05-3.37.11-6.69.14-3.31.02-6.19.05-6.39.07-1.09.02-5.13.03-9.76,0-25.21-.15-32.06-.09-38.04.35-.77.05-2.63.12-4.14.16-11.74.48-8.69.01-20.37.38-.09.02-.73.04-1.05.06.01-.26.05-.93.05-1.07.02-.85-.18-4.99-.28-5.81-.36-2.89-.55-9.78-.57-20.85,0-.29.01-.38.01-.66h.3c-.01-.69-.02-.97-.03-1.65.61-19.74.29-41.71.19-59.24-.03-5.47,0-6.7.16-6.8.14-.08.16-.24.07-.49-.06-.19-.12-3.03-.12-6.3s-.05-7.57-.12-9.56c-.05-1.95-.14-8.36-.17-14.3v-.23c-.05-6-.12-11.73-.16-12.73-.04-.99-.07-1.88-.07-1.95,0-.09.03-2.06.06-4.37.14-7.93.2-11.04.27-12.42v-.05c.01-.12.01-.23.02-.33.12-1.62.38-7.8.48-11.22.23-8.23.24-8.76.21-9.34,0-.12.04-1.38.11-2.79.11-2.28.12-5.28.06-9.94-.04-2.73.19-9.5.44-13.01.18-2.59.22-6.37.09-6.6-.07-.09-.14-.74-.18-1.42-.03-.69-.12-1.79-.21-2.46-.28-2.04-.43-3.46-.37-3.52.04-.03.58-.08,1.19-.09.62-.03,1.05.01.95.08-.13.07-.15.26-.07.55.05.23.17.91.25,1.49.19,1.37.8,4.48,1.02,5.26.17.61.2,1.5.06,2.4-.08.55-.06.71.06.63.1-.06.18-.04.18.05s-.07.16-.14.16c-.11,0-.18,2.16-.22,7.68-.03,2.34.03,2.93.27,3.69.25.83.49,1.41.68,1.58.15.17.47.8.51,1.05.07.35,1.06,2.37,1.46,2.98.39.57.65.6,1.47.18.7-.36,3.03-2.67,3.18-3.15.09-.3.37-.43.37-.16,0,.14.58.4.79.34.06-.03,1.54-.07,3.28-.12,1.73-.04,3.45-.11,3.82-.13.37-.03,3.28-.09,6.47-.14,5.55-.1,7.87-.17,9.01-.3.28-.03,1.11,0,1.83.04,1.31.1,1.33.1,1.77-.31.43-.41.44-.45.21-.71-.19-.21-.42-.27-.88-.23-.35.03-2.97.1-5.84.14-9.01.16-12.08.23-18.93.42l-1.36.04.1-.83c.1-.85.13-4.15.07-7.55-.02-1.03-.03-1.97-.02-2.1.02-.29-.16-2.44-.24-3.2-.04-.32-.16-.72-.25-.9-.2-.38-.04-1.79.26-2.17.11-.15.2-.43.2-.61s.07-.38.15-.42c.07-.06.11-.19.06-.31-.04-.12-.02-.22.07-.22.08,0,.26-.42.39-.94.15-.52.42-1.55.63-2.29.21-.75.38-1.59.4-1.85.02-.27.08-.5.17-.51.08,0,.31-.05.52-.07.2-.03,2.52-.09,5.13-.12,2.62-.02,5.5-.1,6.4-.15,1.84-.1,2.9-.11,3.07,0,.11.07,1.51.07,5.94.03,2.59-.03,3.94.11,3.31.35-.4.15-.42.36-.13,1.06.12.28.28.88.37,1.34.23,1.21.27,1.47.53,2.64.8,3.68.97,6.71.59,9.87-.12,1.07-.19,2.56-.14,3.85.04,1.8.11,2.3.45,3.31.41,1.24,1.94,4.2,2.88,5.6.5.74.57.79.98.72.66-.14,1.66-1.2,2.04-2.19.19-.46.48-1.06.66-1.34.32-.49.34-.49.38-.15.06.41-1.07.37,8.98.24,4.01-.04,6.4-.14,6.66-.24.23-.1.42-.11.42-.05,0,.05.06,0,.14-.12.07-.14.14-.16.15-.05,0,.13,1.36.17,5.42.15,2.99-.02,5.47-.08,5.53-.15.06-.05.28-.11.46-.11.29,0,.34-.06.34-.44,0-.51.12-.48-2.22-.46-6.46.07-8.82.11-11.32.21-1.59.06-3.04.12-3.2.12h-2.74c-3.11,0-2.8-.01-4.47-.04-1.32-.04-3,.09-3.61.26-.48.13-.44-.37.13-1.71l.57-1.32.03-4.98c.04-2.73.05-5.37.06-5.86.02-1.33.53-3.94.97-4.98.11-.24.23-.62.26-.82.14-.77.27-1.3.39-1.58.25-.55.9-2.64.9-2.86,0-.34.43-.48,1.45-.47.52,0,.94-.04.94-.1s.17-.04.4.05c.22.09.6.12.86.07.24-.04,1.08-.08,1.85-.08,3.97,0,12.64-.03,13.03-.03.25,0,.82.04,1.27.07.45.03,1.04.08,1.34.09q.52.02.7.95c.28,1.6.5,2.57.79,3.44.15.45.32,1.08.37,1.42.05.33.15.8.22,1.06.07.24.15.72.16,1.05.03.33.15.77.29.98.23.35.23.39-.03.65-.36.39-.6,1.63-.52,2.73.2,2.44.25,3.41.26,5.17.03,3.19.37,4.42,2.29,8.31,1.38,2.82,1.54,2.97,2.2,2.08.2-.27.77-1.28,1.26-2.23.48-.95,1.02-2,1.19-2.33.58-1.1,1.04-2.55,1.13-3.53.04-.54.13-2.45.18-4.23.05-1.79.12-3.57.14-3.99.06-1.09-.06-1.88-.32-1.88-.42,0-.39-.44.06-.81.31-.26.43-.53.45-.88.04-1.03.77-4.21,1.25-5.5.16-.44.3-1.01.32-1.28.02-.39-.04-.5-.31-.54-.28-.04-.4.08-.65.66-.16.4-.32.83-.34.96-.03.13-.13.45-.24.7-.26.64-1.02,3.6-1.32,5.17-.07.41-.18.53-.47.56-.21.02-.67.11-1.04.19-.79.18-3.5.26-3.95.12-.32-.1-.79-1.41-.91-2.57-.05-.34-.19-1.05-.34-1.59-.65-2.24-.76-2.66-.85-3.16-.05-.3-.14-.61-.19-.7-.07-.07-.16-.31-.21-.52l-.09-.39,3.3.05c5.62.08,13.45.01,15.3-.14,1.85-.16,4.74-.27,9.82-.34,6.15-.1,10.01-.2,14.57-.38,1.21-.05,2.31-.07,3-.07h.02c.66.07,1.84.26,2.83.42l-.08.09c-.31.34-.6.93-.78,1.49-.15.52-.32.94-.37.94-.12,0-.74,1.5-1.18,2.86-.18.54-.48,1.32-.66,1.73-.19.41-.4.9-.47,1.09-.05.19-.21.4-.37.49-.29.16-5.36.1-5.64-.06-.09-.06-.16-.23-.16-.38,0-.25-.47-1.95-.98-3.47-.12-.38-.28-.89-.35-1.13-.07-.26-.24-.73-.39-1.07-.15-.33-.29-.7-.31-.82-.03-.13-.09-.44-.14-.7-.1-.55-.39-.72-.81-.5-.29.16-.29.72,0,1.43.19.45.86,2.62,1.03,3.31.35,1.43.65,2.43.8,2.6.08.11.11.49.05.92-.08.55-.04.77.13.93.17.14.22.5.21,1.49,0,.71.04,3.45.09,6.11.1,5.43.07,5.31,1.39,7.84.4.73.8,1.57.91,1.87.31.78,1.14,2.06,1.42,2.16.15.07.38-.08.62-.37l3.54-6.57c.58-1.43.64-3.23.29-7.43-.04-.55,0-1.46.09-2.03.28-1.7.24-2.67-.13-3.31-.33-.55-.33-.57-.08-1.33.15-.42.32-.85.38-.93.17-.23.72-2.01.72-2.32,0-.13.08-.33.17-.42.16-.16.85-1.73.93-2.09.02-.1.09-.27.17-.38.39-.5.83-1.38.95-1.87.24.04.44.07.56.09.07,0-.05.86-.37,2.72-.14.79-.26,1.94-.28,2.57-.03.62-.07,1.2-.13,1.31-.14.21-.15,3.36-.04,4.4ZM83.09,34.92c-.17-.31-.68-.34-1.73-.11-.4.09-.9.13-1.12.1-.21-.02-.74-.1-1.17-.15-.49-.06-.82-.2-.91-.35-.15-.3-.31-2.24-.38-4.98-.06-2.29-.11-2.67-.32-3.08-.09-.17-.21-.48-.26-.7-.06-.32-.02-.42.21-.48.19-.04.33-.24.38-.51.09-.42.11-.44,1.01-.42.5,0,1.42-.04,2.03-.12.62-.08,1.4-.15,1.75-.17.35,0,.63-.08.63-.14,0-.05.15-.1.35-.11h.35l-.05,4.86c-.05,2.68-.09,5.06-.11,5.31-.02.24-.14.65-.28.89-.2.39-.23.4-.37.16ZM82.45,37.43c-.42.86-.9,1.87-1.08,2.24-.18.36-.42.69-.52.72-.12.03-.38-.37-.7-1.08-.28-.63-.58-1.17-.65-1.22-.15-.09-.83-1.94-.75-2.04.03-.03.53-.04,1.12-.02,1.23.05,2.69-.21,3.07-.55.09-.08.15-.12.2-.12.19,0-.06.71-.7,2.06ZM116.18,35.11c.31.45,1.72.57,3.42.28.74-.12,1.36-.2,1.39-.16.19.17-.27,1.33-1.12,2.73-.54.9-1.1,1.88-1.26,2.2-.15.31-.34.56-.41.56-.05,0-.53-.9-1.04-2-.51-1.1-1.03-2.19-1.17-2.44-.2-.37-.24-1.09-.29-4.52-.02-2.24-.09-4.38-.14-4.75-.19-1.38-.21-2.5-.03-3.06l.17-.58,1.49.09c.82.04,2.15.1,2.94.11l1.44.03-.03,3.31c-.02,1.82.03,3.81.11,4.41.08.62.09,1.48.03,1.92l-.1.81-.67-.06c-.36-.04-.78,0-.94.09-.15.09-.76.2-1.33.25-.82.08-1.1.04-1.37-.15-.51-.35-.85-.31-1.1.17-.19.38-.19.47,0,.75Z"/>
          <path class="cls-2" d="M127.06,1.56c0-.47-.31-.73-.82-.71h0c-.07,0-.16,0-.25.03-.21.03-1.34.08-2.39.12-.03-.42,0-.21-.03-.64.19.75.35.48.52-.04.73-.06,1.39-.12,1.44-.15h.05v.03c.08.02.17.03.25.05-.06-.02-.12-.04-.18-.06h0s-.07-.01-.07-.01h.03c-1.47-.43-3.32.06-4.99.11-1.88.04-5.49.13-8.03.21-2.53.06-6.04.12-7.81.12s-4.16.01-5.35.04c-1.19.02-3.1-.03-4.24-.1-3.61-.2-45.49-.04-46.95.17-.29.04-1.43.11-2.53.15-1.11.03-2.62.1-3.38.14-.94.05-1.38.02-1.38-.1,0-.11-.05-.11-.2,0-.38.32-3.65.58-6.88.54-1.74-.02-3.4-.08-3.72-.12-1.35-.21-20.03-.54-24.17-.43-.69.03-1.45.03-1.69,0-.62-.06-.87.38-.44.81.3.29.47.33,2.01.32,3.48-.03,4.84-.03,5.71.06.49.04,1.29.05,1.79.04.48-.02,1.03-.02,1.2,0,.15,0,3.44.06,7.29.08,3.85.02,7.09.1,7.19.15.11.07,1.6.15,3.34.21,4.15.12,4.44.12,5.85,0,1.27-.12,3.84-.3,4.27-.29.14,0,.26-.03.26-.1,0-.06.79-.12,1.74-.14.97-.02,2.41-.05,3.24-.1,1.67-.06,4.6-.12,6.85-.1,1.33,0,4.55-.07,8.26-.21,1.24-.05,2.74-.07,4.25-.07,5.39.03,10.48,0,14.21-.02,3.19-.03,6.04-.01,7.44.09,2.36.16,6.28.17,6.68.03.2-.06.46-.08.59-.02.13.05.34.11.46.13.12.02.36.08.54.13.18.07.36.06.41-.02.03-.06.72-.06,1.54,0,1.51.12,2.12.12,3.76.03.54-.02,3.28-.09,6.1-.13,2.83-.05,6.01-.13,7.08-.16,3.27-.11,7.64,0,11.19-.04,0,0,0,0,0,0v-.03Z"/>
          <path class="cls-2" d="M74.2,28.04c-.03-2.15-.11-3.96-.15-4.04-.14-.24-.9-.55-1.29-.56h0c-.05,0-.11,0-.14.02-.19.06-2.38.13-4.87.18-2.49.03-5.24.1-6.1.15-1.92.1-1.42.09-4.3.06-2.12-.02-2.46,0-2.71.24-.15.14-.28.22-.28.15,0-.06-.13-.03-.3.05-.32.17-.44,1.05-.14,1.05.17,0,.09,7.1-.08,7.55-.12.31.12.94.52,1.34.17.18.43.29.57.24.86-.25,5.11-.42,10.92-.4,4.1,0,6.68-.05,6.74-.14.05-.08.26-.14.46-.14.21,0,.41-.1.45-.22.06-.11.29-.29.53-.37.43-.15.45-.2.35-.71-.06-.29-.12-2.3-.15-4.44ZM72.96,30.66l-.03,1.91-.41.1c-.22.05-3.65.12-7.62.15-3.99.03-7.58.12-8.03.21-.45.09-.97.2-1.14.25-.49.14-.62-.27-.55-1.82.08-1.82.06-3.83-.02-3.97-.14-.23.23-2.05.45-2.22.15-.11.85-.15,2.04-.12,1,.03,2.46,0,3.24-.08,1.15-.11,7.23-.22,10.25-.21h.01c1.01,0,1.67.02,1.7.04.08.08.14,2.88.12,5.75Z"/>
          <path class="cls-2" d="M88,33.93c.2.11.28.11.28-.02,0-.1.13-.06.33.09.19.12.43.2.55.14.12-.04,1.01-.09,1.96-.09.97.01,1.78-.03,1.82-.1.03-.07.64-.04,1.32.06.68.1,1.59.17,2.04.12.45-.03,1.93-.1,3.28-.14,1.35-.05,2.49-.13,2.56-.16.06-.04,1.56-.1,3.33-.14,2.72-.06,3.3-.12,3.79-.35.36-.18.65-.23.8-.14.13.08.26.07.32-.03.06-.09.23-.12.38-.06.32.1.33.12.3-2.76-.02-1.5,0-1.53.33-1.54h.34l-.36-.18c-.35-.16-.36-.17-.28-2.15.08-1.85.08-2-.21-2.24-.17-.14-.4-.23-.51-.19-.1.04-.4-.04-.68-.19-.25-.13-.65-.22-.97-.22-.04-.01-.09,0-.13,0-1.05.06-13.75.24-16.99.24h-3.14l-.4.51-.41.51-.05,4.53c-.03,2.5-.01,4.5.03,4.44.06-.04.22-.02.37.06ZM88.92,25.25s.57-.03,1.22-.03c1.88,0,3.04,0,6.76-.09,1.93-.04,5.43-.1,7.79-.13,2.35-.02,4.31-.1,4.37-.14.06-.05.24-.1.43-.1.42,0,.53.51.35,1.73-.08.49-.14,2.01-.14,3.35v2.45l-.41-.02c-.22-.03-1.01.01-1.76.06-.73.06-2.44.15-3.78.21-1.35.05-2.67.11-2.91.14-.24.02-1.62.09-3.05.13-1.44.06-2.73.11-2.9.13-.16.02-.67,0-1.12-.05-.45-.06-1.6-.08-2.57-.04-1.7.06-1.78.04-2.1-.29-.26-.29-.34-.57-.37-1.47-.02-.62-.03-1.23-.04-1.35-.02-.35.19-4.43.23-4.48Z"/>
          <path class="cls-2" d="M30.9,24.07c-.24,0-.91-.04-1.48-.11-.24-.02-.53-.04-.79-.04-.81,0-1.59.08-1.46.21.11.1-.21.48-.41.48-.09,0-.02-.11.13-.23.58-.43-.09-.47-6.06-.37-3.4.06-3.85.1-4.12.34-.24.22-.28.37-.17.91.06.34.13,1.11.14,1.7,0,.6.08,1.13.15,1.19.09.06.11.17.06.25-.06.09-.12,1.1-.15,2.26-.02,1.16-.09,2.24-.13,2.37-.05.14.02.38.14.55.12.15.23.47.23.68,0,.22.05.44.11.51.1.11,8.44-.01,10.46-.15.36-.02,2.58-.08,4.92-.12,2.34-.05,4.35-.11,4.47-.15.11-.03.37-.09.57-.12.21-.02.36-.15.38-.32.06-.35.18-.47.49-.47.19,0,.24-.13.22-.54-.08-1.51-.06-3.51.03-5.87.09-2.39.08-2.67-.15-2.85-.24-.21-1.69-.22-7.59-.09ZM37.45,27.37c-.05,1.17-.12,2.94-.15,3.92-.03.99-.1,1.83-.14,1.88-.04.04-1.98.11-4.28.13-2.31.03-4.31.1-4.43.14-.12.04-1.59.12-3.27.17-7.48.17-7.09.21-7.3-.55-.13-.49-.16-1.69-.11-3.47,0-.21-.04-1.34-.11-2.49l-.11-2.11,3.7.05c2.04.02,5.64.03,8.02.03,7.48,0,7.97-.01,8.12.09.11.06.13.8.06,2.22Z"/>
          <path class="cls-2" d="M85.51,39.29c.25-.06.68-.1.97-.09,2.51.06,10.58-.03,13.4-.18.61-.03,1.72-.05,2.46-.05,2.19,0,3.21,0,4.23-.02.53,0,1.13,0,1.34.03.21.02.94-.01,1.63-.08.7-.06,1.8-.15,2.44-.2,1.12-.1,2.02-.44,2.14-.8.09-.25-.4-.7-.7-.72-.04,0-.09,0-.12.02-.37.15-1.6.35-2.78.44-1.38.11-7.49.28-7.97.22-.64-.08-2.37-.04-4.31.07-5.36.32-4.55.29-7.75.23-1.19-.02-2.8.01-3.59.08-.82.06-1.73.03-2.1-.04-.55-.13-.68-.1-.91.13-.38.4-.13.83.51.89.28.02.54.06.58.11.05.04.28.03.53-.03Z"/>
          <path class="cls-2" d="M116.86,50.38c.27-.28.28-.31.25-1.35-.02-.58-.1-.81-.35-1.01-.18-.14-.44-.37-.57-.51-.36-.34-1.1-.52-1.31-.33-.11.13-.16.13-.16,0,0-.09-.87-.12-2.87-.11v-.02c-.67,0-1.46,0-2.38.02-2.89.04-7.89.09-11.12.1-3.23.03-6,.1-6.14.17-.14.06-.25.22-.25.33,0,.12-.15.21-.3.21-.5,0-.67.41-.63,1.54.02.58.09,1.14.17,1.24.11.13.08.34-.09.67-.19.41-.21.65-.06,1.64.09.63.18,1.37.21,1.62.09.86.82,1.79,1.74,2.27.21.12.37.34.39.54.02.19.07.78.13,1.32.13,1.29.17,5.13.04,5.13-.05,0-.09.91-.08,2.03.03,1.12,0,2.03-.05,2.03-.14,0-.14,1.18,0,1.27.06.05.06.3,0,.57-.08.27-.1.94-.06,1.47.06.54.08,1.55.07,2.25-.12,4.71,0,11.7.23,12.28.19.5.18.62.02,1-.11.26-.12.67-.1,5.4.03,3.8.04,3.69-.5,3.69h-.45l-.03,1.2c0,.67-.05,1.53-.08,1.92-.04.67-.02.74.47,1.1.29.21.65.36.81.32.17-.04.7-.02,1.2.04.48.06,1.32.08,1.85.03.53-.04,1.13-.06,1.34-.06s.45-.05.55-.13c.09-.08.43-.13.74-.12.31,0,1.07.02,1.69.02s2.08,0,3.27.02c2.13.02,8.31-.18,9.13-.27.24-.03.59.03.8.11.53.19,1.15-.12,1.44-.75.15-.28.28-1.09.32-1.87.05-.76.12-1.43.16-1.49.12-.19-.48-.72-.87-.78-.22-.02-.44-.07-.48-.12-.28-.28-.42-4.65-.46-14.67-.05-10.71-.08-12.3-.33-15.96-.16-2.35-.03-6.18.23-6.14.1.03.17-.05.17-.16,0-.12.13-.2.27-.19.19.03.27-.14.35-.63.06-.49.24-.79.7-1.28.78-.8,1.25-2.16,1.27-3.67.04-.86-.03-1.13-.25-1.38-.25-.28-.27-.33-.04-.55ZM92.65,48.79c.31,0,.9-.06,1.31-.16.41-.09,1.96-.17,3.46-.18,1.5-.03,2.71-.09,2.71-.15,0-.05.22-.05.49,0,.27.06,1.08.09,1.83.06.73-.02,1.47-.05,1.62-.03.17,0,.95-.02,1.71-.04.78,0,1.86-.03,2.4-.04.52,0,1.03-.06,1.13-.12.03-.02.11-.03.23-.05v.03c.18,0,.46.02.73.06.44.08.9.12,1.02.12.12.01,1.07.05,2.11.1,1.23.06,1.92.03,1.99-.06.04-.09.2-.16.33-.16.37,0,.44,1.14.11,1.5-.21.25-.74.27-6.59.28-3.5,0-8.62.03-11.4.05-4.7.05-5.08.04-5.4-.22-.2-.15-.34-.44-.34-.64,0-.33.06-.38.55-.35ZM114.77,96.52c.06.04.12.31.15.6.08.68-.29,1.48-.71,1.51-.17.03-.55.05-.83.06-.29.02-1.25.08-2.15.13-2.67.17-5.09.24-7.24.23h-2.3c-.16,0-1.86.04-3.79.09-4.12.1-4.24.06-4.24-.98,0-.59.04-.68.33-.69.18,0,.43-.1.55-.2.12-.11.91-.21,1.9-.24.93-.03,2.42-.1,3.32-.14.9-.03,3.54-.11,5.88-.15,2.33-.06,4.67-.13,5.2-.17.97-.08,2.23-.11,3.05-.11h.01c.5,0,.84.02.87.06ZM97.16,70.61c.25.26.42.53.37.59-.11.19.71.27,2.45.23,1.79-.04,6.3-.04,8.69-.02,1.36.02,1.64-.03,1.76-.24.07-.13.11-.27.08-.31-.02-.04.08-.19.22-.36.28-.3.3-.56.3-3.5,0-3.47.05-5.12.14-5.12.06,0,.1-.72.1-1.59s.03-1.63.07-1.67c.03-.04.4-.09.82-.12.7-.06.77-.04.78.27,0,.18.04,1.78.06,3.56.03,1.78.08,3.88.12,4.67.06.78.14,3.03.18,4.97.05,1.94.09,3.64.09,3.77,0,.29-.02,2.54-.04,3.6,0,.47-.03,1,0,1.21.03.67.03,2.33,0,2.71-.05.92.07,3.17.18,3.24.07.04.07.27,0,.49-.06.23-.1,1.39-.07,2.59.07,5.69.1,5.47-.63,5.62-.98.21-1.16.11-1.2-.57-.02-.33-.06-1.48-.12-2.56-.04-1.07-.12-2.89-.17-4.06-.05-1.16-.1-2.76-.15-3.54-.03-.79-.06-1.64-.05-1.89.03-1.46.03-3.88-.03-5.77-.09-2.52-.16-2.64-1.17-2.46-.93.17-2.4.12-7.21-.21-.65-.04-1.99-.1-2.98-.12-.98-.03-1.9-.09-2.04-.15-.2-.09-.41.02-.8.42-.45.45-.52.61-.43.95.19.74.21.94.21,1.81,0,1.14-.11,4.82-.22,6.89-.16,2.73-.07,11.48.12,11.76.05.09.06.21,0,.27-.13.13-1.66.11-1.73-.04-.21-.34-.37-20.56-.26-31.05,0-.87.02-2.03.02-2.57s.05-1.68.05-2.55l.02-1.58.78-.06c.19-.02.33-.02.44-.02v.02c.25.24.39.11.55.47.39.97.5,2.29.52,6.46,0,.92-.09,3.84-.13,3.84,0,0-.04.27-.09.62-.05.55,0,.68.4,1.1ZM97.74,59.11c-.07-.42-.1-.78-.05-.82.03-.04,1.57-.06,3.52-.06,3.26,0,7.68.05,8.24.12l.77.09.06.68c.03.37.03.71,0,.72-.11.11-.32,4.46-.36,7.65-.03,2.09-.09,2.54-.26,2.58-.56.16-1.3.23-1.37.16-.06-.05-1.83-.08-3.94-.07-4.25,0-5.66-.08-6.06-.37-.25-.19-.26-.5-.26-3.49,0-1.81.02-3.39.03-3.51.06-.38-.17-2.88-.32-3.68ZM97.69,94.53c-.25-2.59-.36-8.39-.17-8.69.03-.07.11-2.27.17-4.91.07-3.96.06-4.82-.1-4.93-.17-.1-.17-.12,0-.12.11-.02.16-.06.12-.13-.15-.24.15-.49.58-.51h.44c1.41.02,5.39.19,5.72.25.16.03,1.48.11,2.9.17l2.61.11v.55c0,.29.03,1.52.07,2.72.03,1.2.07,2.49.04,2.86-.06,1.35.08,5.75.19,5.95.09.13.2,4.11.16,4.97-.04.59-.04,1.96.02,2.25.03.26-.07.32-.78.4-.45.06-1.61.15-2.59.2-.99.05-3.6.11-5.81.16-3.93.08-3.99.08-3.75-.2.21-.22.23-.46.18-1.1ZM115.29,55.03c-.16.16-.46.51-.71.77-.24.26-.47.68-.52.93-.08.37-.2.46-.66.54-.64.11-1.14.13-1.23.04-.03-.03-3.31-.11-7.31-.16-8.62-.13-9.46-.16-9.85-.52-.35-.31-.95-.71-1.71-1.16-.67-.41-.87-.81-1.06-2.12-.08-.56-.18-1.24-.23-1.5-.08-.47-.07-.49.55-.57.36-.05,1.89-.12,3.4-.17,3.31-.11,2.94-.11,4.35,0,.63.05,1.18.02,1.22-.04.03-.06,1.24-.08,2.63-.07h0c1.39-.01,2.99.02,3.81.09,2.02.14,7.35.21,7.44.08.04-.07.19-.13.35-.13.73,0,.38,3.02-.47,3.99Z"/>
          <path class="cls-2" d="M79.09,49.56c-.03-.79,0-.97-1.25-.97h-.03c-.41.01-.97.03-1.72.06-1.49.06-3.07.12-3.52.17-.45.03-2.72.1-5.06.13-2.32.03-6.61.11-9.52.15-7.17.11-8.53.21-8.78.68-.18.35-.19.9-.02.9.07,0,.1.4.05.87-.04.48-.06,1.04-.05,1.24,0,.21.02.52.02.68,0,.27.78,2.02,1.07,2.41.89,1.17,1.19,1.71,1.46,2.62.3.97.3,1.08.08,1.3-.28.3-.29.62-.03.78.12.07.26.46.32.87.12.77.24,6.73.23,11.14-.02,9.31,0,11.07.08,11.6.14.76.14,3.67-.02,5.01-.15,1.5-.24,2.77-.22,3.19,0,.21.03.51.03.65s-.03.52-.03.83-.08.92-.17,1.35c-.18.8-.24.86-.98.8-.5-.04-.79.81-.72,2.23.02.64.1,1.26.15,1.4.1.22.59.49.86.44.06,0,.12.05.12.12,0,.08.28.17.63.2.65.04,18.62-.01,22.33-.08q2.56-.04,2.41-1.83c-.06-.67-.11-1.58-.12-2.04l-.03-.82-.6-.06-.6-.03v-1.91c0-1.05-.04-2.7-.05-3.65-.02-.96-.02-1.84-.02-1.95v-1.06c0-.46.02-2.28.04-4.06.04-1.79,0-3.52-.04-3.85-.32-1.79-.45-11.32-.22-16.03.07-1.29.12-2.43.12-2.53,0-.13.13-.18.3-.14.15.05.5-.02.78-.13.49-.21.49-.22.35-.86-.23-1.06-.05-1.6.9-2.53.64-.65.91-1.05,1.17-1.81.35-1.02.45-2.46.17-2.63-.11-.07-.1-.15.04-.22.17-.11.17-.18.02-.32-.26-.26-.22-.44.07-.32.22.08.23-.01.13-.65-.07-.4-.12-1.01-.13-1.34ZM50.13,51.93c-.06-.09-.09-.44-.05-.77.04-.58.07-.6.66-.69.34-.05,2.58-.07,4.97-.06,2.38,0,4.39-.02,4.48-.08.09-.05,1.32-.1,2.73-.09,3.73.04,5.71,0,6.9-.08,1.64-.14,4.28-.26,5.42-.28h0c.16-.01.29,0,.38,0,.42.02,1.05.04,1.43.05.58.02.71.07.85.4.35.77.24.96-.53.98-.39,0-.87.02-1.08.05-.43.06-3.72.22-6.33.31-.98.03-2.74.1-3.93.16-2.39.08-2.35.08-2.77.06-.38-.02-3.87.09-6.69.21-1.23.05-2.76.12-3.41.15-1.47.07-2.89-.07-3.03-.32ZM75.15,96.8c.4.28.8,1.46.54,1.63-.09.06-.14.18-.09.26.22.35-.43.46-3.25.57-3.42.12-9.43.2-9.5.12-.03-.03-2.57-.08-5.65-.09-3.07-.03-5.63-.09-5.69-.14-.17-.18-.26-1.89-.1-1.99.19-.12,1.5-.13,5.76-.05,2.4.04,4.65,0,6.84-.16,1.8-.13,4.54-.25,6.1-.27,1.56-.02,3.25-.04,3.77-.07h.23c.49,0,.84.07,1.04.19ZM53.46,72.17c0-3.48-.1-10.38-.16-10.69-.04-.27.05-.32.94-.38,1.33-.1,1.51-.06,1.3.33-.21.39-.42,3.75-.24,3.98.07.11.05.22-.03.27-.09.06-.16.47-.15.89v2.4c-.02.91.03,1.84.08,2.08.06.26.02.54-.09.66-.14.17-.12.28.08.48.16.16.22.39.16.66-.05.28.02.48.2.66.25.23.97.25,7.98.25,5.47,0,7.75-.04,7.81-.17.06-.09.08-.94.06-1.88-.04-1.22.02-1.94.17-2.49.14-.48.19-.94.12-1.18-.05-.22-.1-.45-.07-.52.09-.41.16-2.45.17-4.58v-2.43l.04-.04h1.13c1.16,0,1.2.04,1.14.76-.05.54-.21,7.86-.2,9.04.02,2.9.2,7.6.28,7.75.06.08.11,2.32.14,4.98.02,2.64.04,6.13.05,7.75.03,1.62.03,3.07,0,3.23-.02.17-.02.41-.02.54,0,.18-.08.8-.13,1.05-.03.1-2.35.1-2.45,0-.13-.13-.38-4.28-.45-7.3-.02-.92-.06-1.73-.09-1.8-.03-.09-.02-.53.05-.99.11-.83.2-2.43.31-5.04.07-1.45-.18-3.64-.44-3.95-.08-.1-.24-.29-.36-.43-.15-.18-.35-.22-.84-.14-1.13.18-3.31.23-6.39.21-1.64-.02-3.21-.02-3.5,0-3.01.12-3.59.18-3.94.41-.2.14-.38.37-.39.5,0,.13-.04.61-.06,1.07-.02.45-.07,1.64-.13,2.64-.05,1-.13,3.13-.16,4.74-.04,1.61-.08,3.48-.09,4.14-.02.66,0,1.45,0,1.73.02.3,0,1.17-.05,1.95-.06,1.12-.04,1.5.14,1.77.23.36.67.45.87.2h.01s.01-.02.02-.03c.02-.03.04-.33.06-.81l.02-.27c.03-.89.06-2.23.08-3.7.05-5.61.12-8.37.26-10.89.1-1.72.15-1.95.41-2.09.33-.18,2.08-.29,4.73-.29,4.88,0,7.11-.06,8.05-.2.68-.11.69-.1.76.31.03.25.01.59-.03.78-.06.2-.06.75,0,1.22.04.47.03,1.09-.04,1.37-.06.29-.15,1.54-.19,2.78-.04,1.24-.09,2.47-.12,2.71-.11.95.23,6.17.4,6.29.12.07.12.11-.03.11-.13,0-.19.28-.18,1.01,0,.55.02,1.08-.02,1.17-.02.09.02.27.08.42.06.15.09.3.05.34-.05.05-.59.1-4.21.29-.66.05-1.36.11-1.57.16-.37.09-5.62.14-8.61.11-.88,0-1.57-.02-1.88-.04l-1.04-.07-.03-2.41c-.03-1.32.03-2.78.12-3.24.08-.45.16-1.93.15-3.31-.02-2.21-.04-9.53-.04-14.83ZM56.3,62.02c-.11-.53-.16-.98-.11-1,.09-.05,3.15-.18,8.13-.32,1.55-.04,3.57-.11,4.48-.14l1.65-.08.11.56c.23,1.15.13,6.63-.14,8.24-.05.33-.13,1-.14,1.49-.04.51-.06,1.07-.07,1.24-.02.29-.13.34-.87.43-.47.06-2.17.11-3.77.15-1.59.02-3,.08-3.13.14-.13.05-.26.06-.3.02-.04-.05-1.23-.11-2.65-.16-1.41-.04-2.71-.14-2.86-.23-.32-.17-.31-.14-.29-5.26,0-1.69.03-3.31.08-3.61.04-.29,0-.96-.12-1.47ZM77.58,55.07c-.44.85-.83,1.26-1.37,1.48-.37.17-.81,1.38-.81,2.23,0,.35-.07.65-.15.65s-.15-.07-.15-.14c0-.18-.54-.3-.7-.15-.11.11-.71.15-1.97.12-.29,0-1.12.03-1.87.06-.73.04-3.31.12-5.73.17-2.41.06-4.62.14-4.9.19-.29.04-1.91.1-3.6.12l-3.07.04.03-.48c0-.26-.1-.71-.23-1-.13-.28-.27-.72-.31-.98-.04-.25-.15-.63-.26-.83-.16-.34-.88-1.09-1.13-1.2-.15-.07-1-1.65-.92-1.72.03-.03,1.52-.08,3.34-.12,1.79-.05,3.73-.12,4.3-.16.57-.04,2.71-.12,4.75-.17s3.75-.12,3.82-.16c.07-.04,1.82-.11,3.89-.15,2.06-.05,4.19-.1,4.73-.13,1.06-.06,1.71-.09,2.12-.1h.01c.65,0,.63.07.69.33.14.54,0,1.17-.51,2.1Z"/>
          <path class="cls-2" d="M38.13,49.54h-.03c-.41,0-.97.02-1.72.06-1.48.05-3.06.13-3.51.16-.45.05-2.73.1-5.06.14-2.33.04-6.62.1-9.53.16-7.17.11-8.53.21-8.78.68-.18.35-.19.9-.02.9.07,0,.1.39.05.87-.03.47-.06,1.03-.05,1.23,0,.21.02.52.02.69,0,.26.79,2.01,1.08,2.4.88,1.17,1.18,1.71,1.45,2.61.29.99.3,1.09.09,1.31-.29.29-.3.62-.03.79.11.06.25.45.32.86.11.76.23,6.73.23,11.15-.04,9.31-.01,11.06.09,11.59.13.77.12,3.67-.04,5.01-.15,1.51-.24,2.77-.22,3.19,0,.21.03.51.03.65s-.03.52-.03.84c0,.3-.07.91-.17,1.35-.17.8-.24.85-.97.8-.51-.05-.8.81-.73,2.21.02.64.1,1.28.15,1.41.1.23.59.48.87.45.05,0,.12.04.12.12s.27.16.62.19c.65.05,18.62,0,22.33-.07q2.56-.04,2.42-1.84c-.06-.66-.12-1.57-.13-2.04l-.03-.83-1.2-.09v-1.9c0-1.06-.02-2.7-.04-3.66-.03-.94-.03-1.82-.03-1.94v-1.07c0-.45.02-2.27.05-4.06.03-1.77.01-3.51-.05-3.84-.32-1.78-.44-11.32-.21-16.03.06-1.28.11-2.43.12-2.54,0-.12.12-.17.29-.12.16.03.51-.02.79-.13.48-.21.48-.22.35-.86-.24-1.07-.06-1.6.89-2.53.66-.66.91-1.06,1.17-1.82.1-.29.13-.6.19-.92v-1.68s-.01-.03-.02-.03c-.1-.07-.09-.13.02-.21v-.4c-.12-.16-.11-.24,0-.24v-2.65c0-.26-.37-.33-1.14-.32ZM10.42,52.88c-.07-.09-.08-.44-.05-.77.05-.57.09-.6.68-.68.34-.05,2.57-.08,4.95-.07,2.38,0,4.4-.02,4.5-.08.08-.06,1.31-.1,2.73-.09,3.71.03,5.7.01,6.88-.08,1.65-.13,4.28-.27,5.41-.28.16,0,.3.01.4.01.41.02,1.04.02,1.43.03.57.02.7.08.84.41.36.76.25.96-.52.97-.4,0-.88.04-1.08.06-.43.06-3.72.23-6.33.32-.99.03-2.75.09-3.94.14-2.39.1-2.34.1-2.75.07-.4-.02-3.89.09-6.71.21-1.23.06-2.76.12-3.41.16-1.47.06-2.88-.09-3.03-.33ZM35.44,97.75c.42.28.8,1.47.54,1.63-.09.05-.13.18-.09.26.22.35-.44.46-3.25.56-3.42.13-9.42.21-9.5.12-.02-.02-2.57-.06-5.64-.08-3.08-.03-5.64-.08-5.7-.14-.16-.17-.26-1.88-.11-1.98.2-.12,1.51-.13,5.78-.06,2.39.05,4.64,0,6.83-.16,1.8-.13,4.55-.24,6.1-.27,1.56-.02,3.25-.05,3.77-.06h.23c.49-.01.85.06,1.04.18ZM13.79,87.95c-.02-2.22-.04-9.54-.04-14.84,0-3.48-.1-10.38-.16-10.69-.04-.27.06-.3.94-.37,1.33-.11,1.51-.06,1.3.32-.21.39-.42,3.76-.24,3.99.08.1.07.21-.03.28-.09.05-.15.45-.15.88v2.41c-.02.9.04,1.83.08,2.07.06.27.02.54-.09.66-.14.18-.12.27.08.47.16.17.22.4.16.67-.05.29.02.49.21.66.25.23.97.25,7.97.25,5.48,0,7.75-.05,7.81-.17.06-.09.08-.95.06-1.89-.03-1.22.02-1.94.17-2.49.15-.47.2-.93.12-1.17-.05-.22-.09-.45-.07-.53.1-.41.17-2.45.17-4.58v-2.43l.04-.02h1.13c1.15,0,1.19.02,1.14.74-.06.54-.21,7.87-.2,9.04.02,2.9.18,7.61.28,7.76.05.08.11,2.32.13,4.97.03,2.65.05,6.14.07,7.76.02,1.61.02,3.06,0,3.23-.03.16-.03.4-.03.53,0,.19-.07.8-.13,1.06-.03.09-2.35.09-2.45,0-.12-.14-.37-4.28-.44-7.3-.03-.91-.07-1.73-.1-1.81-.03-.09-.02-.53.05-.98.1-.82.21-2.43.32-5.05.06-1.44-.19-3.64-.45-3.93-.07-.1-.24-.31-.35-.44-.16-.19-.36-.22-.86-.15-1.12.18-3.31.25-6.38.22-1.63-.02-3.21-.02-3.5,0-3.01.11-3.59.17-3.93.4-.21.14-.39.37-.4.5,0,.13-.04.62-.06,1.08-.02.45-.07,1.63-.12,2.63-.05.99-.13,3.13-.17,4.74s-.08,3.48-.09,4.14c-.03.67,0,1.45,0,1.73.02.3,0,1.18-.06,1.95-.06,1.13-.03,1.51.15,1.78.2.31.58.43.8.28.04-.03.07-.07.1-.11.06-.1.13-2.26.15-4.79.06-5.6.13-8.37.28-10.89.09-1.71.14-1.94.41-2.09.33-.17,2.07-.28,4.72-.28,4.87,0,7.1-.07,8.05-.21.67-.11.69-.1.75.32.03.24.02.59-.02.79-.05.2-.05.73,0,1.2.04.48.03,1.09-.04,1.38-.06.28-.15,1.53-.18,2.77-.05,1.24-.1,2.47-.12,2.71-.11.96.22,6.17.39,6.29.13.08.13.11-.02.12-.14,0-.19.29-.18,1.01,0,.56,0,1.08-.02,1.16-.03.08.01.28.07.42.06.15.09.31.05.34-.05.05-.59.1-4.21.3-.66.04-1.36.11-1.57.15-.37.09-5.58.16-8.58.12-.9,0-1.59-.01-1.91-.04l-1.03-.08-.03-2.41c-.03-1.32.03-2.78.12-3.24.09-.45.15-1.93.14-3.3ZM16.6,62.96c-.11-.53-.16-.97-.12-1,.1-.05,3.15-.17,8.13-.31,1.56-.05,3.56-.11,4.49-.15l1.65-.06.11.55c.22,1.15.12,6.62-.15,8.24-.05.31-.12.99-.14,1.5-.02.5-.06,1.05-.07,1.23-.02.28-.13.34-.86.43-.48.04-2.18.11-3.77.14-1.6.02-3,.1-3.14.15-.12.06-.26.06-.29.01-.05-.04-1.24-.11-2.66-.15-1.41-.04-2.71-.14-2.86-.23-.32-.18-.3-.13-.29-5.26,0-1.7.04-3.32.08-3.62.04-.28.01-.95-.11-1.47ZM37.89,56.01c-.45.85-.84,1.27-1.38,1.49-.37.16-.82,1.37-.82,2.24,0,.35-.06.63-.14.63-.09,0-.15-.05-.15-.13,0-.18-.55-.31-.7-.16-.12.12-.72.15-1.98.12-.29,0-1.12.03-1.86.06-.73.05-3.31.12-5.72.18-2.42.05-4.62.14-4.91.19-.28.05-1.92.09-3.61.12l-3.07.05.03-.49c0-.27-.1-.72-.23-1-.13-.29-.27-.73-.3-.99-.04-.25-.15-.62-.26-.82-.16-.34-.88-1.1-1.13-1.22-.15-.06-1-1.63-.93-1.7.03-.03,1.53-.09,3.34-.13,1.79-.05,3.73-.11,4.31-.16.57-.04,2.71-.11,4.74-.16,2.04-.04,3.76-.12,3.83-.16.07-.05,1.81-.11,3.88-.15,2.06-.04,4.2-.1,4.73-.13,1.06-.06,1.71-.11,2.12-.11h.02c.65,0,.63.08.69.33.14.54,0,1.17-.5,2.1Z"/>
          <path class="cls-2" d="M33.04,114.45c.07-.1.16-.66.18-1.25.04-1.13-.14-1.53-.64-1.53-.16,0-.29-.1-.29-.22,0-.11-.11-.25-.25-.32-.15-.07-2.91-.14-6.15-.16-3.22-.02-8.24-.07-11.12-.11-.92-.02-1.69-.02-2.36-.02v.03c-2.01,0-2.89.03-2.89.11,0,.12-.05.12-.16,0-.2-.2-.96,0-1.31.34-.13.12-.39.35-.57.49-.25.21-.32.44-.34,1.02-.03,1.05-.02,1.08.24,1.34.23.23.22.28-.03.56-.23.25-.28.53-.26,1.38.02,1.51.49,2.87,1.28,3.68.46.47.63.78.69,1.27.07.48.15.65.35.63.14-.01.26.07.26.19,0,.11.08.19.18.17.25-.05.4,3.79.23,6.13-.24,3.67-.28,5.25-.33,15.97-.04,10.01-.17,14.38-.46,14.67-.03.03-.26.09-.48.12-.4.04-.98.58-.86.78.04.05.1.71.16,1.47.04.79.16,1.6.3,1.88.3.63.91.95,1.45.74.21-.08.57-.13.8-.11.83.1,7,.31,9.13.28,1.19-.03,2.67-.04,3.28-.04s1.37-.02,1.68-.02c.32-.01.65.05.75.12.1.09.34.14.54.14.21-.01.81.02,1.33.06.54.04,1.38.03,1.87-.02.49-.07,1.02-.09,1.18-.06.17.04.53-.1.82-.3.49-.37.51-.45.46-1.1-.03-.4-.06-1.26-.06-1.93l-.03-1.21h-.45c-.55,0-.54.12-.5-3.69.01-4.71,0-5.12-.11-5.39-.17-.38-.16-.51.03-1,.23-.59.34-7.56.22-12.27,0-.7.01-1.72.06-2.26.05-.55.04-1.2-.04-1.46-.07-.28-.08-.53,0-.58.13-.08.13-1.28,0-1.28-.06,0-.09-.92-.07-2.04.01-1.11-.01-2.03-.07-2.03-.12,0-.09-3.81.05-5.11.06-.54.1-1.13.12-1.33.02-.18.19-.43.4-.53.91-.49,1.62-1.42,1.73-2.27.02-.26.12-.98.22-1.63.14-.99.13-1.23-.08-1.64-.15-.32-.19-.53-.08-.66ZM8.51,111.98c.15,0,.3.06.35.15.06.1.75.12,1.98.07,1.04-.06,2-.09,2.12-.09s.58-.07,1.02-.14c.27-.05.53-.07.72-.07h0c.12-.01.2,0,.24.02.09.07.61.12,1.13.12.54.01,1.62.03,2.38.03.78.04,1.55.05,1.72.05.16,0,.9.02,1.63.04.73.04,1.56,0,1.83-.05.27-.06.49-.06.49,0,0,.05,1.22.12,2.71.14,1.49.01,3.05.1,3.45.19.42.1,1,.15,1.31.15.5-.02.56.01.56.34,0,.21-.15.5-.35.66-.32.25-.7.26-5.39.22-2.78-.02-7.91-.06-11.41-.06-5.85-.01-6.37-.03-6.59-.27-.32-.36-.25-1.5.1-1.5ZM30.59,161.95c0,1.05-.12,1.07-4.25.97-1.92-.04-3.62-.08-3.78-.08h-2.32c-2.14,0-4.55-.07-7.22-.23-.9-.05-1.86-.11-2.15-.13s-.67-.03-.84-.05c-.41-.04-.79-.84-.72-1.52.04-.27.1-.54.16-.6.03-.03.38-.06.88-.06.83,0,2.09.05,3.05.12.53.04,2.88.11,5.21.16,2.33.04,4.98.11,5.88.15.9.05,2.39.11,3.32.15.99.04,1.78.13,1.9.23s.36.21.55.21c.29.01.33.08.33.68ZM10.91,147.07c-.04-.39-.04-2.04,0-2.71.02-.21,0-.75,0-1.21-.03-1.05-.05-3.31-.05-3.61,0-.12.05-1.82.09-3.76.04-1.95.12-4.2.17-4.97.05-.79.11-2.9.14-4.68.02-1.79.05-3.38.05-3.57.01-.3.08-.31.78-.26.42.03.79.09.82.13s.07.78.07,1.66.04,1.59.1,1.59c.09,0,.14,1.66.14,5.13.01,2.94.03,3.2.3,3.5.14.16.24.31.22.35-.03.03.02.17.1.31.1.21.39.26,1.74.23,2.39-.02,6.9,0,8.69.04,1.74.03,2.56-.04,2.45-.23-.05-.07.13-.33.38-.58.38-.42.44-.56.38-1.11-.04-.35-.08-.63-.08-.63-.04,0-.14-2.92-.14-3.84.03-4.17.14-5.48.53-6.45.15-.36.21-.47.54-.47v-.02c.12,0,.26,0,.44.02l.78.04.04,1.58c0,.88.03,2.03.03,2.57s.03,1.69.03,2.57c.11,10.49-.05,30.7-.26,31.04-.07.14-1.59.16-1.72.03-.07-.05-.05-.17,0-.26.18-.29.26-9.02.11-11.75-.11-2.08-.22-5.75-.22-6.89,0-.88.02-1.08.21-1.81.09-.34.02-.51-.43-.96-.39-.39-.6-.52-.8-.43-.14.07-1.06.13-2.04.17-.99.02-2.32.07-2.97.12-4.81.33-6.28.36-7.21.19-1.02-.18-1.09-.06-1.18,2.47-.05,1.88-.06,4.33-.03,5.79.01.24,0,1.08-.06,1.87-.03.78-.11,2.37-.15,3.54-.04,1.16-.13,2.98-.17,4.06-.06,1.08-.09,2.24-.11,2.56-.04.7-.22.77-1.2.56-.73-.15-.7.08-.62-5.6.02-1.2-.03-2.37-.08-2.59-.08-.23-.07-.45,0-.5.11-.06.23-2.3.19-3.23ZM26.19,126.58c.01.12.03,1.7.03,3.51,0,3-.02,3.31-.26,3.48-.41.31-1.81.37-6.07.37-2.12,0-3.87.04-3.93.09-.07.08-.82-.02-1.37-.16-.18-.06-.23-.49-.26-2.58-.05-3.2-.25-7.54-.36-7.65-.04-.03-.04-.36,0-.73l.05-.66.78-.1c.56-.08,4.97-.12,8.23-.12h.01c1.95,0,3.49,0,3.52.05.05.05.02.42-.05.83-.16.8-.37,3.31-.32,3.67ZM13.84,156.62c-.05-.85.06-4.85.15-4.98.11-.18.25-4.6.18-5.94-.02-.38.02-1.66.05-2.86.04-1.2.08-2.43.08-2.73v-.54l2.6-.11c1.42-.06,2.74-.13,2.92-.16.32-.07,4.28-.23,5.7-.25h0s.44-.01.44-.01c.43.02.71.28.58.51-.04.07,0,.12.12.12.17,0,.17.02,0,.13-.16.1-.18.96-.1,4.92.05,2.64.12,4.84.17,4.9.17.3.06,6.11-.17,8.7-.06.63-.03.87.18,1.1.24.28.17.29-3.75.21-2.21-.04-4.82-.12-5.81-.18-.97-.04-2.15-.12-2.6-.18-.7-.09-.81-.14-.78-.4.06-.29.07-1.64.04-2.25ZM32.24,115.64c-.05.26-.16.95-.24,1.51-.19,1.3-.39,1.72-1.05,2.11-.77.46-1.36.87-1.71,1.17-.39.36-1.23.4-9.85.51-4,.06-7.28.13-7.31.17-.09.08-.6.06-1.24-.05-.45-.07-.57-.15-.65-.54-.05-.24-.3-.66-.54-.92-.23-.26-.53-.61-.69-.78-.85-.96-1.21-3.98-.47-3.98.15,0,.31.06.35.12.08.13,5.42.09,7.43-.06.83-.07,2.42-.11,3.82-.11s2.59.03,2.62.08c.04.07.59.08,1.22.04,1.41-.1,1.04-.1,4.34,0,1.52.04,3.05.13,3.4.17.64.09.65.09.57.56Z"/>
          <path class="cls-2" d="M47.23,116.51c.04,1.51.51,2.86,1.29,3.67.46.48.64.79.7,1.28.07.49.15.65.35.63.14-.01.25.07.25.19,0,.11.08.19.19.17.24-.05.38,3.78.23,6.13-.25,3.66-.28,5.25-.34,15.96-.04,10.02-.17,14.39-.46,14.67-.04.05-.25.1-.47.12-.41.06-.99.58-.87.78.04.06.1.73.14,1.48.05.79.19,1.59.32,1.88.3.63.92.96,1.45.75.21-.08.58-.13.81-.11.82.1,6.99.29,9.13.27,1.19-.02,2.65-.02,3.26-.02s1.38-.02,1.7-.02c.31-.01.65.04.74.13.09.08.34.12.54.12s.81.02,1.34.07c.53.04,1.37.02,1.87-.04.48-.06,1.02-.07,1.18-.03.17.03.53-.11.82-.33.48-.35.5-.43.46-1.1-.04-.39-.08-1.25-.08-1.92l-.03-1.2h-.44c-.55,0-.54.1-.52-3.69.03-4.72,0-5.13-.1-5.4-.16-.37-.15-.5.04-1,.23-.58.35-7.57.23-12.28-.02-.7,0-1.71.05-2.24.06-.54.04-1.21-.04-1.48-.07-.27-.07-.52,0-.57.14-.08.14-1.28,0-1.28-.06,0-.09-.91-.07-2.03s-.01-2.02-.06-2.02c-.13,0-.09-3.84.04-5.14.07-.53.11-1.12.13-1.31.01-.2.18-.42.39-.54.92-.48,1.63-1.41,1.73-2.27.03-.25.13-.99.22-1.62.14-.99.13-1.24-.07-1.65-.16-.33-.19-.53-.09-.65.07-.11.16-.67.18-1.25.03-1.13-.14-1.55-.64-1.55-.16,0-.29-.09-.29-.2,0-.12-.12-.27-.27-.33-.14-.07-2.89-.13-6.12-.17-3.23-.01-8.25-.06-11.13-.1-.93-.02-1.71-.02-2.36-.02v.02c-2-.01-2.89.03-2.89.11,0,.12-.05.12-.16,0-.2-.19-.95-.01-1.3.33-.13.13-.39.35-.58.5-.25.2-.32.44-.34,1.02-.02,1.04-.02,1.07.25,1.35.22.23.21.26-.04.55-.22.25-.29.52-.27,1.38ZM70.74,162.36c0,1.05-.11,1.08-4.25.98-1.92-.05-3.62-.09-3.78-.09h-2.32c-2.14.01-4.55-.07-7.21-.23-.9-.05-1.87-.11-2.16-.13-.28-.01-.66-.03-.83-.06-.42-.03-.8-.83-.73-1.51.03-.28.11-.55.16-.59.04-.03.38-.07.88-.07h0c.84,0,2.1.04,3.05.11.53.05,2.88.12,5.22.17,2.32.04,4.97.12,5.87.15.9.04,2.4.11,3.32.14,1,.04,1.77.13,1.9.24.12.1.36.2.55.2.28.02.33.1.33.69ZM51.05,147.46c-.03-.38-.02-2.03,0-2.71.03-.19,0-.75,0-1.19,0-1.07-.04-3.33-.04-3.63.01-.12.04-1.82.09-3.76.04-1.94.12-4.18.17-4.96.05-.79.11-2.9.14-4.68.02-1.78.04-3.38.04-3.56.02-.31.08-.33.78-.26.43.03.8.08.83.12.03.04.07.79.07,1.67s.04,1.59.1,1.59c.09,0,.14,1.65.14,5.12,0,2.93.02,3.19.29,3.5.15.15.25.32.23.35-.04.03,0,.18.08.31.12.21.4.26,1.76.24,2.39-.02,6.9,0,8.68.02,1.75.04,2.57-.03,2.46-.22-.05-.06.13-.34.38-.59.38-.42.44-.56.37-1.11-.03-.34-.07-.62-.07-.62-.04,0-.13-2.92-.13-3.84.02-4.17.13-5.49.52-6.46.15-.36.31-.23.54-.47h.01c.11-.01.25-.02.44.01l.77.05.03,1.58c.01.86.03,2.03.03,2.57s.02,1.69.02,2.55c.12,10.5-.04,30.71-.24,31.05-.08.15-1.59.17-1.73.04-.06-.06-.06-.18,0-.27.18-.28.26-9.02.12-11.76-.12-2.07-.23-5.75-.23-6.88.01-.88.04-1.07.23-1.81.09-.34.01-.5-.44-.95-.39-.4-.6-.52-.8-.43-.14.06-1.07.13-2.04.15-.99.03-2.33.08-2.98.12-4.8.33-6.28.38-7.2.21-1.03-.19-1.09-.07-1.18,2.47-.06,1.88-.06,4.31-.03,5.77,0,.24-.01,1.1-.06,1.88-.03.79-.1,2.38-.15,3.54-.04,1.17-.12,2.99-.18,4.06-.04,1.08-.08,2.24-.12,2.57-.02.68-.2.77-1.19.56-.73-.15-.69.08-.62-5.61.02-1.2-.01-2.37-.07-2.6-.07-.22-.07-.45,0-.48.11-.08.24-2.32.18-3.25ZM66.33,126.99c.01.13.04,1.71.04,3.52,0,2.99-.02,3.29-.26,3.48-.41.29-1.81.37-6.06.37-2.12,0-3.89.03-3.94.08-.08.07-.81-.01-1.37-.17-.19-.04-.23-.49-.26-2.58-.05-3.19-.25-7.53-.35-7.64-.04-.03-.03-.35,0-.73l.05-.67.76-.09c.57-.08,4.99-.13,8.25-.13,1.95,0,3.49.02,3.53.06.05.04.01.42-.07.82-.15.8-.37,3.32-.32,3.68ZM53.99,157.02c-.05-.85.06-4.84.14-4.97.12-.2.27-4.6.19-5.95-.01-.37,0-1.65.05-2.86.04-1.2.06-2.43.07-2.72v-.54l2.61-.11c1.42-.06,2.74-.13,2.91-.17.32-.06,4.3-.24,5.72-.26h.42c.43.02.73.29.59.52-.04.06.01.12.12.12.17.01.17.03,0,.13-.16.11-.17.96-.1,4.93.06,2.63.12,4.83.17,4.9.17.3.07,6.1-.17,8.69-.06.64-.02.88.18,1.1.25.28.16.28-3.77.19-2.19-.04-4.8-.11-5.78-.15-.99-.04-2.16-.14-2.61-.2-.7-.08-.81-.14-.77-.4.05-.29.07-1.65.03-2.25ZM48.67,112.38c.13,0,.29.07.34.16.07.09.76.12,1.99.05,1.03-.04,1.97-.09,2.09-.09.14,0,.6-.05,1.04-.13.27-.04.54-.06.73-.06v-.02c.11.02.2.03.23.05.09.05.6.12,1.14.12.53.01,1.6.03,2.38.03.78.02,1.54.03,1.71.03.16,0,.91.02,1.64.04.73.03,1.56,0,1.82-.06.27-.05.47-.05.47,0,0,.06,1.23.12,2.73.15,1.49.01,3.06.1,3.46.19.41.09.99.15,1.3.15.5-.02.56.02.56.35,0,.21-.16.49-.34.64-.33.27-.7.28-5.4.24-2.78-.03-7.91-.06-11.4-.06-5.86-.01-6.38-.03-6.6-.27-.32-.37-.24-1.51.11-1.51ZM48.64,115.24c.15,0,.32.06.36.13.08.13,5.41.07,7.42-.08.83-.05,2.43-.1,3.83-.1h0c1.39,0,2.58.03,2.61.09.05.06.59.08,1.23.03,1.39-.1,1.03-.11,4.34,0,1.52.05,3.04.13,3.39.18.64.08.66.08.57.56-.05.26-.16.94-.24,1.5-.18,1.31-.39,1.71-1.06,2.12-.76.45-1.35.85-1.69,1.16-.41.36-1.23.4-9.87.52-3.98.05-7.27.13-7.3.16-.09.09-.61.07-1.24-.04-.46-.08-.56-.17-.65-.54-.06-.25-.3-.67-.53-.93-.24-.25-.56-.6-.7-.77-.85-.97-1.2-3.99-.47-3.99Z"/>
          <path class="cls-2" d="M106.4,113.31c-2.91-.05-7.19-.13-9.53-.16-2.33-.03-4.6-.09-5.06-.13-.44-.03-2.02-.11-3.51-.17-.75-.03-1.31-.04-1.73-.04h-.02c-1.25-.02-1.22.16-1.25.96,0,.32-.07.93-.13,1.34-.1.64-.08.72.13.64.3-.12.33.07.07.33-.15.14-.14.2.02.31.14.08.15.16.03.23-.27.17-.18,1.61.18,2.63.26.76.51,1.15,1.17,1.81.94.93,1.14,1.47.9,2.54-.14.63-.14.64.35.85.28.11.63.18.78.13.18-.04.28.01.28.12.02.11.07,1.27.14,2.55.23,4.71.09,14.24-.22,16.03-.05.33-.08,2.06-.05,3.84.03,1.79.05,3.61.05,4.07v1.06c0,.12,0,.99-.04,1.95-.01.94-.02,2.6-.03,3.64v1.92l-.6.03-.6.06-.02.82c-.02.46-.07,1.37-.13,2.03q-.15,1.8,2.4,1.85c3.71.06,21.7.12,22.34.06.34-.02.63-.11.63-.18,0-.08.05-.13.11-.13.27.04.77-.21.87-.44.06-.14.13-.77.15-1.4.07-1.41-.22-2.27-.73-2.23-.74.06-.8,0-.97-.8-.09-.43-.18-1.05-.18-1.36s-.02-.68-.02-.82.02-.44.02-.65c.02-.42-.06-1.69-.22-3.19-.14-1.34-.15-4.25-.02-5.02.09-.52.11-2.29.09-11.59,0-4.41.12-10.37.23-11.14.07-.42.2-.8.31-.87.27-.16.26-.49-.04-.78-.2-.22-.2-.34.09-1.31.28-.91.57-1.44,1.45-2.6.3-.4,1.09-2.15,1.09-2.42,0-.16.02-.47.02-.68.01-.21-.01-.76-.06-1.25-.03-.47-.01-.85.06-.85.17,0,.16-.55-.02-.9-.24-.48-1.6-.59-8.78-.69ZM112.99,161.38c.16.09.06,1.8-.12,1.98-.05.05-2.61.11-5.68.13-3.08.03-5.62.06-5.64.09-.09.08-6.09.01-9.5-.12-2.82-.1-3.47-.21-3.26-.56.05-.08,0-.21-.09-.26-.26-.17.13-1.35.55-1.63.19-.13.54-.18,1.04-.19h0s.22.01.22.01c.52.02,2.21.04,3.77.06,1.55.02,4.3.13,6.09.27,2.2.16,4.46.2,6.85.16,4.27-.08,5.58-.07,5.77.06ZM90.29,125.44c-.05-.72-.02-.76,1.14-.76h1.12l.03.02v2.45c0,2.13.09,4.16.19,4.58.01.08-.03.31-.09.52-.06.25-.02.71.12,1.18.16.55.21,1.27.18,2.49-.02.94,0,1.79.05,1.87.08.12,2.34.18,7.82.18,7,0,7.72-.02,7.96-.25.2-.18.27-.38.21-.66-.05-.27,0-.49.18-.66.19-.21.2-.31.06-.48-.11-.12-.14-.4-.09-.66.06-.24.11-1.17.08-2.07v-2.41c.01-.44-.05-.83-.14-.88-.09-.07-.1-.18-.02-.28.16-.23-.05-3.59-.26-3.98-.2-.39-.03-.44,1.31-.33.88.06.98.1.93.37-.05.31-.14,7.21-.14,10.69-.01,5.31-.03,12.62-.05,14.83-.01,1.37.05,2.85.14,3.32.09.46.15,1.92.13,3.23l-.03,2.42-1.04.08c-.31.02-.99.03-1.87.03-2.99.03-8.24-.02-8.61-.11-.21-.06-.91-.12-1.57-.16-3.63-.19-4.16-.24-4.22-.29-.04-.04-.01-.19.06-.34.05-.16.09-.34.06-.42-.02-.09-.02-.61-.02-1.17.01-.73-.03-1.01-.16-1.01-.16-.01-.16-.04-.02-.12.17-.11.49-5.32.38-6.28-.02-.25-.08-1.47-.12-2.71-.03-1.25-.12-2.49-.19-2.78-.06-.28-.07-.9-.03-1.37.04-.47.04-1.02,0-1.21-.04-.2-.06-.56-.02-.79.05-.42.06-.42.74-.32.95.15,3.18.21,8.06.21,2.65,0,4.4.11,4.73.29.27.14.3.36.4,2.07.15,2.53.22,5.3.28,10.91.02,2.52.1,4.68.15,4.77.03.04.06.08.1.1.22.17.59.06.8-.26.18-.27.21-.65.14-1.77-.05-.78-.07-1.65-.05-1.95,0-.28.02-1.06,0-1.73-.01-.66-.06-2.53-.09-4.14-.03-1.61-.11-3.75-.16-4.74-.06-1-.11-2.18-.14-2.63-.02-.46-.05-.95-.05-1.08-.01-.14-.19-.36-.4-.5-.35-.23-.93-.29-3.93-.41-.29-.02-1.87-.02-3.5,0-3.08.02-5.26-.04-6.39-.21-.5-.07-.69-.04-.85.14-.11.14-.27.33-.36.43-.25.3-.49,2.5-.44,3.95.11,2.6.22,4.22.32,5.04.08.45.08.9.04.99-.03.07-.07.89-.09,1.8-.07,3.02-.32,7.16-.44,7.3-.1.09-2.43.1-2.45,0-.07-.25-.13-.86-.13-1.06,0-.12,0-.36-.02-.53-.03-.16-.03-1.61,0-3.23.01-1.62.04-5.11.06-7.75.02-2.65.07-4.89.12-4.98.09-.16.27-4.85.29-7.75.01-1.17-.14-8.5-.2-9.04ZM107.97,127.7c.04.28.09,1.91.09,3.61.01,5.12.02,5.09-.3,5.27-.15.07-1.44.17-2.85.22-1.42.04-2.61.12-2.66.15-.04.04-.17.03-.31-.02-.13-.06-1.53-.12-3.12-.14-1.61-.04-3.29-.09-3.77-.15-.73-.08-.84-.14-.86-.42-.02-.18-.05-.73-.07-1.24-.02-.5-.09-1.17-.14-1.5-.28-1.61-.38-7.08-.16-8.24l.11-.55,1.66.08c.91.03,2.93.09,4.49.13,4.98.14,8.03.28,8.12.32.04.03-.01.48-.11,1.01-.12.52-.17,1.18-.12,1.47ZM113.04,119.55c-.26.11-.98.86-1.14,1.22-.11.19-.21.57-.26.82-.04.26-.17.7-.3.98-.13.29-.23.73-.23,1l.03.49-3.07-.05c-1.69-.02-3.32-.08-3.6-.13-.29-.04-2.49-.13-4.91-.18-2.41-.06-4.99-.13-5.73-.17-.73-.03-1.57-.06-1.86-.06-1.26.03-1.87,0-1.99-.13-.14-.15-.68-.03-.68.16,0,.07-.06.13-.15.13-.08,0-.15-.29-.15-.64,0-.85-.44-2.07-.81-2.22-.54-.23-.93-.65-1.38-1.5-.5-.93-.64-1.57-.5-2.1.06-.26.05-.33.69-.33h.01c.41.01,1.05.04,2.12.11.52.03,2.67.09,4.73.13,2.07.04,3.81.11,3.88.15.08.05,1.79.11,3.83.16,2.03.05,4.17.13,4.74.17.57.03,2.51.11,4.31.16,1.8.04,3.31.09,3.34.13.07.06-.78,1.63-.92,1.7ZM114.27,116.13c-.15.25-1.56.39-3.03.32-.66-.02-2.2-.09-3.43-.14-2.82-.12-6.29-.23-6.69-.21-.41.03-.36,0-2.75-.08-1.19-.05-2.97-.11-3.94-.15-2.62-.09-5.9-.25-6.33-.31-.2-.03-.7-.05-1.09-.05-.77-.01-.88-.21-.53-.98.15-.33.28-.38.86-.4.37-.01,1.02-.01,1.43-.04.1,0,.23-.02.39-.01h0c1.14.03,3.76.16,5.41.29,1.19.09,3.17.11,6.89.08,1.42-.02,2.65.03,2.73.08.1.07,2.12.08,4.5.08,2.38,0,4.61.02,4.95.08.59.08.62.1.67.67.03.32.01.68-.04.77Z"/>
          <path class="cls-2" d="M115.02,175.99c.27-.27.28-.29.24-1.35-.02-.58-.09-.81-.35-1.01-.17-.14-.42-.37-.56-.5-.35-.34-1.11-.53-1.3-.32-.12.11-.18.12-.18,0,0-.09-.86-.13-2.86-.12v-.03c-.68,0-1.46,0-2.38.03-2.89.03-7.89.08-11.12.1-3.23.03-6,.1-6.14.16-.14.07-.25.21-.25.32,0,.12-.14.22-.29.22-.5,0-.68.42-.65,1.55.03.58.1,1.14.19,1.24.1.12.07.33-.09.65-.21.41-.22.65-.07,1.65.08.63.18,1.37.21,1.62.1.86.82,1.79,1.74,2.28.21.11.37.34.39.53.03.19.07.77.12,1.32.14,1.28.18,5.12.05,5.12-.05,0-.09.91-.08,2.03.02,1.12,0,2.03-.06,2.03-.12,0-.12,1.2,0,1.29.08.04.07.29,0,.57-.07.26-.09.92-.04,1.46.04.53.07,1.56.06,2.26-.12,4.7,0,11.69.23,12.27.18.49.18.62.02,1-.11.27-.11.67-.1,5.4.03,3.8.03,3.68-.51,3.68h-.44l-.04,1.22c0,.66-.03,1.52-.06,1.92-.06.67-.03.73.46,1.1.28.2.65.34.81.31.17-.03.7-.02,1.2.04.49.06,1.32.08,1.86.04.53-.05,1.12-.07,1.33-.05.21,0,.45-.06.55-.15.1-.08.42-.13.74-.12.31,0,1.08.02,1.68.02s2.1,0,3.28.02c2.13.03,8.31-.16,9.13-.26.23-.03.58.02.79.1.54.2,1.17-.11,1.45-.74.14-.29.28-1.09.32-1.88.05-.76.12-1.42.15-1.48.12-.2-.47-.73-.87-.78-.21-.02-.43-.08-.46-.12-.29-.29-.42-4.66-.48-14.67-.04-10.71-.08-12.29-.32-15.96-.16-2.36-.03-6.19.22-6.13.1.02.19-.06.19-.18,0-.11.12-.19.26-.18.2.02.28-.15.34-.64.07-.48.25-.79.72-1.27.78-.8,1.24-2.16,1.27-3.68.02-.85-.03-1.13-.26-1.37-.26-.28-.26-.34-.04-.56ZM90.82,174.4c.3,0,.9-.06,1.3-.14.41-.09,1.97-.19,3.46-.2,1.49-.03,2.71-.09,2.71-.14,0-.06.22-.06.49,0,.27.05,1.09.08,1.82.05.74-.02,1.48-.04,1.64-.03.16,0,.93-.01,1.71-.03.78,0,1.85-.04,2.38-.04s1.04-.06,1.13-.12c.04-.02.12-.03.23-.04h0c.19.01.48.03.75.08.44.07.89.13,1.01.13.13,0,1.08.04,2.11.08,1.22.07,1.91.05,1.98-.06.06-.08.21-.15.35-.15.35,0,.43,1.14.1,1.51-.22.24-.73.26-6.59.27-3.49,0-8.63.02-11.4.06-4.7.04-5.08.03-5.4-.23-.19-.16-.34-.44-.34-.65,0-.33.05-.36.56-.35ZM112.94,222.14s.11.31.14.59c.09.68-.3,1.5-.71,1.53-.18.02-.55.03-.84.04-.28.02-1.25.08-2.15.13-2.66.17-5.09.25-7.23.23h-2.3c-.17,0-1.87.05-3.79.09-4.12.09-4.25.07-4.25-.97,0-.6.05-.67.35-.69.17,0,.41-.11.53-.2.14-.11.91-.21,1.91-.25.93-.03,2.42-.09,3.32-.14.9-.03,3.54-.1,5.88-.15,2.34-.05,4.67-.12,5.21-.17.95-.07,2.22-.11,3.05-.11.49.02.83.04.88.07ZM94.08,183.74c.24.24.38.11.54.47.39.97.5,2.28.52,6.45,0,.92-.1,3.84-.13,3.84,0,0-.04.28-.09.62-.05.56.01.7.4,1.11.25.26.41.53.37.6-.11.18.7.25,2.46.22,1.77-.05,6.3-.05,8.69-.03,1.35.03,1.63-.03,1.74-.24.08-.13.12-.27.09-.3-.02-.05.09-.2.23-.36.26-.3.29-.57.3-3.51,0-3.45.04-5.11.14-5.11.05,0,.09-.72.09-1.59s.03-1.62.06-1.67c.04-.03.41-.09.84-.13.7-.06.75-.03.78.27,0,.18.03,1.78.05,3.56.02,1.79.08,3.88.12,4.67.06.78.13,3.03.18,4.98.04,1.94.09,3.64.09,3.76,0,.29-.03,2.56-.04,3.62,0,.45-.03.99,0,1.19.02.68.02,2.33,0,2.71-.05.93.08,3.18.18,3.24.06.05.07.28,0,.5-.06.23-.09,1.39-.08,2.6.08,5.68.11,5.45-.61,5.6-.99.21-1.18.12-1.2-.56-.03-.34-.08-1.49-.12-2.56-.06-1.08-.12-2.91-.17-4.07-.05-1.16-.12-2.75-.15-3.54-.04-.78-.08-1.63-.06-1.88.04-1.47.03-3.89-.04-5.78-.09-2.52-.14-2.64-1.16-2.46-.93.17-2.4.13-7.21-.2-.66-.05-2-.1-2.99-.12-.97-.03-1.89-.09-2.03-.16-.19-.09-.41.02-.81.43-.44.45-.51.6-.42.95.18.74.21.94.22,1.8,0,1.14-.12,4.82-.24,6.89-.14,2.74-.05,11.48.12,11.77.07.09.07.21,0,.26-.12.13-1.65.11-1.73-.03-.2-.34-.36-20.57-.24-31.05,0-.87.02-2.02.02-2.56s.04-1.7.04-2.57l.03-1.58.77-.04c.18-.04.34-.04.45-.04l-.02.02h.02ZM95.91,184.72c-.08-.4-.11-.77-.07-.82.05-.03,1.58-.05,3.53-.05,3.25,0,7.68.05,8.25.12l.75.1.07.66c.02.38.03.71,0,.73-.11.11-.32,4.45-.36,7.65-.03,2.08-.08,2.53-.27,2.58-.55.15-1.29.24-1.37.16-.04-.04-1.82-.09-3.94-.08-4.24,0-5.65-.07-6.05-.37-.24-.19-.27-.48-.26-3.48,0-1.81.03-3.39.04-3.52.04-.36-.18-2.86-.32-3.68ZM95.84,220.14c-.24-2.59-.34-8.39-.16-8.7.04-.05.11-2.26.16-4.89.08-3.96.07-4.82-.1-4.93-.16-.1-.16-.13,0-.13.11,0,.17-.05.13-.12-.15-.23.16-.5.59-.51h.43c1.41.01,5.38.19,5.71.26.18.03,1.48.11,2.91.16l2.6.11v.54c.01.3.03,1.52.08,2.72.04,1.21.06,2.49.04,2.87-.06,1.34.08,5.75.2,5.94.08.13.19,4.13.14,4.97-.03.6-.02,1.97.02,2.25.04.26-.06.32-.76.41-.45.05-1.62.14-2.61.19-.97.05-3.58.11-5.79.16-3.93.08-4,.09-3.75-.2.2-.22.22-.46.16-1.1ZM113.44,180.64c-.14.17-.46.52-.7.77-.24.26-.47.68-.53.93-.07.38-.18.48-.64.55-.64.11-1.15.12-1.24.04-.03-.04-3.32-.11-7.3-.17-8.64-.12-9.46-.15-9.86-.51-.34-.31-.95-.72-1.7-1.18-.67-.39-.88-.8-1.07-2.11-.08-.57-.19-1.24-.23-1.5-.09-.47-.08-.47.56-.56.35-.04,1.89-.13,3.4-.17,3.3-.11,2.94-.11,4.34,0,.63.04,1.18.03,1.21-.04.05-.05,1.24-.08,2.64-.07h0c1.39-.01,2.98.03,3.82.08,2,.16,7.35.21,7.42.08.05-.08.2-.13.36-.13.73,0,.38,3.03-.48,3.99Z"/>
          <path class="cls-2" d="M33.04,176.91c.07-.1.16-.66.18-1.24.04-1.13-.14-1.54-.64-1.54-.16,0-.29-.1-.29-.22,0-.11-.11-.26-.25-.32-.15-.07-2.91-.13-6.15-.17-3.22-.01-8.24-.06-11.12-.1-.92-.02-1.69-.02-2.36-.02v.04c-2.01-.02-2.89.02-2.89.11,0,.12-.05.1-.16,0-.2-.2-.96-.02-1.31.32-.13.14-.39.36-.57.5-.25.19-.32.43-.34,1.01-.03,1.05-.02,1.07.24,1.35.23.22.22.27-.03.56-.23.24-.28.52-.26,1.38.02,1.51.49,2.86,1.28,3.66.46.49.63.81.69,1.29.07.49.15.64.35.62.14-.01.26.08.26.19,0,.12.08.2.18.17.25-.05.4,3.78.23,6.14-.24,3.66-.28,5.24-.33,15.95-.04,10.02-.17,14.4-.46,14.68-.03.05-.26.1-.48.12-.4.05-.98.57-.86.78.04.06.1.72.16,1.47.04.79.16,1.59.3,1.89.3.63.91.93,1.45.74.21-.08.57-.13.8-.1.83.1,7,.28,9.13.26,1.19-.02,2.67-.02,3.28-.02s1.37-.02,1.68-.02c.32-.01.65.04.75.12.1.09.34.14.54.14.21-.01.81.01,1.33.06.54.04,1.38.02,1.87-.04s1.02-.07,1.18-.04c.17.04.53-.11.82-.32.49-.36.51-.43.46-1.1-.03-.39-.06-1.25-.06-1.92l-.03-1.2h-.45c-.55,0-.54.11-.5-3.69.01-4.73,0-5.13-.11-5.4-.17-.38-.16-.5.03-1,.23-.58.34-7.57.22-12.28,0-.7.01-1.71.06-2.25.05-.53.04-1.2-.04-1.47-.07-.27-.08-.52,0-.57.13-.08.13-1.28,0-1.28-.06,0-.09-.9-.07-2.02.01-1.12-.01-2.03-.07-2.04-.12,0-.09-3.83.05-5.13.06-.53.1-1.12.12-1.31.02-.2.19-.42.4-.54.91-.48,1.62-1.41,1.73-2.27.02-.25.12-.99.22-1.63.14-.99.13-1.23-.08-1.64-.15-.33-.19-.53-.08-.66ZM8.51,174.42c.15,0,.3.08.35.15.06.11.75.14,1.98.07,1.04-.04,2-.09,2.12-.09s.58-.05,1.02-.13c.27-.03.53-.05.72-.05v-.03c.12.02.2.03.24.05.09.05.61.13,1.13.13s1.62.02,2.38.02c.78.03,1.55.03,1.72.03.16,0,.9.03,1.63.05.73.03,1.56,0,1.83-.06.27-.05.49-.05.49,0,0,.06,1.22.11,2.71.14,1.49.02,3.05.1,3.45.19.42.09,1,.15,1.31.15.5-.02.56.02.56.36,0,.21-.15.48-.35.64-.32.26-.7.27-5.39.24-2.78-.04-7.91-.07-11.41-.07-5.85-.01-6.37-.03-6.59-.28-.32-.37-.25-1.5.1-1.51ZM30.59,224.42c0,1.06-.12,1.08-4.25.98-1.92-.04-3.62-.09-3.78-.09h-2.32c-2.14.01-4.55-.08-7.22-.23-.9-.05-1.86-.1-2.15-.12s-.67-.03-.84-.05c-.41-.04-.79-.85-.72-1.53.04-.27.1-.55.16-.6.03-.03.38-.06.88-.06h0c.83,0,2.09.05,3.05.11.53.04,2.88.12,5.21.17,2.33.04,4.98.12,5.88.16.9.05,2.39.1,3.32.13.99.05,1.78.15,1.9.24.12.1.36.2.55.2.29.01.33.1.33.69ZM10.91,209.53c-.04-.39-.04-2.05,0-2.72.02-.21,0-.74,0-1.19-.03-1.07-.05-3.33-.05-3.61,0-.14.05-1.83.09-3.78.04-1.94.12-4.18.17-4.97.06-.78.11-2.89.14-4.66.02-1.78.05-3.39.05-3.58.01-.3.08-.33.78-.27.42.04.79.11.82.14.05.03.07.78.07,1.66s.04,1.6.1,1.6c.09,0,.14,1.64.14,5.11.01,2.94.03,3.2.3,3.51.14.16.24.32.22.35-.03.04.02.18.1.32.1.21.39.24,1.74.22,2.39-.01,6.9,0,8.69.04,1.74.03,2.56-.05,2.45-.23-.05-.06.13-.34.38-.6.38-.41.44-.56.38-1.1-.03-.35-.08-.62-.08-.62-.04,0-.14-2.92-.14-3.84.03-4.16.14-5.5.53-6.45.15-.37.21-.48.55-.48v-.02c.11,0,.24,0,.43.02l.78.06.03,1.58c0,.87.03,2.02.03,2.55s.04,1.7.04,2.56c.11,10.49-.05,30.71-.26,31.07-.07.14-1.59.16-1.72.03-.07-.06-.05-.17,0-.27.18-.28.26-9.01.11-11.76-.11-2.06-.22-5.74-.22-6.88,0-.87.03-1.07.22-1.81.09-.35.01-.5-.44-.96-.39-.4-.6-.51-.8-.43-.14.06-1.06.14-2.04.16-.99.02-2.32.09-2.97.13-4.81.32-6.28.37-7.21.2-1.02-.17-1.09-.05-1.18,2.47-.05,1.88-.06,4.31-.03,5.77.01.26,0,1.09-.06,1.88-.03.79-.11,2.39-.15,3.54-.04,1.17-.12,2.99-.16,4.06-.06,1.08-.1,2.23-.12,2.56-.04.69-.22.79-1.2.58-.72-.15-.7.07-.62-5.62.02-1.2-.02-2.37-.07-2.58-.08-.24-.07-.46,0-.5.1-.07.22-2.31.18-3.24ZM26.19,189.04c.01.13.03,1.71.03,3.52,0,2.99-.02,3.3-.26,3.49-.41.29-1.81.36-6.07.36-2.12,0-3.87.03-3.93.08-.07.07-.82,0-1.37-.16-.18-.04-.23-.49-.26-2.59-.05-3.19-.25-7.52-.36-7.63-.04-.04-.04-.36,0-.73l.05-.68.78-.1c.56-.06,4.97-.11,8.23-.11h.01c1.95,0,3.49.01,3.52.06.05.04.02.4-.05.81-.16.81-.37,3.32-.32,3.68ZM13.84,219.07c-.05-.85.06-4.83.15-4.96.11-.2.25-4.61.18-5.95-.02-.37.02-1.67.05-2.86.04-1.2.08-2.43.08-2.72v-.55l2.6-.11c1.42-.06,2.74-.13,2.92-.17.32-.06,4.28-.23,5.7-.25h.44c.43.02.71.28.58.51-.04.06,0,.12.12.12.17,0,.17.03,0,.13-.16.11-.18.96-.1,4.94.05,2.63.12,4.82.17,4.89.17.3.06,6.11-.17,8.7-.06.63-.03.87.18,1.1.24.27.17.27-3.75.2-2.21-.05-4.82-.11-5.81-.17-.97-.04-2.15-.13-2.6-.19-.7-.08-.81-.15-.78-.4.06-.29.07-1.66.04-2.26ZM32.24,178.1c-.05.26-.16.94-.24,1.51-.19,1.31-.39,1.71-1.05,2.11-.77.46-1.36.87-1.71,1.17-.39.35-1.23.4-9.85.52-4,.05-7.28.13-7.31.16-.09.08-.6.07-1.24-.04-.45-.08-.57-.17-.65-.54-.05-.25-.3-.67-.54-.93-.23-.26-.53-.61-.69-.77-.85-.97-1.21-3.99-.47-3.99.15,0,.31.05.35.13.08.13,5.42.06,7.43-.09.83-.05,2.42-.09,3.82-.09s2.59.02,2.62.08c.04.06.59.09,1.22.04,1.41-.11,1.04-.11,4.34,0,1.52.05,3.05.12,3.4.17.64.09.65.1.57.56Z"/>
          <path class="cls-2" d="M77.24,175.18c-.02-.79,0-.98-1.25-.97h-.02c-.42,0-.98.02-1.72.06-1.48.05-3.06.12-3.51.15-.45.04-2.72.11-5.06.14-2.33.04-6.63.11-9.52.16-7.18.11-8.54.21-8.78.68-.19.35-.2.91-.04.91.08,0,.1.38.06.85-.03.49-.06,1.04-.06,1.24,0,.21.04.52.04.69,0,.26.78,2.01,1.07,2.41.89,1.16,1.19,1.7,1.45,2.61.3.98.31,1.09.09,1.3-.29.3-.3.62-.03.79.12.06.26.46.31.87.12.76.24,6.73.23,11.14-.02,9.31-.01,11.07.09,11.6.12.76.12,3.67-.03,5.01-.15,1.5-.24,2.77-.22,3.2,0,.2.03.49.03.63s-.03.53-.03.83-.08.93-.18,1.36c-.16.8-.24.85-.96.8-.52-.05-.8.81-.74,2.22.03.64.1,1.28.16,1.41.1.23.59.48.86.45.06,0,.12.04.12.12,0,.07.28.16.63.18.65.06,18.62,0,22.33-.07q2.56-.04,2.41-1.83c-.05-.67-.12-1.59-.13-2.05l-.02-.82-1.21-.09v-1.91c0-1.05-.02-2.7-.03-3.65-.03-.95-.03-1.83-.03-1.95v-1.06c0-.46.02-2.28.04-4.07.03-1.77.01-3.5-.04-3.82-.32-1.79-.44-11.34-.21-16.05.05-1.28.11-2.42.12-2.53,0-.12.12-.17.3-.12.15.03.5-.04.77-.14.49-.21.5-.22.36-.86-.25-1.07-.06-1.6.89-2.54.65-.66.91-1.04,1.17-1.8.36-1.02.46-2.46.17-2.64-.11-.07-.11-.14.04-.23.16-.1.16-.15.03-.3-.26-.27-.23-.45.05-.34.22.09.24.01.14-.63-.07-.41-.12-1.01-.14-1.34ZM48.29,177.55c-.07-.1-.09-.45-.06-.78.06-.57.09-.59.68-.68.34-.04,2.57-.08,4.95-.07,2.38,0,4.4-.01,4.5-.07.09-.06,1.32-.09,2.73-.08,3.72.03,5.71,0,6.89-.09,1.65-.13,4.27-.27,5.41-.28v-.02c.17,0,.3.03.4.03.4.02,1.04.02,1.42.03.59.02.72.08.86.41.35.76.24.96-.54.97-.39,0-.88.03-1.07.06-.43.05-3.72.22-6.33.31-.98.03-2.76.09-3.94.14-2.39.1-2.34.1-2.76.09-.39-.03-3.88.08-6.7.2-1.23.06-2.75.11-3.41.15-1.47.06-2.89-.08-3.03-.32ZM73.31,222.41c.41.28.81,1.48.54,1.64-.09.06-.14.18-.08.25.21.35-.44.46-3.26.57-3.41.12-9.42.2-9.5.12-.03-.03-2.57-.07-5.64-.08-3.09-.04-5.64-.09-5.7-.15-.16-.17-.26-1.89-.11-1.98.2-.12,1.51-.12,5.77-.05,2.4.05,4.65-.01,6.84-.17,1.8-.12,4.55-.24,6.1-.27,1.56-.02,3.25-.04,3.76-.06h.23c.5,0,.86.06,1.05.18ZM51.66,212.62c-.02-2.22-.05-9.54-.05-14.84,0-3.48-.1-10.38-.15-10.69-.04-.27.05-.3.93-.37,1.34-.11,1.52-.06,1.32.32-.21.39-.43,3.76-.25,3.99.07.1.06.21-.04.28-.09.05-.14.45-.14.88v2.41c-.02.9.03,1.83.08,2.07.05.27.02.54-.09.66-.14.18-.12.26.08.47.16.17.22.4.16.67-.05.29.01.49.21.66.24.23.97.25,7.97.25,5.47,0,7.74-.05,7.81-.17.05-.09.08-.94.05-1.89-.03-1.22.03-1.94.18-2.49.14-.47.19-.93.12-1.17-.05-.22-.1-.45-.08-.53.1-.41.17-2.45.18-4.58v-2.43l.04-.02h1.13c1.15,0,1.2.02,1.13.74-.04.54-.21,7.87-.2,9.04.03,2.9.2,7.61.29,7.76.05.08.11,2.32.13,4.97.02,2.65.04,6.14.07,7.76.02,1.61.02,3.07,0,3.24-.03.16-.03.39-.03.52,0,.19-.07.8-.12,1.06-.03.09-2.35.09-2.45,0-.13-.14-.39-4.28-.45-7.3-.03-.91-.06-1.73-.09-1.81-.03-.09-.02-.53.04-.98.11-.82.2-2.43.31-5.05.07-1.44-.17-3.64-.44-3.93-.08-.1-.24-.31-.35-.44-.16-.19-.35-.22-.86-.14-1.12.16-3.3.24-6.37.21-1.65-.02-3.22-.02-3.5,0-3.02.11-3.6.17-3.94.4-.21.14-.38.37-.4.5,0,.13-.03.62-.05,1.08-.02.45-.09,1.63-.13,2.63-.05.99-.13,3.13-.18,4.74-.03,1.61-.06,3.48-.09,4.14-.02.67,0,1.45,0,1.73.04.3,0,1.18-.04,1.96-.07,1.12-.04,1.5.13,1.77.21.31.59.43.8.28.04-.03.07-.06.1-.11.07-.1.15-2.26.17-4.79.05-5.6.12-8.37.27-10.89.1-1.71.13-1.94.41-2.09.33-.17,2.07-.28,4.73-.28,4.87,0,7.1-.07,8.05-.21.67-.11.68-.1.75.32.03.24.02.59-.03.79-.04.19-.05.73,0,1.21.05.47.04,1.08-.03,1.37-.06.28-.15,1.53-.2,2.77-.03,1.24-.08,2.47-.12,2.71-.1.96.22,6.17.4,6.29.13.08.13.11-.01.12-.15,0-.2.29-.18,1.01,0,.56-.01,1.08-.03,1.16-.03.08.02.28.08.43.06.14.07.3.04.34-.06.06-.59.1-4.21.3-.65.03-1.35.1-1.56.14-.37.09-5.64.16-8.63.12-.88,0-1.56-.01-1.86-.04l-1.04-.08-.04-2.41c-.02-1.32.04-2.78.12-3.24.09-.45.16-1.93.15-3.3ZM54.47,187.63c-.11-.52-.17-.96-.12-1,.09-.05,3.14-.17,8.13-.31,1.55-.05,3.56-.11,4.48-.15l1.66-.06.11.55c.22,1.15.12,6.62-.15,8.23-.06.32-.12,1-.15,1.51-.02.5-.05,1.05-.06,1.23-.02.28-.13.34-.87.42-.47.05-2.16.12-3.76.15-1.59.02-3.01.1-3.14.15-.12.06-.25.06-.3.02-.04-.04-1.24-.12-2.65-.16-1.42-.04-2.7-.14-2.85-.23-.32-.18-.31-.13-.3-5.26,0-1.7.04-3.32.08-3.61.04-.28.01-.96-.11-1.48ZM75.74,180.68c-.45.85-.83,1.27-1.37,1.49-.37.16-.81,1.38-.81,2.24,0,.35-.07.63-.14.63-.09,0-.16-.05-.16-.13,0-.19-.55-.31-.69-.16-.12.12-.72.15-1.99.12-.28,0-1.12.03-1.85.06-.74.05-3.33.12-5.74.18-2.41.05-4.62.14-4.9.18-.29.06-1.9.12-3.59.14l-3.08.04.03-.48c0-.28-.1-.73-.23-1.01-.14-.29-.26-.73-.31-.99-.03-.25-.15-.62-.25-.82-.18-.34-.89-1.1-1.14-1.22-.15-.06-.99-1.63-.92-1.7.03-.04,1.53-.08,3.33-.12,1.8-.04,3.73-.12,4.31-.17.58-.04,2.71-.1,4.74-.16,2.04-.05,3.76-.12,3.83-.17.07-.04,1.81-.09,3.89-.14,2.07-.04,4.2-.1,4.73-.13,1.06-.07,1.72-.11,2.12-.11.65,0,.64.08.71.33.14.54-.01,1.17-.52,2.1Z"/>
          <path class="cls-2" d="M122.53,175.45c.03-.1.03-.18,0-.32v.32Z"/>
          <path class="cls-2" d="M74.06,241.07c.48-.06.59-.18.81-.92.11-.33.34-.87.53-1.2.49-.9.57-1.35.25-1.65-.11-.1-.19-.14-.25-.14h0c-.1-.01-.19.08-.36.28-.19.2-.3.43-.24.53.05.09,0,.2-.12.24-.13.06-.33.42-.47.82-.13.41-.31.79-.37.83-.08.04-.14.34-.14.66,0,.54.03.58.37.55Z"/>
          <path class="cls-2" d="M57.45,240.43c.4.08.9-.38.91-.81,0-.55-.44-1.83-.7-2.04-.09-.07-.16-.11-.25-.11-.08,0-.16.02-.26.08-.26.14-.29.26-.2,1.16.14,1.39.22,1.66.51,1.72Z"/>
          <path class="cls-2" d="M81.22,244.12c.18-.17.45-.56.6-.89.15-.33.33-.59.38-.59.09,0,.56-.8,1.49-2.56.24-.46.55-1.02.68-1.25.28-.47.13-.9-.34-.99h-.06c-.33,0-.68.43-1.35,1.72-.34.66-.71,1.27-.82,1.36-.12.09-.22.28-.22.41,0,.12-.06.27-.15.33-.08.04-.24.32-.36.58-.11.26-.48.77-.81,1.12-.67.72-.69.78-.43,1.05.24.24.99.09,1.39-.3Z"/>
          <path class="cls-2" d="M48.19,264.46c-.04.72-.12,1.91-.18,2.67-.1,1.49,0,1.84.71,2.26.36.21.86.18,2.73-.1.61-.1,2.3-.12,4.16-.08,6.81.18,9.22.2,9.52.09.18-.05.8-.02,1.4.09.68.11,1.88.16,3.05.13,1.08-.03,2.89-.06,4.04-.07,2.89,0,3.09,0,3.22-.08.06-.05.15-.02.21.07.12.21,1.46.19,1.92-.03.22-.1.42-.35.47-.61.07-.31.23-.5.6-.65l.51-.21v-1.49c0-.8.03-2.11.05-2.89.04-.79.06-2.46.05-3.7-.03-2.92.03-5.05.13-5.38.05-.19-.05-.28-.34-.33-.23-.06-.73-.18-1.1-.28-.66-.18-3.95-.22-4.4-.04-.11.04-.21.02-.21-.08,0-.09-.46-.14-1.17-.12-.65.02-1.24-.02-1.34-.08-.09-.05-3.16-.14-6.83-.18-3.66-.05-6.95-.1-7.32-.13-.96-.1-5.02-.23-6.77-.23v.02c-1.77,0-2.92.31-3.21.84-.15.29-.14.45.05.91.17.47.21,1.13.17,3.3-.02,1.49,0,2.79.07,2.9.06.1.06.64,0,1.19-.07.54-.16,1.58-.19,2.29ZM49.45,254.44c.14-.14,1.24-.29,2.04-.29v.03h.32c.45.03,2,.08,3.42.12,1.44.04,3.21.11,3.95.17,1.83.14,4.85.07,5.06-.09.1-.09.4-.09.76,0,.32.08,1.65.14,2.96.15,2.56.02,3.5.06,4.91.21,1.36.14,5.27.17,6.04.04l.67-.12-.04,4.04c-.06,5.27-.13,7.34-.32,8.15-.09.37-.1.81-.03.98l.12.32-8.35-.03c-4.59,0-9.56-.06-11.03-.12-1.48-.06-3.25-.11-3.95-.15-.69-.02-1.9,0-2.67.07-.78.06-1.97.16-2.63.23l-1.21.1-.08-.65c-.1-.81-.05-13.05.06-13.16Z"/>
        </g>
        <polyline class="cls-1" points="56.13 96.61 56.18 96.07 56.25 95.28 56.26 95.28 56.34 94.44 56.36 94.17"/>
        <polyline class="cls-1" points="16.52 97.56 16.5 97.02 16.47 96.31 16.37 94.03"/>
      </g>
    </g>
  </g>
</svg>