<svg width="142" height="28" viewBox="0 0 142 28" fill="none" xmlns="http://www.w3.org/2000/svg">
<line x1="127.107" y1="14.0176" x2="0.106934" y2="14.0176" stroke="white"/>
<path d="M12.897 19.9717C8.45457 16.0929 5.72923 15.0319 0.106935 14.0176" stroke="white" stroke-linejoin="round"/>
<path d="M12.899 8.46592C8.45665 12.3447 5.7294 13.0037 0.107104 14.0179" stroke="white"/>
<path d="M120.069 8.77568C121.175 7.01203 122.827 5.65825 124.773 4.92065C126.72 4.18306 128.854 4.10209 130.851 4.6901C132.848 5.27811 134.598 6.50285 135.834 8.17767C137.07 9.85248 137.725 11.8855 137.698 13.967C137.672 16.0484 136.965 18.0641 135.687 19.7069C134.409 21.3497 132.628 22.5294 130.617 23.0664C128.606 23.6033 126.474 23.468 124.547 22.681C122.62 21.8941 121.003 20.4987 119.942 18.7074" stroke="white"/>
</svg>
