<svg width="1440" height="827" viewBox="0 0 1440 827" fill="none" xmlns="http://www.w3.org/2000/svg">
<path fill-rule="evenodd" clip-rule="evenodd" d="M1339.04 0H1188V826.389H1339.04V0ZM1212.25 17.3608H1199.02V43.4025H1212.25V17.3608ZM1199.02 83.3331H1212.25V109.375H1199.02V83.3331ZM1212.25 116.319H1199.02V142.361H1212.25V116.319ZM1199.02 182.291H1212.25V208.333H1199.02V182.291ZM1212.25 215.278H1199.02V241.319H1212.25V215.278ZM1199.02 248.264H1212.25V274.305H1199.02V248.264ZM1212.25 281.25H1199.02V307.292H1212.25V281.25ZM1221.81 17.3608H1235.04V43.4025H1221.81V17.3608ZM1235.04 50.3472H1221.81V76.3888H1235.04V50.3472ZM1221.81 83.333H1235.04V109.375H1221.81V83.333ZM1235.04 116.319H1221.81V142.361H1235.04V116.319ZM1221.81 149.305H1235.04V175.347H1221.81V149.305ZM1235.04 182.292H1221.81V208.333H1235.04V182.292ZM1221.81 215.277H1235.04V241.319H1221.81V215.277ZM1235.04 248.264H1221.81V274.305H1235.04V248.264ZM1221.81 281.25H1235.04V307.292H1221.81V281.25ZM1257.83 17.3608H1244.6V43.4025H1257.83V17.3608ZM1244.6 50.3472H1257.83V76.3888H1244.6V50.3472ZM1257.83 83.333H1244.6V109.375H1257.83V83.333ZM1244.6 116.319H1257.83V142.361H1244.6V116.319ZM1257.83 149.305H1244.6V175.347H1257.83V149.305ZM1244.6 182.292H1257.83V208.333H1244.6V182.292ZM1257.83 215.277H1244.6V241.319H1257.83V215.277ZM1244.6 248.264H1257.83V274.305H1244.6V248.264ZM1257.83 281.25H1244.6V307.292H1257.83V281.25ZM1267.39 17.3608H1280.62V43.4025H1267.39V17.3608ZM1280.62 50.3472H1267.39V76.3888H1280.62V50.3472ZM1267.39 83.333H1280.62V109.375H1267.39V83.333ZM1280.62 149.305H1267.39V175.347H1280.62V149.305ZM1267.39 182.292H1280.62V208.333H1267.39V182.292ZM1280.62 215.277H1267.39V241.319H1280.62V215.277ZM1267.39 248.264H1280.62V274.305H1267.39V248.264ZM1280.62 281.25H1267.39V307.292H1280.62V281.25ZM1290.17 17.3608H1303.4V43.4025H1290.17V17.3608ZM1303.4 50.3472H1290.17V76.3888H1303.4V50.3472ZM1290.17 116.319H1303.4V142.361H1290.17V116.319ZM1303.4 182.292H1290.17V208.333H1303.4V182.292ZM1290.17 215.277H1303.4V241.319H1290.17V215.277ZM1303.4 248.264H1290.17V274.305H1303.4V248.264ZM1290.17 281.25H1303.4V307.292H1290.17V281.25ZM1326.19 17.3608H1312.96V43.4025H1326.19V17.3608ZM1312.96 50.347H1326.19V76.3886H1312.96V50.347ZM1326.19 83.3331H1312.96V109.375H1326.19V83.3331ZM1312.96 116.319H1326.19V142.361H1312.96V116.319ZM1326.19 149.305H1312.96V175.347H1326.19V149.305ZM1312.96 182.291H1326.19V208.333H1312.96V182.291ZM1326.19 215.278H1312.96V241.319H1326.19V215.278ZM1312.96 248.264H1326.19V274.305H1312.96V248.264Z" fill="#8E4E6F"/>
<path fill-rule="evenodd" clip-rule="evenodd" d="M710.834 131.944V36.458H824.549V131.944H850.59V826.389H684.791V131.944H710.834ZM805.884 83.3329H812.395V51.2148H805.884V83.3329ZM797.203 83.333H790.693V51.2149H797.203V83.333ZM775.504 83.3329H782.014V51.2149H775.504V83.3329ZM766.823 83.3331H760.312V51.2151H766.823V83.3331ZM805.884 123.264H812.395V91.1455H805.884V123.264ZM797.203 123.264H790.693V91.1456H797.203V123.264ZM775.504 123.264H782.014V91.1455H775.504V123.264ZM766.823 123.264H760.312V91.1456H766.823V123.264Z" fill="#8E4E6F"/>
<rect width="26.0417" height="695.312" transform="matrix(-1 0 0 1 428.043 131.368)" fill="#8E4E6F"/>
<path fill-rule="evenodd" clip-rule="evenodd" d="M428.043 109.962H547.835V68H428.043V109.962ZM432.383 108.284H439.327V69.6782H432.383V108.284ZM448.876 108.284H441.931V69.6782H448.876V108.284ZM451.48 108.284H458.425V69.6783H451.48V108.284ZM467.974 108.284H461.029V69.6783H467.974V108.284ZM470.578 108.284H477.523V69.6783H470.578V108.284ZM487.069 108.284H480.125V69.6783H487.069V108.284ZM489.674 108.284H496.618V69.6783H489.674V108.284ZM506.167 108.284H499.223V69.6783H506.167V108.284ZM508.772 108.284H515.716V69.6782H508.772V108.284ZM525.265 108.284H518.32V69.6782H525.265V108.284ZM527.869 108.284H534.813V69.6782H527.869V108.284ZM544.362 108.284H537.418V69.6783H544.362V108.284Z" fill="#8E4E6F"/>
<path fill-rule="evenodd" clip-rule="evenodd" d="M428.043 109.962H561.724V826.681H428.043V109.962ZM441.934 120.033H488.809V151.924H441.934V120.033ZM547.836 120.033H500.961V151.924H547.836V120.033ZM441.934 255.991H488.809V287.883H441.934V255.991ZM547.836 255.991H500.961V287.883H547.836V255.991ZM441.934 167.031H488.809V198.922H441.934V167.031ZM547.836 167.031H500.961V198.922H547.836V167.031ZM441.934 302.989H488.809V334.881H441.934V302.989ZM547.836 302.989H500.961V334.881H547.836V302.989ZM441.934 214.029H488.809V245.92H441.934V214.029ZM547.836 214.029H500.961V245.92H547.836V214.029ZM441.934 349.987H488.809V381.879H441.934V349.987ZM547.836 349.987H500.961V381.879H547.836V349.987Z" fill="#8E4E6F"/>
<rect width="74.6528" height="607.639" transform="matrix(-1 0 0 1 1060.62 218.75)" fill="#40324C"/>
<path fill-rule="evenodd" clip-rule="evenodd" d="M849.688 174.479H985.972V826.389H849.688V174.479ZM864.445 189.236H937.362V199.653H864.445V189.236ZM937.362 206.597H864.445V217.014H937.362V206.597ZM864.445 223.958H937.362V234.375H864.445V223.958ZM937.362 241.319H864.445V251.736H937.362V241.319Z" fill="#40324C"/>
<path fill-rule="evenodd" clip-rule="evenodd" d="M1060.62 98.958H1163.92V826.389H1060.62V98.958ZM1096.21 112.847H1156.98V122.396H1096.21V112.847ZM1156.98 129.34H1096.21V138.888H1156.98V129.34ZM1096.21 145.833H1156.98V155.382H1096.21V145.833ZM1156.98 162.326H1096.21V171.875H1156.98V162.326ZM1096.21 178.819H1156.98V188.368H1096.21V178.819ZM1156.98 195.312H1096.21V204.861H1156.98V195.312Z" fill="#40324C"/>
<rect x="1084.06" y="36.458" width="3.47222" height="76.3889" fill="#40324C"/>
<path fill-rule="evenodd" clip-rule="evenodd" d="M263 36H371.203V826.389H263V36ZM278.217 47.8345H306.113V57.1332H278.217V47.8345ZM355.988 47.8345H328.092V57.1332H355.988V47.8345ZM278.217 68.9683H306.113V78.267H278.217V68.9683ZM355.988 68.9683H328.092V78.267H355.988V68.9683ZM278.217 90.1016H306.113V99.4003H278.217V90.1016ZM355.988 90.1016H328.092V99.4003H355.988V90.1016ZM278.217 111.235H306.113V120.534H278.217V111.235ZM355.988 111.235H328.092V120.534H355.988V111.235ZM278.217 132.368H306.113V141.667H278.217V132.368ZM355.988 132.368H328.092V141.667H355.988V132.368ZM278.217 153.501H306.113V162.8H278.217V153.501ZM355.988 153.501H328.092V162.8H355.988V153.501ZM278.217 174.635H306.113V183.934H278.217V174.635ZM355.988 174.635H328.092V183.934H355.988V174.635Z" fill="#8E4E6F"/>
<path fill-rule="evenodd" clip-rule="evenodd" d="M1226 826.389H1257.29H1408.29H1439.58V283.854H1425.7V251.736H1408.29H1257.29H1239.89V283.854H1226V826.389Z" fill="#50435D"/>
<path fill-rule="evenodd" clip-rule="evenodd" d="M641.105 366.318H298.224V826.388H641.105V366.318ZM617.361 384.547H567.971V413.193H617.361V384.547ZM502.434 384.547H551.824V413.193H502.434V384.547ZM551.824 423.61H502.434V452.256H551.824V423.61ZM567.971 423.61H617.361V452.256H567.971V423.61ZM617.361 501.735H567.971V530.381H617.361V501.735ZM502.434 462.672H551.824V491.318H502.434V462.672ZM617.361 462.672H567.971V491.318H617.361V462.672ZM436.897 384.547H486.287V413.193H436.897V384.547Z" fill="#40324C"/>
<rect x="469.191" y="366.318" width="122.526" height="95.4861" transform="rotate(180 469.191 366.318)" fill="#40324C"/>
<rect x="469.191" y="256.943" width="122.526" height="8.68056" transform="rotate(180 469.191 256.943)" fill="#40324C"/>
<rect width="10.4479" height="13.8889" transform="matrix(-1 0 0 1 450.191 256.943)" fill="#40324C"/>
<rect width="10.4479" height="13.8889" transform="matrix(-1 0 0 1 381.807 256.943)" fill="#40324C"/>
<path fill-rule="evenodd" clip-rule="evenodd" d="M617.359 366.318H298.223V320.311H617.359V366.318ZM612.611 362.846H596.464V323.783H612.611V362.846ZM569.871 362.846H586.017V323.783H569.871V362.846ZM559.422 362.846H543.275V323.783H559.422V362.846ZM516.679 362.846H532.826V323.783H516.679V362.846ZM506.232 362.846H490.085V323.783H506.232V362.846ZM463.492 362.846H479.639V323.783H463.492V362.846ZM453.043 362.846H436.896V323.783H453.043V362.846ZM410.302 362.846H426.449V323.783H410.302V362.846ZM399.853 362.846H383.707V323.783H399.853V362.846ZM357.111 362.846H373.258V323.783H357.111V362.846ZM346.664 362.846H330.517V323.783H346.664V362.846ZM303.923 362.846H320.07V323.783H303.923V362.846Z" fill="#40324C"/>
<path fill-rule="evenodd" clip-rule="evenodd" d="M203.993 413.194H0V826.389H203.993V413.194ZM177 660H27V672H177V660ZM27 683H177V695H27V683ZM177 706H27V718H177V706ZM27 729H177V741H27V729ZM177 752H27V764H177V752ZM27 775H177V787H27V775ZM177 798H27V810H177V798ZM203.994 538.194V519.965H387.154V538.194H420.14V826.389H203.994V539.062V538.194Z" fill="#50435D"/>
<path fill-rule="evenodd" clip-rule="evenodd" d="M727.776 270.212V174.479H614.061V270.212H588.02V826.389H753.818V270.212H727.776ZM632.723 261.284H626.213V189.236H632.723V261.284ZM641.404 261.285H647.915V189.236H641.404V261.285Z" fill="#50435D"/>
</svg>
