<svg width="241" height="387" viewBox="0 0 241 387" fill="none" xmlns="http://www.w3.org/2000/svg">
<path fill-rule="evenodd" clip-rule="evenodd" d="M0.804688 0.396484H240.735V386.041H0.804688V0.396484ZM17.748 20.7295H32.3467V49.6819H17.748V20.7295ZM32.3465 60.3178H17.7479V89.2702H32.3465V60.3178ZM17.7479 99.9057H32.3465V128.858H17.7479V99.9057ZM32.3465 139.494H17.7479V168.446H32.3465V139.494ZM17.7479 179.082H32.3465V208.034H17.7479V179.082ZM32.3465 218.67H17.7479V247.622H32.3465V218.67ZM17.7479 258.258H32.3465V287.21H17.7479V258.258ZM32.3465 337.434H17.7479V366.386H32.3465V337.434ZM45.1933 20.7295H59.7919V49.6819H45.1933V20.7295ZM59.7919 60.3178H45.1933V89.2702H59.7919V60.3178ZM45.1933 99.9057H59.7919V128.858H45.1933V99.9057ZM59.7919 139.494H45.1933V168.446H59.7919V139.494ZM45.1933 179.082H59.7919V208.034H45.1933V179.082ZM59.7919 218.67H45.1933V247.622H59.7919V218.67ZM45.1933 258.258H59.7919V287.21H45.1933V258.258ZM59.7919 297.846H45.1933V326.798H59.7919V297.846ZM72.6388 20.7295H87.2374V49.6819H72.6388V20.7295ZM87.2374 60.3178H72.6388V89.2702H87.2374V60.3178ZM72.6388 99.9057H87.2374V128.858H72.6388V99.9057ZM87.2374 139.494H72.6388V168.446H87.2374V139.494ZM72.6388 179.082H87.2374V208.034H72.6388V179.082ZM87.2374 218.67H72.6388V247.622H87.2374V218.67ZM72.6388 297.846H87.2374V326.798H72.6388V297.846ZM87.2374 337.434H72.6388V366.386H87.2374V337.434ZM100.084 20.7295H114.683V49.6819H100.084V20.7295ZM114.683 60.3179H100.084V89.2703H114.683V60.3179ZM100.084 99.9058H114.683V128.858H100.084V99.9058ZM114.683 139.494H100.084V168.446H114.683V139.494ZM100.084 179.082H114.683V208.034H100.084V179.082ZM114.683 218.67H100.084V247.622H114.683V218.67ZM100.084 258.258H114.683V287.21H100.084V258.258ZM114.683 297.846H100.084V326.798H114.683V297.846ZM100.084 337.434H114.683V366.386H100.084V337.434ZM142.126 20.7295H127.527V49.6819H142.126V20.7295ZM127.527 60.3179H142.126V89.2703H127.527V60.3179ZM142.126 99.9058H127.527V128.858H142.126V99.9058ZM127.527 139.494H142.126V168.446H127.527V139.494ZM142.126 179.082H127.527V208.034H142.126V179.082ZM127.527 218.67H142.126V247.622H127.527V218.67ZM142.126 258.258H127.527V287.21H142.126V258.258ZM127.527 297.846H142.126V326.798H127.527V297.846ZM142.126 337.434H127.527V366.386H142.126V337.434ZM154.975 20.7295H169.573V49.6819H154.975V20.7295ZM169.573 60.3179H154.975V89.2703H169.573V60.3179ZM154.975 99.9058H169.573V128.858H154.975V99.9058ZM169.573 139.494H154.975V168.446H169.573V139.494ZM154.975 179.082H169.573V208.034H154.975V179.082ZM169.573 218.67H154.975V247.622H169.573V218.67ZM154.975 258.258H169.573V287.21H154.975V258.258ZM169.573 297.846H154.975V326.798H169.573V297.846ZM154.975 337.434H169.573V366.386H154.975V337.434ZM197.019 20.7295H182.42V49.6819H197.019V20.7295ZM182.42 60.3179H197.019V89.2703H182.42V60.3179ZM197.019 139.494H182.42V168.446H197.019V139.494ZM182.42 179.082H197.019V208.034H182.42V179.082ZM197.019 218.67H182.42V247.622H197.019V218.67ZM182.42 258.258H197.019V287.21H182.42V258.258ZM197.019 297.846H182.42V326.798H197.019V297.846ZM182.42 337.434H197.019V366.386H182.42V337.434ZM224.464 20.7295H209.865V49.6819H224.464V20.7295ZM209.865 60.3179H224.464V89.2703H209.865V60.3179ZM224.464 99.9058H209.865V128.858H224.464V99.9058ZM209.865 139.494H224.464V168.446H209.865V139.494ZM224.464 179.082H209.865V208.034H224.464V179.082ZM209.865 218.67H224.464V247.622H209.865V218.67ZM224.464 258.258H209.865V287.21H224.464V258.258ZM209.865 297.846H224.464V326.798H209.865V297.846ZM224.464 337.434H209.865V366.386H224.464V337.434Z" fill="#202342"/>
</svg>
