<svg width="195" height="482" viewBox="0 0 195 482" fill="none" xmlns="http://www.w3.org/2000/svg">
<path fill-rule="evenodd" clip-rule="evenodd" d="M74.0703 0.910156H194.867V481.441H74.0703V0.910156ZM183.123 21.2427H85.7503V31.6626H183.123V21.2427ZM85.7503 42.7336H183.123V53.1536H85.7503V42.7336ZM183.123 64.225H85.7503V74.6449H183.123V64.225ZM85.7503 85.7164H183.123V96.1363H85.7503V85.7164ZM183.123 107.208H85.7503V117.627H183.123V107.208ZM85.7503 128.698H183.123V139.118H85.7503V128.698ZM183.123 150.189H85.7503V160.609H183.123V150.189ZM85.7503 171.681H183.123V182.1H85.7503V171.681ZM183.123 193.172H85.7503V203.592H183.123V193.172ZM85.7503 214.663H183.123V225.083H85.7503V214.663ZM183.123 236.154H85.7503V246.574H183.123V236.154ZM85.7503 257.645H183.123V268.065H85.7503V257.645ZM183.123 279.136H85.7503V289.556H183.123V279.136ZM85.7503 300.627H183.123V311.047H85.7503V300.627ZM183.123 322.118H85.7503V332.538H183.123V322.118ZM85.7503 343.61H183.123V354.03H85.7503V343.61ZM183.123 365.101H85.7503V375.521H183.123V365.101ZM85.7503 386.592H183.123V397.012H85.7503V386.592ZM183.123 408.083H85.7503V418.503H183.123V408.083ZM85.7503 429.574H183.123V439.994H85.7503V429.574ZM183.123 451.066H85.7503V461.486H183.123V451.066Z" fill="#07161B"/>
<rect x="0.351562" y="255.747" width="73.8756" height="225.693" fill="#07161B"/>
<rect x="16.7031" y="304.072" width="6.91863" height="72.3312" fill="white"/>
<rect x="16.7031" y="269.479" width="6.91863" height="12.5793" fill="white"/>
<rect x="16.7031" y="385.838" width="6.91863" height="72.3312" fill="white"/>
</svg>
