<svg width="1440" height="765" viewBox="0 0 1440 765" fill="none" xmlns="http://www.w3.org/2000/svg">
<path fill-rule="evenodd" clip-rule="evenodd" d="M1339.04 0H1188V764.73H1339.04V0ZM1212.25 16.0655H1199.02V40.1641H1212.25V16.0655ZM1199.02 77.1154H1212.25V101.214H1199.02V77.1154ZM1212.25 107.641H1199.02V131.739H1212.25V107.641ZM1199.02 168.69H1212.25V192.789H1199.02V168.69ZM1212.25 199.215H1199.02V223.314H1212.25V199.215ZM1199.02 229.74H1212.25V253.839H1199.02V229.74ZM1212.25 260.265H1199.02V284.364H1212.25V260.265ZM1221.81 16.0655H1235.04V40.1641H1221.81V16.0655ZM1235.04 46.5907H1221.81V70.6894H1235.04V46.5907ZM1221.81 77.1154H1235.04V101.214H1221.81V77.1154ZM1235.04 107.641H1221.81V131.739H1235.04V107.641ZM1221.81 138.165H1235.04V162.264H1221.81V138.165ZM1235.04 168.69H1221.81V192.789H1235.04V168.69ZM1221.81 199.215H1235.04V223.314H1221.81V199.215ZM1235.04 229.74H1221.81V253.839H1235.04V229.74ZM1221.81 260.265H1235.04V284.364H1221.81V260.265ZM1257.83 16.0655H1244.6V40.1641H1257.83V16.0655ZM1244.6 46.5907H1257.83V70.6894H1244.6V46.5907ZM1257.83 77.1154H1244.6V101.214H1257.83V77.1154ZM1244.6 107.641H1257.83V131.739H1244.6V107.641ZM1257.83 138.165H1244.6V162.264H1257.83V138.165ZM1244.6 168.69H1257.83V192.789H1244.6V168.69ZM1257.83 199.215H1244.6V223.314H1257.83V199.215ZM1244.6 229.74H1257.83V253.839H1244.6V229.74ZM1257.83 260.265H1244.6V284.364H1257.83V260.265ZM1267.39 16.0655H1280.62V40.1641H1267.39V16.0655ZM1280.62 46.5907H1267.39V70.6894H1280.62V46.5907ZM1267.39 77.1154H1280.62V101.214H1267.39V77.1154ZM1280.62 138.165H1267.39V162.264H1280.62V138.165ZM1267.39 168.69H1280.62V192.789H1267.39V168.69ZM1280.62 199.215H1267.39V223.314H1280.62V199.215ZM1267.39 229.74H1280.62V253.839H1267.39V229.74ZM1280.62 260.265H1267.39V284.364H1280.62V260.265ZM1290.17 16.0655H1303.4V40.1641H1290.17V16.0655ZM1303.4 46.5907H1290.17V70.6894H1303.4V46.5907ZM1290.17 107.641H1303.4V131.739H1290.17V107.641ZM1303.4 168.69H1290.17V192.789H1303.4V168.69ZM1290.17 199.215H1303.4V223.314H1290.17V199.215ZM1303.4 229.74H1290.17V253.839H1303.4V229.74ZM1290.17 260.265H1303.4V284.364H1290.17V260.265ZM1326.19 16.0655H1312.96V40.1641H1326.19V16.0655ZM1312.96 46.5907H1326.19V70.6894H1312.96V46.5907ZM1326.19 77.1154H1312.96V101.214H1326.19V77.1154ZM1312.96 107.641H1326.19V131.739H1312.96V107.641ZM1326.19 138.165H1312.96V162.264H1326.19V138.165ZM1312.96 168.69H1326.19V192.789H1312.96V168.69ZM1326.19 199.215H1312.96V223.314H1326.19V199.215ZM1312.96 229.74H1326.19V253.839H1312.96V229.74Z" fill="#8E4E6F"/>
<path fill-rule="evenodd" clip-rule="evenodd" d="M710.832 122.1V33.7378H824.547V122.1H850.59V764.73H684.791V122.1H710.832ZM805.88 77.1155H812.391V47.3939H805.88V77.1155ZM797.199 77.1155H790.689V47.3939H797.199V77.1155ZM775.501 77.1155H782.012V47.3939H775.501V77.1155ZM766.82 77.1155H760.31V47.3939H766.82V77.1155ZM805.88 114.067H812.391V84.3454H805.88V114.067ZM797.199 114.067H790.689V84.3454H797.199V114.067ZM775.501 114.067H782.012V84.3454H775.501V114.067ZM766.82 114.067H760.31V84.3454H766.82V114.067Z" fill="#8E4E6F"/>
<rect width="26.0417" height="643.434" transform="matrix(-1 0 0 1 428.043 121.566)" fill="#8E4E6F"/>
<path fill-rule="evenodd" clip-rule="evenodd" d="M428.043 101.758H547.835V62.9263H428.043V101.758ZM432.383 100.204H439.327V64.4792H432.383V100.204ZM448.874 100.204H441.93V64.4792H448.874V100.204ZM451.48 100.204H458.425V64.4792H451.48V100.204ZM467.976 100.204H461.031V64.4792H467.976V100.204ZM470.578 100.204H477.523V64.4792H470.578V100.204ZM487.069 100.204H480.125V64.4792H487.069V100.204ZM489.672 100.204H496.616V64.4792H489.672V100.204ZM506.167 100.204H499.223V64.4792H506.167V100.204ZM508.773 100.204H515.718V64.4792H508.773V100.204ZM525.265 100.204H518.32V64.4792H525.265V100.204ZM527.867 100.204H534.812V64.4792H527.867V100.204ZM544.362 100.204H537.418V64.4792H544.362V100.204Z" fill="#8E4E6F"/>
<path fill-rule="evenodd" clip-rule="evenodd" d="M428.043 101.758H561.724V765H428.043V101.758ZM441.934 111.077H488.809V140.589H441.934V111.077ZM547.836 111.077H500.961V140.589H547.836V111.077ZM441.934 236.892H488.809V266.404H441.934V236.892ZM547.836 236.892H500.961V266.404H547.836V236.892ZM441.934 154.569H488.809V184.081H441.934V154.569ZM547.836 154.569H500.961V184.081H547.836V154.569ZM441.934 280.383H488.809V309.895H441.934V280.383ZM547.836 280.383H500.961V309.895H547.836V280.383ZM441.934 198.06H488.809V227.572H441.934V198.06ZM547.836 198.06H500.961V227.572H547.836V198.06ZM441.934 323.874H488.809V353.386H441.934V323.874ZM547.836 323.874H500.961V353.386H547.836V323.874Z" fill="#8E4E6F"/>
<rect width="74.6528" height="562.302" transform="matrix(-1 0 0 1 1060.62 202.428)" fill="#40324C"/>
<path fill-rule="evenodd" clip-rule="evenodd" d="M849.688 161.461H985.972V764.73H849.688V161.461ZM864.445 175.116H937.362V184.756H864.445V175.116ZM937.362 191.182H864.445V200.822H937.362V191.182ZM864.445 207.248H937.362V216.887H864.445V207.248ZM937.362 223.314H864.445V232.953H937.362V223.314Z" fill="#40324C"/>
<path fill-rule="evenodd" clip-rule="evenodd" d="M1060.62 91.5747H1163.92V764.73H1060.62V91.5747ZM1096.21 104.427H1156.98V113.264H1096.21V104.427ZM1156.98 119.689H1096.21V128.526H1156.98V119.689ZM1096.21 134.952H1156.98V143.788H1096.21V134.952ZM1156.98 150.215H1096.21V159.051H1156.98V150.215ZM1096.21 165.477H1156.98V174.313H1096.21V165.477ZM1156.98 180.739H1096.21V189.575H1156.98V180.739Z" fill="#40324C"/>
<rect x="1084.06" y="33.7378" width="3.47222" height="70.6893" fill="#40324C"/>
<path fill-rule="evenodd" clip-rule="evenodd" d="M263 33.314H371.203V764.73H263V33.314ZM278.217 44.2654H306.113V52.8703H278.217V44.2654ZM355.988 44.2654H328.092V52.8703H355.988V44.2654ZM278.217 63.8224H306.113V72.4273H278.217V63.8224ZM355.988 63.8224H328.092V72.4273H355.988V63.8224ZM278.217 83.3789H306.113V91.9838H278.217V83.3789ZM355.988 83.3789H328.092V91.9838H355.988V83.3789ZM278.217 102.935H306.113V111.54H278.217V102.935ZM355.988 102.935H328.092V111.54H355.988V102.935ZM278.217 122.492H306.113V131.097H278.217V122.492ZM355.988 122.492H328.092V131.097H355.988V122.492ZM278.217 142.048H306.113V150.653H278.217V142.048ZM355.988 142.048H328.092V150.653H355.988V142.048ZM278.217 161.605H306.113V170.21H278.217V161.605ZM355.988 161.605H328.092V170.21H355.988V161.605Z" fill="#8E4E6F"/>
<path fill-rule="evenodd" clip-rule="evenodd" d="M1408.29 764.73L1439.59 764.73V262.675H1425.7V232.954H1257.29V232.954H1239.89V262.675H1226V764.73H1408.29Z" fill="#50435D"/>
<path fill-rule="evenodd" clip-rule="evenodd" d="M641.105 338.986H298.224V764.729H641.105V338.986ZM617.359 355.855H567.969V382.364H617.359V355.855ZM502.43 355.855H551.82V382.364H502.43V355.855ZM551.82 392.003H502.43V418.512H551.82V392.003ZM567.969 392.003H617.359V418.512H567.969V392.003ZM617.359 464.299H567.969V490.808H617.359V464.299ZM502.43 428.151H551.82V454.66H502.43V428.151ZM617.359 428.151H567.969V454.66H617.359V428.151ZM436.895 355.855H486.285V382.364H436.895V355.855Z" fill="#40324C"/>
<rect x="469.191" y="338.986" width="122.526" height="88.3617" transform="rotate(180 469.191 338.986)" fill="#40324C"/>
<rect x="469.191" y="237.772" width="122.526" height="8.03288" transform="rotate(180 469.191 237.772)" fill="#40324C"/>
<rect width="10.4479" height="12.8526" transform="matrix(-1 0 0 1 450.191 237.772)" fill="#40324C"/>
<rect width="10.4479" height="12.8526" transform="matrix(-1 0 0 1 381.807 237.772)" fill="#40324C"/>
<path fill-rule="evenodd" clip-rule="evenodd" d="M617.359 338.986H298.223V296.412H617.359V338.986ZM612.609 335.773H596.463V299.625H612.609V335.773ZM569.869 335.773H586.016V299.625H569.869V335.773ZM559.422 335.773H543.275V299.625H559.422V335.773ZM516.677 335.773H532.824V299.625H516.677V335.773ZM506.23 335.773H490.084V299.625H506.23V335.773ZM463.49 335.773H479.637V299.625H463.49V335.773ZM453.039 335.773H436.892V299.625H453.039V335.773ZM410.299 335.773H426.445V299.625H410.299V335.773ZM399.852 335.773H383.705V299.625H399.852V335.773ZM357.109 335.773H373.256V299.625H357.109V335.773ZM346.662 335.773H330.515V299.625H346.662V335.773ZM303.922 335.773H320.068V299.625H303.922V335.773Z" fill="#40324C"/>
<path fill-rule="evenodd" clip-rule="evenodd" d="M203.993 382.365H0V764.73H203.993V382.365ZM177 610.756H27V621.86H177V610.756ZM27 632.04H177V643.144H27V632.04ZM177 653.324H27V664.428H177V653.324ZM27 674.607H177V685.712H27V674.607ZM177 695.891H27V706.996H177V695.891ZM27 717.175H177V728.28H27V717.175ZM177 738.459H27V749.564H177V738.459ZM203.994 498.038V481.169H387.154V498.038H420.14V764.73H203.994V498.842V498.038Z" fill="#50435D"/>
<path fill-rule="evenodd" clip-rule="evenodd" d="M727.778 250.051V161.461H614.062V250.051H588.02V764.73H753.818V250.051H727.778ZM632.725 241.789H626.215V175.116H632.725V241.789ZM641.406 241.789H647.917V175.116H641.406V241.789Z" fill="#50435D"/>
</svg>
