<svg width="257" height="241" viewBox="0 0 257 241" fill="none" xmlns="http://www.w3.org/2000/svg">
<path fill-rule="evenodd" clip-rule="evenodd" d="M256.35 0.361328H0V240.492H256.35V0.361328ZM45.4268 16.6275H16.9434V30.078H45.4268V16.6275ZM55.7129 16.6275H84.1963V30.078H55.7129V16.6275ZM122.966 16.6275H94.4825V30.078H122.966V16.6275ZM133.25 16.6275H161.733V30.078H133.25V16.6275ZM200.503 16.6275H172.02V30.078H200.503V16.6275ZM210.789 16.6275H239.272V30.078H210.789V16.6275ZM45.4268 36.0121H16.9434V49.4626H45.4268V36.0121ZM55.7129 36.0118H84.1963V49.4623H55.7129V36.0118ZM122.966 36.0118H94.4825V49.4623H122.966V36.0118ZM133.25 36.0118H161.733V49.4623H133.25V36.0118ZM200.503 36.0118H172.02V49.4623H200.503V36.0118ZM210.789 36.0118H239.272V49.4623H210.789V36.0118ZM45.4268 55.3967H16.9434V68.8472H45.4268V55.3967ZM94.4825 55.3966H122.966V68.847H94.4825V55.3966ZM161.733 55.3966H133.25V68.847H161.733V55.3966ZM172.02 55.3966H200.503V68.847H172.02V55.3966ZM239.272 55.3966H210.789V68.847H239.272V55.3966ZM16.9434 74.7811H45.4268V88.2316H16.9434V74.7811ZM84.1963 74.7813H55.7129V88.2318H84.1963V74.7813ZM94.4825 74.7813H122.966V88.2318H94.4825V74.7813ZM161.733 74.7813H133.25V88.2318H161.733V74.7813ZM172.02 74.7813H200.503V88.2318H172.02V74.7813ZM239.272 74.7813H210.789V88.2318H239.272V74.7813ZM16.9434 94.1657H45.4268V107.616H16.9434V94.1657ZM84.1963 94.1656H55.7129V107.616H84.1963V94.1656ZM94.4825 94.1656H122.966V107.616H94.4825V94.1656ZM161.733 94.1656H133.25V107.616H161.733V94.1656ZM172.02 94.1656H200.503V107.616H172.02V94.1656ZM239.272 94.1656H210.789V107.616H239.272V94.1656ZM16.9434 113.55H45.4268V127.001H16.9434V113.55ZM84.1963 113.55H55.7129V127.001H84.1963V113.55ZM94.4825 113.55H122.966V127.001H94.4825V113.55ZM161.733 113.55H133.25V127.001H161.733V113.55ZM172.02 113.55H200.503V127.001H172.02V113.55ZM239.272 113.55H210.789V127.001H239.272V113.55ZM16.9434 132.934H45.4268V146.385H16.9434V132.934ZM84.1963 132.935H55.7129V146.385H84.1963V132.935ZM94.4825 132.935H122.966V146.385H94.4825V132.935ZM200.503 132.935H172.02V146.385H200.503V132.935ZM210.789 132.935H239.272V146.385H210.789V132.935ZM84.1963 152.319H55.7129V165.77H84.1963V152.319ZM94.4825 152.319H122.966V165.77H94.4825V152.319ZM200.503 152.319H172.02V165.77H200.503V152.319ZM210.789 152.319H239.272V165.77H210.789V152.319ZM84.1963 171.703H55.7129V185.154H84.1963V171.703ZM94.4825 171.703H122.966V185.154H94.4825V171.703ZM161.733 171.703H133.25V185.154H161.733V171.703ZM172.02 171.703H200.503V185.154H172.02V171.703ZM84.1963 191.088H55.7129V204.538H84.1963V191.088ZM133.25 191.088H161.733V204.538H133.25V191.088ZM200.503 191.088H172.02V204.538H200.503V191.088ZM133.25 210.473H161.733V223.923H133.25V210.473ZM200.503 210.473H172.02V223.923H200.503V210.473Z" fill="#07161B"/>
</svg>
