<svg width="50" height="51" viewBox="0 0 50 51" fill="none" xmlns="http://www.w3.org/2000/svg">
<path d="M49.6386 23.9811L26.1135 0.456061C25.8197 0.163957 25.4222 0 25.0078 0C24.5935 0 24.196 0.163957 23.9022 0.456061L0.377118 23.9811C0.120183 24.2811 -0.0140764 24.6671 0.00116964 25.0618C0.0164157 25.4565 0.180044 25.8309 0.459356 26.1102C0.738668 26.3895 1.11309 26.5532 1.5078 26.5684C1.90252 26.5837 2.28845 26.4494 2.58847 26.1925L25 3.78093L47.4115 26.2081C47.7116 26.4651 48.0975 26.5993 48.4922 26.5841C48.8869 26.5688 49.2613 26.4052 49.5406 26.1259C49.82 25.8466 49.9836 25.4722 49.9988 25.0775C50.0141 24.6827 49.8798 24.2968 49.6229 23.9968L49.6386 23.9811Z" fill="white"/>
<path d="M40.685 47.0514H32.8434V31.368H17.16V47.0514H9.31831V25.0947L6.18164 28.2313V47.0514C6.18164 47.8833 6.51211 48.6811 7.10035 49.2693C7.68859 49.8576 8.48642 50.188 9.31831 50.188H20.2967V34.5047H29.7067V50.188H40.685C41.5169 50.188 42.3148 49.8576 42.903 49.2693C43.4912 48.6811 43.8217 47.8833 43.8217 47.0514V27.8549L40.685 24.7183V47.0514Z" fill="white"/>
</svg>
