<svg width="195" height="482" viewBox="0 0 195 482" fill="none" xmlns="http://www.w3.org/2000/svg">
<path fill-rule="evenodd" clip-rule="evenodd" d="M74.0684 0.910156H194.866V481.441H74.0684V0.910156ZM183.121 21.2427H85.7483V31.6626H183.121V21.2427ZM85.7483 42.7336H183.121V53.1536H85.7483V42.7336ZM183.121 64.225H85.7483V74.6449H183.121V64.225ZM85.7483 85.7164H183.121V96.1363H85.7483V85.7164ZM183.121 107.208H85.7483V117.627H183.121V107.208ZM85.7483 128.698H183.121V139.118H85.7483V128.698ZM183.121 150.189H85.7483V160.609H183.121V150.189ZM85.7483 171.681H183.121V182.1H85.7483V171.681ZM183.121 193.172H85.7483V203.592H183.121V193.172ZM85.7483 214.663H183.121V225.083H85.7483V214.663ZM183.121 236.154H85.7483V246.574H183.121V236.154ZM85.7483 257.645H183.121V268.065H85.7483V257.645ZM183.121 279.136H85.7483V289.556H183.121V279.136ZM85.7483 300.627H183.121V311.047H85.7483V300.627ZM183.121 322.118H85.7483V332.538H183.121V322.118ZM85.7483 343.61H183.121V354.03H85.7483V343.61ZM183.121 365.101H85.7483V375.521H183.121V365.101ZM85.7483 386.592H183.121V397.012H85.7483V386.592ZM183.121 408.083H85.7483V418.503H183.121V408.083ZM85.7483 429.574H183.121V439.994H85.7483V429.574ZM183.121 451.066H85.7483V461.486H183.121V451.066Z" fill="#202342"/>
<rect x="0.349609" y="255.747" width="73.8756" height="225.693" fill="#202342"/>
<rect x="16.7031" y="304.072" width="6.91863" height="72.3312" fill="white"/>
<rect x="16.7031" y="269.479" width="6.91863" height="12.5793" fill="white"/>
<rect x="16.7031" y="385.838" width="6.91863" height="72.3312" fill="white"/>
</svg>
