<svg width="201" height="634" viewBox="0 0 201 634" fill="none" xmlns="http://www.w3.org/2000/svg">
<path fill-rule="evenodd" clip-rule="evenodd" d="M108.325 167.275H94.2323L100.838 0L108.325 167.275ZM125.941 200.745V167.275H75.7363V200.745H45.7891V213.076H155.887V200.745H125.941ZM36.0977 213.076H165.573V287.062L187.595 287.062V306.44H14.0801V287.062L36.0977 287.062V213.076Z" fill="#202342"/>
<rect x="98.8457" y="219.242" width="67.8206" height="3.05633" transform="rotate(90 98.8457 219.242)" fill="white"/>
<rect x="128.686" y="219.242" width="67.8206" height="3.05633" transform="rotate(90 128.686 219.242)" fill="white"/>
<rect x="158.525" y="219.241" width="67.8206" height="3.05633" transform="rotate(90 158.525 219.241)" fill="white"/>
<rect x="91.3848" y="219.241" width="67.8206" height="3.05633" transform="rotate(90 91.3848 219.241)" fill="white"/>
<rect x="121.225" y="219.241" width="67.8206" height="3.05633" transform="rotate(90 121.225 219.241)" fill="white"/>
<rect x="151.064" y="219.242" width="67.8206" height="3.05633" transform="rotate(90 151.064 219.242)" fill="white"/>
<rect x="83.9258" y="219.241" width="67.8206" height="3.05633" transform="rotate(90 83.9258 219.241)" fill="white"/>
<rect x="113.764" y="219.241" width="67.8206" height="3.05633" transform="rotate(90 113.764 219.241)" fill="white"/>
<rect x="143.605" y="219.241" width="67.8206" height="3.05633" transform="rotate(90 143.605 219.241)" fill="white"/>
<rect x="76.4648" y="219.242" width="67.8206" height="3.05633" transform="rotate(90 76.4648 219.242)" fill="white"/>
<rect x="106.305" y="219.241" width="67.8206" height="3.05633" transform="rotate(90 106.305 219.241)" fill="white"/>
<rect x="136.145" y="219.241" width="67.8206" height="3.05633" transform="rotate(90 136.145 219.241)" fill="white"/>
<rect x="69.0059" y="219.241" width="67.8206" height="3.05633" transform="rotate(90 69.0059 219.241)" fill="white"/>
<rect x="61.5449" y="219.241" width="67.8206" height="3.05633" transform="rotate(90 61.5449 219.241)" fill="white"/>
<rect x="54.084" y="219.241" width="67.8206" height="3.05633" transform="rotate(90 54.084 219.241)" fill="white"/>
<rect x="46.625" y="219.242" width="67.8206" height="3.05633" transform="rotate(90 46.625 219.242)" fill="white"/>
<path fill-rule="evenodd" clip-rule="evenodd" d="M0.865234 306.347H200.804V633.119H0.865234V306.347ZM16.4553 311.769H68.7952V318.807H16.4553V311.769ZM68.7952 380.391H16.4553V387.429H68.7952V380.391ZM16.4553 449.012H68.7952V456.05H16.4553V449.012ZM68.7952 517.634H16.4553V524.672H68.7952V517.634ZM16.4553 586.255H68.7952V593.294H16.4553V586.255ZM185.895 311.769H133.555V318.807H185.895V311.769ZM133.555 380.39H185.895V387.429H133.555V380.39ZM185.895 449.013H133.555V456.051H185.895V449.013ZM133.555 517.634H185.895V524.672H133.555V517.634ZM185.895 586.256H133.555V593.294H185.895V586.256ZM16.4553 323.206H68.7952V330.244H16.4553V323.206ZM68.7952 460.449H16.4553V467.487H68.7952V460.449ZM16.4553 529.071H68.7952V536.109H16.4553V529.071ZM68.7952 597.692H16.4553V604.73H68.7952V597.692ZM133.555 323.206H185.895V330.244H133.555V323.206ZM185.895 391.827H133.555V398.866H185.895V391.827ZM133.555 460.449H185.895V467.487H133.555V460.449ZM185.895 529.071H133.555V536.109H185.895V529.071ZM133.555 597.692H185.895V604.73H133.555V597.692ZM68.7952 334.643H16.4553V341.681H68.7952V334.643ZM16.4553 403.265H68.7952V410.303H16.4553V403.265ZM68.7952 471.886H16.4553V478.924H68.7952V471.886ZM16.4553 540.507H68.7952V547.545H16.4553V540.507ZM68.7952 609.129H16.4553V616.167H68.7952V609.129ZM133.555 334.643H185.895V341.681H133.555V334.643ZM185.895 403.264H133.555V410.303H185.895V403.264ZM133.555 471.886H185.895V478.924H133.555V471.886ZM185.895 540.507H133.555V547.545H185.895V540.507ZM133.555 609.129H185.895V616.167H133.555V609.129ZM68.7952 346.08H16.4553V353.118H68.7952V346.08ZM16.4553 414.701H68.7952V421.739H16.4553V414.701ZM68.7952 483.323H16.4553V490.361H68.7952V483.323ZM16.4553 551.945H68.7952V558.983H16.4553V551.945ZM68.7952 620.566H16.4553V627.604H68.7952V620.566ZM133.555 346.08H185.895V353.118H133.555V346.08ZM185.895 414.701H133.555V421.739H185.895V414.701ZM133.555 483.323H185.895V490.361H133.555V483.323ZM185.895 551.945H133.555V558.983H185.895V551.945ZM133.555 620.566H185.895V627.604H133.555V620.566ZM68.7952 357.517H16.4553V364.555H68.7952V357.517ZM16.4553 426.138H68.7952V433.176H16.4553V426.138ZM68.7952 494.76H16.4553V501.798H68.7952V494.76ZM16.4553 563.382H68.7952V570.42H16.4553V563.382ZM185.895 357.516H133.555V364.555H185.895V357.516ZM133.555 426.138H185.895V433.177H133.555V426.138ZM185.895 563.382H133.555V570.42H185.895V563.382ZM16.4553 368.953H68.7952V375.991H16.4553V368.953ZM68.7952 437.575H16.4553V444.613H68.7952V437.575ZM16.4553 506.197H68.7952V513.235H16.4553V506.197ZM68.7952 574.819H16.4553V581.857H68.7952V574.819ZM133.555 368.953H185.895V375.991H133.555V368.953ZM185.895 437.575H133.555V444.613H185.895V437.575ZM133.555 506.197H185.895V513.235H133.555V506.197ZM185.895 574.819H133.555V581.857H185.895V574.819ZM75.0041 311.769H127.344V318.807H75.0041V311.769ZM127.344 380.39H75.0041V387.429H127.344V380.39ZM75.0041 449.013H127.344V456.051H75.0041V449.013ZM127.344 517.634H75.0041V524.672H127.344V517.634ZM75.0041 586.256H127.344V593.294H75.0041V586.256ZM127.344 323.206H75.0041V330.244H127.344V323.206ZM75.0041 391.827H127.344V398.866H75.0041V391.827ZM127.344 460.449H75.0041V467.487H127.344V460.449ZM75.0041 529.071H127.344V536.109H75.0041V529.071ZM127.344 597.692H75.0041V604.73H127.344V597.692ZM75.0041 334.643H127.344V341.681H75.0041V334.643ZM127.344 403.264H75.0041V410.303H127.344V403.264ZM75.0041 471.886H127.344V478.924H75.0041V471.886ZM127.344 540.507H75.0041V547.545H127.344V540.507ZM75.0041 609.129H127.344V616.167H75.0041V609.129ZM127.344 346.08H75.0041V353.118H127.344V346.08ZM75.0041 414.701H127.344V421.739H75.0041V414.701ZM127.344 483.323H75.0041V490.361H127.344V483.323ZM75.0041 551.945H127.344V558.983H75.0041V551.945ZM127.344 357.516H75.0041V364.555H127.344V357.516ZM75.0041 426.138H127.344V433.177H75.0041V426.138ZM127.344 494.76H75.0041V501.798H127.344V494.76ZM75.0041 368.953H127.344V375.991H75.0041V368.953ZM127.344 437.575H75.0041V444.613H127.344V437.575ZM75.0041 506.197H127.344V513.235H75.0041V506.197ZM127.344 574.819H75.0041V581.857H127.344V574.819Z" fill="#202342"/>
</svg>
