<svg width="201" height="634" viewBox="0 0 201 634" fill="none" xmlns="http://www.w3.org/2000/svg">
<path fill-rule="evenodd" clip-rule="evenodd" d="M108.327 167.275H94.2343L100.84 0L108.327 167.275ZM125.943 200.745V167.275H75.7383V200.745H45.791V213.076H155.889V200.745H125.943ZM36.0996 213.076H165.575V287.062L187.597 287.062V306.44H14.082V287.062L36.0996 287.062V213.076Z" fill="#07161B"/>
<rect x="98.8477" y="219.242" width="67.8206" height="3.05633" transform="rotate(90 98.8477 219.242)" fill="white"/>
<rect x="128.688" y="219.242" width="67.8206" height="3.05633" transform="rotate(90 128.688 219.242)" fill="white"/>
<rect x="158.527" y="219.241" width="67.8206" height="3.05633" transform="rotate(90 158.527 219.241)" fill="white"/>
<rect x="91.3867" y="219.241" width="67.8206" height="3.05633" transform="rotate(90 91.3867 219.241)" fill="white"/>
<rect x="121.227" y="219.241" width="67.8206" height="3.05633" transform="rotate(90 121.227 219.241)" fill="white"/>
<rect x="151.066" y="219.242" width="67.8206" height="3.05633" transform="rotate(90 151.066 219.242)" fill="white"/>
<rect x="83.9297" y="219.241" width="67.8206" height="3.05633" transform="rotate(90 83.9297 219.241)" fill="white"/>
<rect x="113.766" y="219.241" width="67.8206" height="3.05633" transform="rotate(90 113.766 219.241)" fill="white"/>
<rect x="143.609" y="219.241" width="67.8206" height="3.05633" transform="rotate(90 143.609 219.241)" fill="white"/>
<rect x="76.4648" y="219.242" width="67.8206" height="3.05633" transform="rotate(90 76.4648 219.242)" fill="white"/>
<rect x="106.309" y="219.241" width="67.8206" height="3.05633" transform="rotate(90 106.309 219.241)" fill="white"/>
<rect x="136.148" y="219.241" width="67.8206" height="3.05633" transform="rotate(90 136.148 219.241)" fill="white"/>
<rect x="69.0078" y="219.241" width="67.8206" height="3.05633" transform="rotate(90 69.0078 219.241)" fill="white"/>
<rect x="61.5469" y="219.241" width="67.8206" height="3.05633" transform="rotate(90 61.5469 219.241)" fill="white"/>
<rect x="54.0859" y="219.241" width="67.8206" height="3.05633" transform="rotate(90 54.0859 219.241)" fill="white"/>
<rect x="46.625" y="219.242" width="67.8206" height="3.05633" transform="rotate(90 46.625 219.242)" fill="white"/>
<path fill-rule="evenodd" clip-rule="evenodd" d="M0.867188 306.347H200.806V633.119H0.867188V306.347ZM16.4572 311.769H68.7972V318.807H16.4572V311.769ZM68.7972 380.391H16.4572V387.429H68.7972V380.391ZM16.4572 449.012H68.7972V456.05H16.4572V449.012ZM68.7972 517.634H16.4572V524.672H68.7972V517.634ZM16.4572 586.255H68.7972V593.294H16.4572V586.255ZM185.897 311.769H133.557V318.807H185.897V311.769ZM133.557 380.39H185.897V387.429H133.557V380.39ZM185.897 449.013H133.557V456.051H185.897V449.013ZM133.557 517.634H185.897V524.672H133.557V517.634ZM185.897 586.256H133.557V593.294H185.897V586.256ZM16.4572 323.206H68.7972V330.244H16.4572V323.206ZM68.7972 460.449H16.4572V467.487H68.7972V460.449ZM16.4572 529.071H68.7972V536.109H16.4572V529.071ZM68.7972 597.692H16.4572V604.73H68.7972V597.692ZM133.557 323.206H185.897V330.244H133.557V323.206ZM185.897 391.827H133.557V398.866H185.897V391.827ZM133.557 460.449H185.897V467.487H133.557V460.449ZM185.897 529.071H133.557V536.109H185.897V529.071ZM133.557 597.692H185.897V604.73H133.557V597.692ZM68.7972 334.643H16.4572V341.681H68.7972V334.643ZM16.4572 403.265H68.7972V410.303H16.4572V403.265ZM68.7972 471.886H16.4572V478.924H68.7972V471.886ZM16.4572 540.507H68.7972V547.545H16.4572V540.507ZM68.7972 609.129H16.4572V616.167H68.7972V609.129ZM133.557 334.643H185.897V341.681H133.557V334.643ZM185.897 403.264H133.557V410.303H185.897V403.264ZM133.557 471.886H185.897V478.924H133.557V471.886ZM185.897 540.507H133.557V547.545H185.897V540.507ZM133.557 609.129H185.897V616.167H133.557V609.129ZM68.7972 346.08H16.4572V353.118H68.7972V346.08ZM16.4572 414.701H68.7972V421.739H16.4572V414.701ZM68.7972 483.323H16.4572V490.361H68.7972V483.323ZM16.4572 551.945H68.7972V558.983H16.4572V551.945ZM68.7972 620.566H16.4572V627.604H68.7972V620.566ZM133.557 346.08H185.897V353.118H133.557V346.08ZM185.897 414.701H133.557V421.739H185.897V414.701ZM133.557 483.323H185.897V490.361H133.557V483.323ZM185.897 551.945H133.557V558.983H185.897V551.945ZM133.557 620.566H185.897V627.604H133.557V620.566ZM68.7972 357.517H16.4572V364.555H68.7972V357.517ZM16.4572 426.138H68.7972V433.176H16.4572V426.138ZM68.7972 494.76H16.4572V501.798H68.7972V494.76ZM16.4572 563.382H68.7972V570.42H16.4572V563.382ZM185.897 357.516H133.557V364.555H185.897V357.516ZM133.557 426.138H185.897V433.177H133.557V426.138ZM185.897 563.382H133.557V570.42H185.897V563.382ZM16.4572 368.953H68.7972V375.991H16.4572V368.953ZM68.7972 437.575H16.4572V444.613H68.7972V437.575ZM16.4572 506.197H68.7972V513.235H16.4572V506.197ZM68.7972 574.819H16.4572V581.857H68.7972V574.819ZM133.557 368.953H185.897V375.991H133.557V368.953ZM185.897 437.575H133.557V444.613H185.897V437.575ZM133.557 506.197H185.897V513.235H133.557V506.197ZM185.897 574.819H133.557V581.857H185.897V574.819ZM75.0061 311.769H127.346V318.807H75.0061V311.769ZM127.346 380.39H75.0061V387.429H127.346V380.39ZM75.0061 449.013H127.346V456.051H75.0061V449.013ZM127.346 517.634H75.0061V524.672H127.346V517.634ZM75.0061 586.256H127.346V593.294H75.0061V586.256ZM127.346 323.206H75.0061V330.244H127.346V323.206ZM75.0061 391.827H127.346V398.866H75.0061V391.827ZM127.346 460.449H75.0061V467.487H127.346V460.449ZM75.0061 529.071H127.346V536.109H75.0061V529.071ZM127.346 597.692H75.0061V604.73H127.346V597.692ZM75.0061 334.643H127.346V341.681H75.0061V334.643ZM127.346 403.264H75.0061V410.303H127.346V403.264ZM75.0061 471.886H127.346V478.924H75.0061V471.886ZM127.346 540.507H75.0061V547.545H127.346V540.507ZM75.0061 609.129H127.346V616.167H75.0061V609.129ZM127.346 346.08H75.0061V353.118H127.346V346.08ZM75.0061 414.701H127.346V421.739H75.0061V414.701ZM127.346 483.323H75.0061V490.361H127.346V483.323ZM75.0061 551.945H127.346V558.983H75.0061V551.945ZM127.346 357.516H75.0061V364.555H127.346V357.516ZM75.0061 426.138H127.346V433.177H75.0061V426.138ZM127.346 494.76H75.0061V501.798H127.346V494.76ZM75.0061 368.953H127.346V375.991H75.0061V368.953ZM127.346 437.575H75.0061V444.613H127.346V437.575ZM75.0061 506.197H127.346V513.235H75.0061V506.197ZM127.346 574.819H75.0061V581.857H127.346V574.819Z" fill="#07161B"/>
</svg>
